<svg width="532" height="400" viewBox="0 0 532 400" fill="none" xmlns="http://www.w3.org/2000/svg">
<g clip-path="url(#clip0_45_1864)">
<rect width="532" height="400" fill="white"/>
<path d="M316 322.95C300.84 320.98 258.54 315.794 252.63 315.11C249.274 314.313 245.741 314.813 242.738 316.51C239.2 318.198 231.538 320.91 232.404 321.938C233.27 322.966 239.722 319.526 243.22 317.998C245.157 316.813 247.477 316.424 249.694 316.912C253.354 317.836 257.334 318.038 261.114 318.6C264.974 319.2 311.778 325.958 312.742 326.12C296.742 333.638 240.204 360.298 229.342 365.444C227.854 366.168 225.602 367.856 223.914 367.494C223.914 367.494 161.59 354.386 160.866 354.226C173.452 348.154 186.278 342.284 198.466 335.488C199.254 335.167 199.977 334.704 200.596 334.12C198.578 334.12 171.646 346.43 161.674 350.808C160.428 351.408 158.418 351.894 157.532 353.06C157.319 353.361 157.18 353.708 157.124 354.072C157.069 354.437 157.099 354.809 157.212 355.16C157.325 355.511 157.518 355.831 157.776 356.094C158.034 356.358 158.349 356.557 158.698 356.678C160.536 357.192 211.498 368.746 214.308 369.384C218.568 370.356 223.95 372.506 227.054 370.872C237.508 365.886 308.88 332.15 313.054 330.14C319.558 326.288 324.112 324.362 316 322.95Z" fill="#343A40"/>
<path d="M400.16 233.6C400.734 209.68 399.718 190.55 399.718 130.504C399.909 127.906 399.732 125.293 399.194 122.744C398.867 121.454 398.138 120.301 397.11 119.455C396.083 118.608 394.813 118.112 393.484 118.038C380.014 117.354 366.384 118.08 352.832 118.12C338.96 118.16 228.346 118.642 219.298 118.682C216.002 118.682 212.864 118.602 212.06 122.622C211.336 126.2 212.142 130.102 212.182 133.72C212.382 146.306 212.342 233.038 212.342 236.896C212.342 239.872 211.296 244.896 214.192 246.87C216.484 248.436 221.228 247.312 223.922 247.23C227.542 247.11 387.332 243.13 391.594 243.17C393.599 243.284 395.599 242.87 397.394 241.97C400.562 240.16 400.084 236.742 400.16 233.6ZM395.696 238.024C394.724 239.598 393.412 239.35 389.624 239.35C381.224 239.466 216.284 244.75 216.082 244.658C215.818 244.574 215.582 244.421 215.398 244.214C215.23 243.937 215.159 243.612 215.198 243.29C215.156 116.932 214.962 122.318 215.398 122.1C215.574 121.57 373.012 121.858 372.736 121.858C379.492 121.858 387.136 120.814 393.766 121.94C394.732 122.1 394.966 122.34 395.414 123.226C395.765 124.345 395.942 125.511 395.938 126.684C395.978 138.022 396.42 216.47 396.42 223.426C396.258 226.328 397.734 234.724 395.696 238.03V238.024Z" fill="#343A40"/>
<path d="M198.35 76.066C198.59 76.104 198.872 75.826 199.274 75.222C203.014 70.156 211.216 69.07 216.846 70.638C219.682 71.5023 222.347 72.8487 224.726 74.618C226.126 75.618 226.778 75.544 225.972 73.774C224.297 70.8382 221.653 68.5759 218.494 67.374C216.317 66.4615 213.979 65.9963 211.618 66.006C203.218 66.086 198.018 71.304 197.866 74.57C197.786 75.544 198.068 76.022 198.35 76.066Z" fill="#343A40"/>
<path d="M178.2 81.816C178.442 81.896 178.764 81.656 179.126 81.172C180.363 79.795 181.884 78.704 183.585 77.9749C185.286 77.2457 187.126 76.896 188.976 76.95C194.45 77.07 196.018 79.202 198.506 81.012C200.852 82.856 200.068 79.786 198.306 77.352C193.732 71.254 181.706 71.816 178.404 78.198C178.124 78.84 177 81.414 178.2 81.816Z" fill="#343A40"/>
<path d="M246.2 78.76C241.934 75.38 235.82 75.512 230.84 77.594C229.533 78.1142 228.354 78.9095 227.382 79.926C226.738 80.65 226.618 81.172 226.658 81.294C226.538 80.894 231.042 79.162 231.524 79.042C235.464 77.916 240.772 77.956 244.07 80.642C245.141 81.6297 245.953 82.8643 246.437 84.2383C246.92 85.6122 247.06 87.0836 246.844 88.524C246.629 90.1752 245.996 91.7439 245.003 93.0809C244.011 94.4178 242.692 95.4785 241.174 96.162C238.158 97.562 233.614 97.048 229.11 97.128C214.51 97.45 199.92 97.168 185.324 97.528C182.106 97.6627 178.883 97.596 175.674 97.328C172.376 97.008 168.034 96.606 166.344 93.228C165.178 90.734 166.544 87.628 167.944 85.828C169.994 83.176 175.06 82.974 176.83 86.11C177.119 86.67 177.335 87.2649 177.472 87.88C177.554 88 177.872 87.558 177.754 86.392C177.563 85.5588 177.169 84.7855 176.608 84.1403C176.047 83.495 175.336 82.9977 174.538 82.692C173.26 82.1076 171.837 81.9143 170.449 82.1363C169.061 82.3584 167.77 82.9859 166.738 83.94C165.38 85.1401 164.374 86.6872 163.829 88.4155C163.284 90.1437 163.219 91.9878 163.642 93.75C164.391 95.7961 165.845 97.5075 167.744 98.576C173.06 101.628 184.812 101.12 193.236 101.068C199.75 101.028 222.388 101.028 227.174 100.948C231.716 100.908 236.774 101.47 241.174 100.064C243.478 99.3147 245.529 97.9405 247.098 96.0943C248.667 94.2482 249.692 92.0027 250.06 89.608C250.397 87.6207 250.219 85.5802 249.543 83.6812C248.867 81.7822 247.716 80.088 246.2 78.76Z" fill="#343A40"/>
<path d="M469.325 86.1377C470.725 86.221 472.054 86.7796 473.094 87.721C474.133 88.6625 474.82 89.9306 475.042 91.3156C475.161 92.2448 475.083 93.1888 474.812 94.0856C474.541 94.9825 474.084 95.8119 473.47 96.5196C472.856 97.2272 472.099 97.797 471.249 98.1916C470.4 98.5863 469.476 98.7968 468.539 98.8094C467.011 98.5163 465.641 97.6763 464.688 96.4465C463.734 95.2167 463.261 93.6815 463.357 92.1281C463.453 90.5747 464.112 89.1096 465.211 88.0069C466.309 86.9043 467.772 86.2398 469.325 86.1377Z" fill="#2271B1"/>
<path d="M472.132 58.986C471.999 58.7404 471.807 58.5323 471.572 58.381C471.338 58.2296 471.069 58.1399 470.79 58.1203C470.512 58.1006 470.233 58.1515 469.979 58.2684C469.726 58.3852 469.506 58.5642 469.34 58.7887C465.952 63.6734 451.474 86.067 451.662 111.201C452.149 110.928 452.887 110.415 453.671 109.931C453.973 86.764 466.769 66.1957 470.649 60.5071C479.07 76.7008 483.306 94.7437 482.972 112.993C483.815 113.476 484.521 113.904 484.979 114.203C485.336 95.0174 480.921 76.0436 472.132 58.986Z" fill="#343A40"/>
<path d="M478.548 193.738C476.257 178.104 470.763 160.297 469.426 142.519C469.413 138.294 469.395 134.034 469.376 129.765C472.005 129.855 474.632 129.538 477.164 128.826C477.168 128.298 477.142 127.57 477.174 126.67C470.488 128.747 462.977 127.133 458.626 125.731C458.641 126.663 458.673 127.432 458.664 127.921C460.86 128.599 463.107 129.099 465.383 129.414C465.219 129.398 465.603 144.5 465.62 146.001C465.593 160.798 469.419 178.037 458.835 190.398C455.439 194.21 450.986 196.926 446.042 198.2C441.098 199.474 435.887 199.249 431.071 197.553C425.773 195.124 421.255 191.27 418.021 186.421C410.147 175.667 406.17 162.676 402.309 149.913C403.567 160.079 406.458 169.975 410.87 179.22C415.025 187.877 421.536 196.269 430.563 200.186C435.583 202.162 441.073 202.618 446.35 201.498C451.627 200.378 456.458 197.731 460.242 193.887C466.345 187.211 469.734 178.496 469.746 169.451C475.356 195.531 481.098 221.96 469.247 247.306C462.154 262.547 449.674 274.627 434.21 281.222C430.482 282.762 422.462 283.923 422.592 284.703C422.722 285.482 430.719 283.54 434.616 282.312C463.573 273.222 485.435 240.746 478.548 193.738Z" fill="#343A40"/>
<path d="M478.484 112.876C478.484 112.876 496.468 118.573 493.793 141.358C493.793 141.358 485.863 125.86 478.441 127.271L478.484 112.876Z" fill="#343A40"/>
<path d="M456.717 109.931L457.134 126.368C454.11 126.576 451.272 127.908 449.18 130.102C447.088 132.296 445.892 135.193 445.828 138.224C445.822 138.185 439.423 116.162 456.717 109.931Z" fill="#343A40"/>
<path d="M407.718 242.25C407.635 242.148 407.533 242.064 407.417 242.003C407.301 241.941 407.174 241.904 407.043 241.893C406.913 241.881 406.781 241.897 406.656 241.937C406.532 241.978 406.417 242.044 406.318 242.13C386.414 258.978 357.664 265.774 332.454 269.232C309.729 272.22 286.714 272.274 263.976 269.392C247.852 267.462 231.776 263.442 217.454 255.48C215.49 254.421 213.621 253.197 211.866 251.82C211.658 251.655 211.392 251.579 211.128 251.609C210.864 251.64 210.623 251.774 210.458 251.982C210.293 252.19 210.217 252.455 210.247 252.72C210.278 252.984 210.412 253.225 210.62 253.39C213.318 255.407 216.197 257.17 219.22 258.656C218.094 263.844 213.47 285.234 215.762 285.034C218.054 284.834 236.75 270.034 240.772 266.858C244.792 268.072 248.872 269.079 252.996 269.874C255.448 275.746 264.374 296.896 266.144 296.534C267.914 296.172 276.678 278.078 279.212 272.734C285.244 273.014 296.18 273.096 296.18 273.096C296.18 273.096 312.022 296.496 313.51 296.496C314.758 296.496 322.236 278.24 324.81 271.928C330.318 271.404 335.586 270.762 340.692 269.878C341.938 270.962 365.542 291.148 365.34 287.168C365.18 283.628 365.3 268.188 365.34 264.006C371.043 262.294 376.665 260.322 382.188 258.096C386.37 261.192 405.988 275.788 406.956 274.34C407.956 272.852 403.498 250.34 402.936 247.28C404.598 246.115 406.22 244.894 407.8 243.62C407.944 243.416 408.014 243.17 407.999 242.921C407.984 242.672 407.885 242.435 407.718 242.25ZM271 283.586C270.766 285.106 270.335 286.59 269.72 288C269.31 289.154 268.552 290.152 267.55 290.856C266.706 291.218 266.424 290.736 266.35 289.932C266.221 288.781 266.249 287.618 266.432 286.474C266.954 283.376 268.362 280.16 269.608 279.396C270.846 278.6 271.47 280.452 271 283.586ZM222.226 267.622C221.946 271.604 220.658 275.906 219.41 277.192C218.162 278.478 217.4 276.268 217.682 272.328C217.964 268.388 219.25 264.128 220.496 262.838C221.75 261.47 222.516 263.6 222.234 267.622H222.226ZM358.534 280.69C355.412 280.832 347.758 275.574 347.758 272.368C347.758 272.168 347.84 272.086 347.958 272.046C348.305 271.981 348.663 271.995 349.004 272.086C351.892 272.498 358.462 277.306 359.458 279.486C359.748 280.248 359.428 280.65 358.542 280.69H358.534Z" fill="#2271B1"/>
<path d="M288.78 326.49C250.45 321.182 253.016 321.396 252.23 321.744L235.904 328.744C236.428 330.032 236.668 332.244 233.774 334.294C230.356 336.706 224.574 335.42 222.072 334.656L185.072 350.538C185.025 350.565 184.986 350.605 184.96 350.654C184.935 350.702 184.923 350.757 184.927 350.812C184.932 350.866 184.951 350.919 184.984 350.963C185.016 351.006 185.061 351.04 185.112 351.06L217.602 358.338C218.045 358.442 218.51 358.4 218.928 358.218L288.852 327.056C288.9 327.022 288.937 326.976 288.961 326.922C288.984 326.868 288.993 326.81 288.985 326.752C288.978 326.693 288.955 326.639 288.919 326.592C288.883 326.546 288.835 326.511 288.78 326.49ZM247.928 337.628C246.798 341.816 242.078 343.648 237.916 344.784C230.176 346.746 222.806 344.984 219.298 342.13C217.61 340.73 218.172 340.402 220.142 340.884C223.547 341.723 227.051 342.088 230.556 341.97C234.44 341.77 241.184 340.394 243.624 338.19C244.559 337.283 245.163 336.089 245.338 334.798C245.514 333.507 245.25 332.195 244.59 331.072C244.228 330.31 243.99 329.948 244.228 329.746C244.92 329.054 249.448 331.986 247.928 337.628Z" fill="#2271B1"/>
<path d="M190.348 321.142C188.841 320.423 187.119 320.293 185.522 320.78C184.638 321.18 184.678 321.744 185.282 322.268C186.264 323.12 189.35 324.546 193.002 327.334C194.53 328.46 195.574 329.424 196.258 330.028C196.942 330.632 197.546 330.792 197.746 329.666C198.046 327.646 195.544 323.152 190.348 321.142Z" fill="#343A40"/>
<path d="M196.982 315.954C195.616 315.219 194.061 314.911 192.518 315.07C191.594 315.27 191.474 315.834 191.918 316.436C194.166 318.49 196.574 320.363 199.118 322.036C200.604 323.122 201.69 323.966 202.494 324.448C203.258 324.89 203.822 324.97 203.862 323.886C203.69 322.331 203.012 320.876 201.932 319.744C200.576 318.137 198.887 316.844 196.982 315.954Z" fill="#343A40"/>
<path d="M232.93 327.616C231.518 323.158 225.368 323.338 221.75 321.504C209.464 315.214 200.72 303.472 184.96 300.876C177.004 299.908 168.936 300.481 161.196 302.564C138.76 307.51 116.162 311.854 94.2081 318.564C89.364 311.396 85.8118 303.435 83.7121 295.042C83.5121 294.116 82.7121 292.95 81.9121 293.442C81.3881 293.762 81.4681 294.526 81.6301 295.13C83.7037 303.759 87.3132 311.945 92.2861 319.296C88.8681 320.296 82.0861 323.03 82.7561 323.88C83.4261 324.73 88.5461 322.232 90.7561 321.668C98.8601 319.558 109.994 317.068 117.294 315.596C133.336 312.3 149.34 308.882 165.344 305.664C197.36 299.286 204.228 317.81 221.154 324.402C226.238 326.566 229.602 325.898 230.602 327.9C230.761 328.151 230.861 328.435 230.893 328.73C230.926 329.025 230.89 329.324 230.789 329.604C230.689 329.883 230.525 330.136 230.312 330.343C230.099 330.549 229.841 330.704 229.558 330.796C227.652 331.559 225.611 331.928 223.558 331.882C222.714 331.882 219.658 331.158 219.136 331.6C219.014 331.68 219.336 331.962 220.382 332.4C223.74 333.744 229.582 333.8 232.042 331.354C232.525 330.877 232.865 330.273 233.022 329.612C233.179 328.951 233.147 328.26 232.93 327.616Z" fill="#343A40"/>
<path d="M181.662 274.298C179.602 265.37 178.79 264.842 174.908 256.846C173.555 254.275 171.981 251.826 170.204 249.528C162.302 238.859 151.248 230.941 138.604 226.892C133.396 225.374 128.024 224.496 122.604 224.278C122.478 224.234 120.632 218.922 120.604 218.808C128.364 218.366 139.14 215.592 139.744 214.386C140.714 211.53 141.282 208.553 141.432 205.54C143.082 189.496 142.478 172.328 137.01 157.008C130.452 138.69 115.854 133.096 96.8099 137.748C70.1439 144.358 55.6099 174.77 52.2979 202.122C51.9379 205.178 50.9319 210.044 52.3399 213.018C55.0739 218.618 85.4319 219.774 93.7939 219.976C93.6839 223.918 93.3379 227.576 93.3539 227.376C91.2759 228.406 78.6399 230.43 73.6899 232.08C64.1965 235.053 55.508 240.156 48.2879 247C27.8979 266.096 22.5279 299.586 33.7319 322.914C43.2219 342.336 63.2459 352.714 84.3159 353.394C100.116 353.88 115.838 349.976 130.758 344.594C142.685 340.436 154.087 334.903 164.734 328.108C167.434 326.814 170.844 328.258 174.586 329.192C175.792 329.646 177.078 329.85 178.366 329.792C178.566 329.672 177.766 329.552 175.872 328.828C171.156 327.06 169.036 326.072 165.9 326.254C163.448 326.414 160.994 328.466 158.9 329.632C149.88 334.404 140.495 338.451 130.834 341.734C110.85 348.534 87.9299 353.274 67.1819 346.76C23.6619 333.144 22.6859 274.96 51.9439 248.61C59.6673 241.556 69.0199 236.527 79.1639 233.974C90.2899 240.892 106.438 246.544 119.052 242.94C122.513 241.923 125.735 240.221 128.525 237.935C131.316 235.648 133.619 232.825 135.298 229.632C135.618 229.752 136.02 229.832 136.342 229.952C148.244 233.848 158.761 241.111 166.62 250.862C168.942 254.042 172.514 257.54 180.02 274.344C182.144 278.922 182.842 279.41 181.662 274.298ZM66.3419 178.118C64.5319 180.772 64.2119 180.248 65.1419 177.192C68.272 167.685 73.7974 159.144 81.1859 152.392C89.7099 144.85 100.586 141.372 108.046 141.736C111.342 141.978 110.98 142.536 107.924 143.264C106.396 143.706 104.186 144.188 101.524 145.114C79.6599 152.612 72.7139 169.056 66.3419 178.118ZM86.9699 175.222H86.8479C86.8789 175.218 86.9078 175.204 86.9299 175.182C86.9405 175.182 86.9507 175.186 86.9582 175.194C86.9657 175.201 86.9699 175.211 86.9699 175.222ZM118.614 240.964C104.902 244.86 88.3759 236.822 82.2239 233.324C83.3499 233.124 92.6639 231.43 93.4019 231.124C94.2295 230.864 94.9581 230.358 95.49 229.673C96.0218 228.988 96.3316 228.156 96.3779 227.29C97.1365 216.528 96.1038 205.714 93.3219 195.29C92.4379 192.194 91.3919 189.138 90.3879 186.042C90.1459 185.318 87.7339 185.68 86.9699 185.4C81.7199 183.874 81.8159 176.986 86.1699 175.8C87.6579 175.4 88.3799 176.2 89.6679 176.644C90.5281 176.935 91.4547 176.969 92.3335 176.74C93.2124 176.511 94.005 176.03 94.6139 175.356C99.8399 170.056 96.7559 162.874 105.39 156.338C110.208 153.085 115.901 151.374 121.714 151.432C123.444 151.341 125.172 151.652 126.762 152.34C128.352 153.029 129.76 154.076 130.878 155.4C133.37 158.496 133.09 161.832 133.01 165.532C132.852 174.496 132.582 184.62 129.712 192.512C127.54 198.584 122.8 204.696 116 205.66C111.478 206.213 106.896 205.342 102.892 203.168C101.204 202.284 100.278 201.6 99.9979 201.768C99.4139 202.002 102.638 206.55 109.648 208.322C111.658 208.829 113.728 209.059 115.8 209.006C115.96 209.006 116.122 208.966 116.242 208.966C117.006 212.344 117.442 215.72 118.242 219.058C118.806 221.27 118.886 226.296 121.74 226.9C123.63 227.3 125.56 227.342 127.49 227.662C129.428 227.991 131.347 228.421 133.24 228.95C131.754 231.847 129.689 234.408 127.173 236.474C124.657 238.541 121.744 240.069 118.614 240.964Z" fill="#343A40"/>
<path d="M102.29 170.518C107.598 163.602 112.06 171.04 111.176 168.548C108.442 160.828 100.56 166.456 99.9981 168.508C99.5141 170.6 101.766 171.12 102.29 170.518Z" fill="#343A40"/>
<path d="M129.752 167.824C130.396 168.266 132.446 167.18 131.442 165.33C130.438 163.48 121.388 160.184 120.664 168.266C120.424 170.84 122.956 162.556 129.752 167.824Z" fill="#343A40"/>
<path d="M117.77 188.13C118.341 188.233 118.925 188.246 119.5 188.17C120.472 188.111 121.412 187.806 122.234 187.284C122.62 187.032 122.904 186.652 123.037 186.21C123.169 185.769 123.141 185.295 122.958 184.872C122.546 183.128 121.202 177.932 119.982 176.63C118.896 175.342 118.132 177.43 118.614 181.374C118.767 182.65 119.064 183.905 119.5 185.114C119.163 185.305 118.84 185.52 118.534 185.758C117.2 186.516 116.2 187.788 117.77 188.13Z" fill="#343A40"/>
<path d="M111.054 174.216C109.573 173.919 108.056 173.838 106.552 173.976C104.822 173.896 103.656 173.936 104.22 174.7C104.725 175.208 105.368 175.556 106.07 175.7C108.278 176.378 112.436 174.964 111.054 174.216Z" fill="#343A40"/>
<path d="M128.666 170.316C127.315 170.562 126.03 171.082 124.888 171.844C123.488 172.644 122.756 173.412 123.52 173.694C124.265 173.772 125.018 173.702 125.735 173.488C126.453 173.274 127.121 172.921 127.702 172.448C129.15 171.362 129.47 170.356 128.666 170.316Z" fill="#343A40"/>
<path d="M109.286 192.512C109.608 194.2 115.638 199.388 118.172 193.598C118.972 191.748 115.036 197.136 111.172 191.146C110.963 190.992 110.711 190.908 110.452 190.907C110.193 190.906 109.94 190.988 109.73 191.14C109.52 191.292 109.364 191.507 109.284 191.753C109.204 192 109.205 192.266 109.286 192.512Z" fill="#343A40"/>
<path d="M376.638 163.984H231.884C231.625 164.005 231.373 164.078 231.143 164.199C230.913 164.319 230.71 164.485 230.545 164.685C230.38 164.886 230.257 165.117 230.183 165.366C230.109 165.615 230.085 165.876 230.114 166.134L231.08 224.638C231.127 225.094 231.343 225.516 231.685 225.821C232.028 226.127 232.471 226.293 232.93 226.288H376.678C377.167 226.282 377.634 226.085 377.979 225.74C378.324 225.394 378.521 224.927 378.526 224.438V165.732C378.533 165.488 378.488 165.246 378.394 165.021C378.3 164.796 378.159 164.594 377.98 164.428C377.801 164.263 377.589 164.137 377.357 164.061C377.126 163.984 376.88 163.958 376.638 163.984ZM282.748 216.136H246.72C246.199 216.131 245.701 215.925 245.328 215.562C244.955 215.198 244.737 214.704 244.72 214.184C244.56 207.752 244.076 187.284 243.836 175.302C243.829 175.034 243.876 174.768 243.974 174.519C244.073 174.27 244.22 174.043 244.407 173.852C244.595 173.661 244.819 173.509 245.066 173.406C245.313 173.303 245.578 173.251 245.846 173.252H282.034C282.561 173.249 283.069 173.454 283.445 173.823C283.822 174.192 284.038 174.695 284.046 175.222C284.126 185.476 284.688 206.062 284.768 214.064C284.772 214.333 284.722 214.6 284.623 214.849C284.523 215.099 284.375 215.327 284.188 215.519C284 215.711 283.776 215.865 283.529 215.971C283.282 216.077 283.017 216.133 282.748 216.136ZM294.812 186.078C295.928 185.342 297.264 185.478 297.666 186.32C297.838 186.867 297.813 187.457 297.593 187.986C297.374 188.516 296.975 188.951 296.466 189.216C295.34 189.938 294.014 189.816 293.61 188.974C293.082 188.13 293.676 186.828 294.812 186.078ZM293.646 199.308C293.469 198.752 293.502 198.149 293.739 197.616C293.976 197.082 294.4 196.654 294.932 196.412C296.132 195.688 297.506 195.812 297.948 196.654C298.121 197.211 298.086 197.811 297.849 198.344C297.612 198.876 297.189 199.304 296.66 199.548C295.494 200.312 294.112 200.2 293.646 199.308ZM297.224 208.958C296.024 209.682 294.65 209.558 294.208 208.716C294.034 208.16 294.069 207.559 294.306 207.027C294.543 206.494 294.965 206.066 295.494 205.822C296.694 205.098 298.068 205.222 298.51 206.062C298.694 206.618 298.664 207.223 298.426 207.758C298.188 208.294 297.76 208.721 297.224 208.958ZM339.282 209.2C326.174 209.904 311.378 209.8 306.11 208.958C300.842 208.074 307.196 206.786 320.31 206.062C333.424 205.338 348.214 205.462 353.482 206.304C358.704 207.188 352.35 208.496 339.282 209.2ZM312.584 195.488C319.256 194.746 326.858 194.888 329.552 195.728C332.246 196.614 328.99 197.9 322.274 198.624C315.6 199.348 308 199.224 305.306 198.382C302.612 197.54 305.866 196.234 312.584 195.488ZM339.806 188.288C326.006 189.072 310.332 189.012 304.742 188.168C299.194 187.324 305.908 185.996 319.7 185.232C333.5 184.432 349.174 184.508 354.764 185.352C360.312 186.2 353.636 187.506 339.8 188.29L339.806 188.288Z" fill="#2271B1"/>
<path d="M379.532 132.4H231.964C231.164 132.4 230.564 133.444 230.564 134.732V146.834C230.564 148.122 231.248 149.248 232.052 149.166H379.62C380.42 149.166 381.02 148.122 381.02 146.834V134.732C380.94 133.444 380.336 132.4 379.532 132.4ZM377.562 142.412C377.564 142.587 377.531 142.76 377.465 142.922C377.399 143.084 377.301 143.231 377.177 143.355C377.053 143.478 376.906 143.576 376.744 143.641C376.582 143.707 376.409 143.74 376.234 143.738H235.14C234.965 143.74 234.792 143.707 234.63 143.641C234.469 143.575 234.322 143.477 234.198 143.354C234.075 143.23 233.977 143.083 233.911 142.922C233.845 142.76 233.812 142.587 233.814 142.412V139.234C233.812 139.059 233.845 138.886 233.911 138.724C233.977 138.563 234.075 138.416 234.198 138.292C234.322 138.169 234.469 138.071 234.63 138.005C234.792 137.939 234.965 137.906 235.14 137.908H376.234C376.409 137.906 376.582 137.939 376.744 138.005C376.906 138.071 377.053 138.169 377.176 138.292C377.3 138.416 377.398 138.562 377.464 138.724C377.53 138.886 377.564 139.059 377.562 139.234V142.412Z" fill="#2271B1"/>
</g>
<defs>
<clipPath id="clip0_45_1864">
<rect width="532" height="400" fill="white"/>
</clipPath>
</defs>
</svg>
