<svg width="532" height="400" viewBox="0 0 532 400" fill="none" xmlns="http://www.w3.org/2000/svg">
<rect width="532" height="400" fill="white"/>
<path d="M365 200V171.5H454.5V200H365Z" fill="#2271B1"/>
<path fill-rule="evenodd" clip-rule="evenodd" d="M245.408 326.866L244.972 326.864C246.107 327.857 247.125 328.794 248.042 329.679C273.385 329.767 299.605 329.839 324.832 329.891L325.881 327.27C307.513 327.172 288.727 327.077 270.212 326.985L268.314 327.005C258.413 327.113 250.745 327.194 245.408 326.866ZM147.297 329.181C146.789 328.277 146.306 327.36 145.846 326.43C117.76 326.32 99.5742 326.262 98.7607 326.284C93.7518 326.414 93.1833 327.45 92.7788 328.19L92.6934 328.342C92.5069 328.657 114.181 328.94 147.297 329.181ZM472.913 328.291C463.124 328.169 448.167 328.039 429.77 327.904L428.911 329.985C451.614 329.967 467.753 329.909 473.284 329.81C480.315 329.684 480.189 328.381 472.913 328.291Z" fill="#343A40"/>
<path d="M278.356 325.68C284.298 299.417 276.383 232.422 273.46 207.322C272.988 203.277 270.051 196.535 272.826 220.519C280.017 282.66 275.655 317.862 276.471 325.558C276.588 326.655 278.21 326.327 278.356 325.68Z" fill="#343A40"/>
<path d="M308.951 259.141C307.893 264.928 309.85 285.237 308.502 319.814C308.308 324.698 308.524 325.594 309.625 325.623C312.43 325.695 313.083 262.57 308.951 259.141Z" fill="#343A40"/>
<path d="M231.294 268.712C232.064 268.599 232.791 268.289 233.406 267.812C234.021 267.335 234.503 266.708 234.804 265.99C235.104 265.272 235.213 264.488 235.121 263.715C235.028 262.942 234.737 262.206 234.276 261.579C233.242 259.993 234.137 261.579 208.11 260.543C204.858 260.413 205.692 261.997 208.699 262.24C216.159 263.173 223.69 263.442 231.197 263.042C231.779 262.986 232.887 262.175 232.948 263.633C233.022 265.386 234.692 267.229 226.948 267.483C220.798 267.752 214.636 267.528 208.521 266.808C201.216 265.883 212.858 272.148 231.294 268.712Z" fill="#343A40"/>
<path d="M280.397 355.03C284.504 351.187 276.338 344.657 271.264 345.194C269.597 345.371 269.572 346.67 270.887 347.185C273.226 348.102 278.397 349.052 280.397 355.03Z" fill="#343A40"/>
<path d="M401.046 208.913C400.496 202.717 392.867 207.708 396.815 207.564C401.354 207.403 398.246 213.151 394.999 216.328C388.804 222.373 401.696 216.232 401.044 208.913H401.046Z" fill="#343A40"/>
<path d="M401.503 222.238C408.817 223.515 412.792 211.474 408.085 208.146C407.53 207.755 406.548 207.861 407.154 209.016C407.726 210.022 408.084 211.136 408.204 212.288C408.324 213.439 408.204 214.603 407.853 215.706C407.501 216.809 406.924 217.827 406.159 218.696C405.394 219.565 404.458 220.266 403.408 220.755C402.752 221.099 401.959 221.288 401.503 222.238Z" fill="#343A40"/>
<path d="M276.976 355.434C276.428 353.628 275.306 352.049 273.78 350.937C272.254 349.825 270.408 349.24 268.52 349.27C266.484 349.344 266.12 351.162 268.278 351.497C274.797 352.513 276.972 361.115 276.976 355.434Z" fill="#343A40"/>
<path d="M264.644 352.971C263.651 353.102 262.152 353.176 262.235 354.466C262.352 356.263 265.909 354.383 270.26 358.511C272.711 360.834 272.084 353.068 264.644 352.971Z" fill="#343A40"/>
<path d="M399.77 219.148C404.145 217.575 407.489 210.371 404.04 206.863C403.628 206.443 403.058 205.704 402.433 206.295C401.808 206.886 402.741 207.259 403.002 207.679C405.57 211.796 400.822 216.791 399.77 219.148Z" fill="#343A40"/>
<path d="M264.588 172.403C265.361 172.178 266.61 171.989 266.372 171.156C266.325 170.997 266.222 170.861 266.083 170.772C265.943 170.683 265.776 170.647 265.613 170.67C264.743 170.719 263.874 170.553 263.084 170.186C262.293 169.82 261.605 169.265 261.08 168.569C259.024 166.569 259.9 172.437 264.588 172.401V172.403Z" fill="#343A40"/>
<path d="M271.039 163.551C271.534 162.486 270.814 161.567 270.408 160.63C270.393 160.566 270.364 160.505 270.324 160.452C270.284 160.399 270.234 160.355 270.176 160.322C270.119 160.29 270.055 160.27 269.989 160.265C269.923 160.259 269.856 160.268 269.794 160.291C269.732 160.313 269.675 160.347 269.626 160.392C269.554 160.461 269.505 160.551 269.488 160.649C269.47 160.747 269.484 160.848 269.527 160.938C270.963 164.691 266.381 162.853 267.089 164.327C267.545 165.262 270.3 165.145 271.039 163.551Z" fill="#343A40"/>
<path d="M259.756 154.37C259.925 157.635 263.073 157.109 263.127 154.453C263.145 153.423 262.889 152.343 261.469 152.32C260.048 152.298 259.896 153.363 259.756 154.37Z" fill="#343A40"/>
<path d="M278.518 155.399C278.909 158.769 281.889 158.046 281.929 155.468C281.942 154.379 281.677 153.291 280.381 153.206C278.909 153.104 278.774 154.358 278.518 155.399Z" fill="#343A40"/>
<path d="M257.46 142.179C261.037 139.963 266.873 141.779 265.999 143.684C265.619 144.516 265.869 143.81 258.848 143.287C257.343 143.174 257.221 142.462 257.46 142.181V142.179Z" fill="#343A40"/>
<path d="M203.501 204.021C231.903 193.796 242.044 201.6 244.707 192.38C244.729 192.303 244.732 192.221 244.714 192.142C244.688 192.022 244.619 191.916 244.52 191.844C244.421 191.772 244.298 191.74 244.177 191.753C220.132 194.299 214.083 168.718 230.352 156.871C231.011 156.392 231.458 156.228 230.907 155.161C222.593 139.021 234.541 129.197 232.37 127.17C230.864 125.598 229.868 123.607 229.512 121.459C229.157 119.311 229.458 117.106 230.377 115.132C233.68 108.703 242.736 105.501 248.774 109.496C249.673 110.08 250.536 110.665 252.404 108.123C256.159 103.017 261.741 101.77 261.419 103.381C260.424 108.377 262.116 106.851 254.831 115.202C253.889 116.28 254.869 117.13 255.033 118.055C255.181 118.914 255.763 118.231 256.057 118.109C270.383 112.123 286.812 121.121 289.396 132.233C293.043 147.916 284.608 147.462 286.549 149.961C287.43 150.92 288.105 152.05 288.533 153.28C288.961 154.51 289.133 155.814 289.039 157.113C288.942 158.412 288.581 159.677 287.976 160.831C287.372 161.985 286.537 163.002 285.524 163.821C285.328 163.943 285.173 164.122 285.08 164.334C284.987 164.545 284.96 164.78 285.003 165.008C285.031 165.159 285.088 165.303 285.172 165.432C289.808 175.198 286.457 187.553 276.268 190.623C264.323 194.218 265.509 187.958 265.747 196.69C265.826 199.587 272.518 195.302 292.882 205.967C309.906 214.892 331.506 234.582 338.53 251.732C339.863 254.984 340.515 248.566 360.575 235.038C369.256 229.195 376.328 223.861 379.485 225.501C379.549 225.532 379.619 225.547 379.69 225.548C379.761 225.548 379.832 225.532 379.896 225.502C379.96 225.472 380.017 225.428 380.063 225.374C380.108 225.319 380.141 225.255 380.159 225.187C388.085 197.771 411.929 190.266 405.804 194.764C403.417 196.322 401.119 198.012 398.921 199.827C391.182 207.259 385.405 216.492 382.107 226.701C381.674 227.935 385.613 229.706 388.471 231.076C395.95 234.672 396.157 231.526 400.716 225.36C400.93 225.067 400.896 224.366 401.741 224.636C400.86 232.029 396.213 233.33 397.426 234.207C402.633 237.968 401.087 277.042 383.197 300.296C361.512 328.482 309.798 325.408 309.798 323.796C309.798 323.122 309.668 322.392 310.293 322.426C354.526 324.747 381.168 304.673 387.217 290.837C387.413 290.92 392.444 282.073 395.372 268.092C396.698 261.741 401.13 236.955 394.649 235.683C390.621 234.702 386.767 233.11 383.22 230.964C381.274 229.908 379.932 227.227 377.779 227.481C374.103 227.921 349.703 242.849 321.409 276.842C318.362 280.503 317.859 278.709 320.537 274.772C333.616 255.557 337.748 257.213 335.953 253.741C323.755 230.115 298.751 205.531 267.839 199.645C264.835 199.075 267.918 204.733 261.588 208.582C260.109 209.353 258.477 209.785 256.81 209.848C255.144 209.911 253.484 209.604 251.951 208.948C250.417 208.292 249.049 207.303 247.944 206.054C246.839 204.805 246.025 203.326 245.561 201.724C244.507 197.302 247.905 206.2 254.711 207.769C256.017 208.044 257.369 207.998 258.653 207.635C259.937 207.272 261.114 206.603 262.082 205.686C263.051 204.768 263.782 203.63 264.214 202.367C264.645 201.105 264.765 199.757 264.561 198.439C263.909 194.618 263.655 190.742 263.801 186.87C263.857 183.387 260.824 186.974 255.055 182.248C254.309 181.639 252.972 180.929 253.57 179.92C253.927 179.313 254.896 180.088 256.419 180.864C275.006 190.347 282.949 166.127 280.974 165.999C267.974 165.158 272.952 154.988 269.498 154.722C268.698 154.662 268.529 155.064 268.511 155.763C268.374 157.346 267.852 158.872 266.991 160.209C266.131 161.545 264.958 162.651 263.573 163.432C262.188 164.212 260.634 164.643 259.046 164.688C257.457 164.732 255.881 164.388 254.455 163.686C252.483 162.765 250.888 161.192 249.942 159.232C248.995 157.271 248.754 155.044 249.26 152.927C249.769 150.81 250.994 148.934 252.727 147.617C254.461 146.299 256.596 145.621 258.772 145.698C260.736 145.611 262.677 146.152 264.313 147.243C265.949 148.334 267.194 149.918 267.869 151.765C268.421 153.08 269.307 152.92 270.266 153.147C272.289 153.628 272.549 145.979 281.212 147.039C282.628 147.212 282.583 146.644 282.347 145.691C281.601 142.63 275.12 145.466 274.659 143.754C274.244 142.197 279.255 141.552 279.985 142.203C282.008 144.001 278.385 135.968 265.803 131.887C263.967 131.291 266.127 132.336 258.523 140.078C258.475 140.123 256.168 142.289 256.123 142.325C241.278 154.385 247.289 156.527 240.518 154.275C239.089 153.799 237.08 152.603 236.208 153.857C234.509 156.298 239.579 157.951 243.624 165.093C248.954 174.554 248.813 189.284 246.523 193.52C241.172 203.407 236.478 196.872 237.464 201.021C249.098 249.878 247.253 308.271 243.307 320.3C243.271 320.411 243.197 320.505 243.098 320.566C242.998 320.627 242.881 320.65 242.766 320.632C242.651 320.615 242.546 320.558 242.469 320.471C242.393 320.384 242.349 320.272 242.348 320.156C242.309 318.116 242.691 314.188 243.022 302.381C244.7 240.966 239.651 226.836 235.381 200.719C234.404 194.735 122.799 218.124 142.108 304.673C145.747 320.985 152.805 335.149 166.553 345.585C197.427 369.018 224.053 366.27 249.667 360.405C253.392 359.551 248.646 353.944 255.033 342.841C255.556 341.942 255.102 341.56 254.646 341.07C219.462 303.275 179.735 298.696 170.677 296.538C170.563 296.51 170.463 296.441 170.396 296.345C170.326 296.25 170.293 296.133 170.304 296.015C170.315 295.897 170.368 295.788 170.454 295.707C170.539 295.625 170.649 295.577 170.766 295.57C176.077 295.219 184.528 297.271 188.843 298.435C190.276 298.821 190.724 298.469 191.162 297.168C196.813 280.422 199.33 253.822 200.998 247.242C201.025 247.135 202.869 243.872 201.492 256.723C196.791 300.617 191.404 299.089 196.135 300.543C217.741 307.181 245.7 322.498 256.534 339.987C257.689 341.85 258.469 341.918 260.354 341.201C278.023 334.511 291.163 350.628 291.073 358.436C291.074 358.546 291.038 358.652 290.971 358.738C290.904 358.825 290.81 358.886 290.704 358.913C290.599 358.941 290.487 358.933 290.387 358.89C290.287 358.847 290.203 358.772 290.149 358.677C289.077 356.744 288.093 354.929 286.969 353.196C280.63 343.419 270.565 340.769 259.388 344.073C258.592 344.248 257.855 344.628 257.249 345.173C256.644 345.719 256.19 346.412 255.932 347.185C254.779 350.212 254.033 353.38 253.714 356.605C253.204 361.009 253.334 359.598 263.624 357.888C264.233 357.785 265.167 357.65 265.392 358.284C265.653 359.014 264.718 359.223 264.194 359.508C257.502 363.209 253.986 361.832 252.662 362.322C210.775 377.843 158.49 359.052 143.899 322.008C121.008 263.916 155.353 221.357 203.501 204.021ZM258.693 147.437C247.907 147.682 248.271 163.345 258.833 163.208C269.588 163.068 269.446 147.192 258.693 147.437ZM272.289 156.639C272.271 157.652 272.457 158.658 272.835 159.598C273.213 160.539 273.775 161.393 274.489 162.112C275.203 162.831 276.054 163.399 276.992 163.784C277.929 164.168 278.934 164.361 279.947 164.35C280.96 164.339 281.961 164.126 282.89 163.722C283.819 163.318 284.658 162.731 285.356 161.998C286.055 161.264 286.6 160.398 286.958 159.45C287.316 158.502 287.48 157.492 287.441 156.48C287.381 146.017 272.289 146.334 272.289 156.637V156.639ZM259.956 105.77C259.242 103.568 256.181 104.844 256.97 105.851C259.024 108.469 260.473 107.361 259.956 105.77ZM247.055 118.653C247.298 118.864 248.258 120.226 249.95 118.41C259.388 108.215 258.759 109.029 258.219 108.399C257.161 107.163 251.105 115.55 248.491 117.613C247.992 118.008 247.338 117.449 247.75 116.966C248.95 115.55 258.554 106.703 255.95 106.319C255.293 106.222 255.004 106.849 254.651 107.217C245.945 116.453 244.565 116.489 247.055 118.653Z" fill="#343A40"/>
<path d="M408.296 301.86C337.263 300.639 337.553 299.511 334.785 305.61C332.054 311.63 321.12 339.156 318.198 346.601C311.944 362.544 312.823 363.23 309.612 363.025C292.504 361.98 269.754 363.025 258.516 363.337C256.743 363.387 256.779 364.614 256.687 365.717C256.583 366.919 256.727 368.144 258.377 368.189C413.242 373.549 411.633 370.767 414.637 363.875C421.732 347.63 429.469 328.574 436.255 312.19C440.956 300.855 438.864 302.385 408.296 301.86ZM378.314 347.812C372.901 347.924 369.375 343.126 369.876 341.873C370.46 340.414 375.085 342.068 376.168 338.7C376.494 337.503 376.42 336.233 375.957 335.083C375.495 333.933 374.669 332.965 373.606 332.327C370.173 329.778 381.141 325.994 386.027 331.715C387.266 333.149 388.061 334.913 388.312 336.791C388.564 338.67 388.261 340.581 387.443 342.29C386.624 343.999 385.324 345.432 383.702 346.413C382.081 347.394 380.208 347.88 378.314 347.812ZM375.784 317.068C383.804 317.068 386.258 329.203 380.503 327.205C378.788 326.689 377.245 325.718 376.039 324.394C374.832 323.071 374.006 321.446 373.649 319.691C373.209 317.707 373.764 317.068 375.784 317.068Z" fill="#2271B1"/>
<path d="M365.261 169.865C381.778 169.122 455.684 167.799 455.709 171.379C455.926 201.903 456.55 201.915 454.835 202.003C438.163 202.821 364.01 204.333 364.052 200.534C364.38 171.146 363.182 169.965 365.261 169.865ZM454.357 173.439C454.384 170.274 380.806 172.015 366.691 172.182C364.605 172.206 365.396 172.037 365.722 199.174C365.746 201.173 439.315 200.274 453.6 199.668C455.378 199.592 454.155 197.129 454.357 173.439Z" fill="#191919"/>
<path d="M198.938 81.0942C203.671 82.4339 225.111 81.6286 231.349 81.4653C229.649 83.6919 227.901 85.9037 226.248 88.2027C225.832 88.7798 226.608 89.4793 227.113 89.1565C229.518 87.1796 231.662 84.8174 233.477 82.1425C235.426 79.4446 235.964 79.5671 229.93 76.1158C228.581 75.444 227.282 74.6491 226.045 73.7388C225.53 73.3287 223.933 73.9503 226.142 75.9655C227.537 77.1308 229.016 78.1593 230.563 79.0401C221.992 79.272 206.749 78.9288 198.938 79.5615C198.121 79.6301 198.228 80.8938 198.938 81.0942Z" fill="#343A40"/>
<path d="M381.158 81.0942C385.891 82.4339 407.331 81.6286 413.57 81.4653C411.87 83.6919 410.122 85.9037 408.468 88.2027C408.053 88.7798 408.829 89.4793 409.334 89.1565C411.739 87.1796 413.882 84.8174 415.698 82.1425C417.647 79.4446 418.185 79.5671 412.151 76.1158C410.802 75.444 409.502 74.6491 408.265 73.7388C407.75 73.3287 406.154 73.9503 408.363 75.9655C409.758 77.1308 411.237 78.1593 412.784 79.0401C404.213 79.272 388.969 78.9288 381.158 79.5615C380.341 79.6301 380.448 80.8938 381.158 81.0942Z" fill="#343A40"/>
<path d="M105.183 77.72C115.788 77.72 126.324 77.0143 136.997 77.14C131.472 83.7136 133.198 85.2352 134.856 83.1761C136.36 81.0661 137.998 79.0985 139.754 77.2908C140.457 76.6431 141.817 75.0345 140.621 74.1451C137.928 71.9992 135.109 70.0897 132.186 68.4318C132.056 68.3968 131.92 68.4111 131.796 68.4729C131.673 68.5346 131.569 68.6408 131.498 68.7766C131.427 68.9124 131.394 69.0712 131.401 69.2311C131.409 69.391 131.458 69.5441 131.541 69.6692C133.385 71.52 135.35 73.1913 137.416 74.6671C126.664 74.4416 115.91 74.958 105.208 76.2139C104.479 76.3086 104.46 77.72 105.183 77.72Z" fill="#343A40"/>
<path d="M287.404 77.72C298.009 77.72 308.545 77.0143 319.217 77.14C313.693 83.7136 315.419 85.2352 317.077 83.1761C318.581 81.0661 320.218 79.0985 321.975 77.2908C322.677 76.6431 324.038 75.0345 322.842 74.1451C320.149 71.9992 317.329 70.0897 314.407 68.4318C314.276 68.3968 314.14 68.4111 314.017 68.4729C313.894 68.5346 313.79 68.6408 313.719 68.7766C313.648 68.9124 313.614 69.0712 313.622 69.2311C313.63 69.391 313.679 69.5441 313.762 69.6692C315.606 71.52 317.57 73.1913 319.636 74.6671C308.884 74.4416 298.131 74.958 287.428 76.2139C286.7 76.3086 286.681 77.72 287.404 77.72Z" fill="#343A40"/>
<path d="M170.154 59.7804C170.217 59.8378 170.286 59.9011 170.36 59.9705C170.905 60.4839 171.633 61.2363 172.49 62.1693C174.199 64.0291 176.354 66.5296 178.472 69.0836C180.589 71.6369 182.655 74.2261 184.186 76.2607C184.953 77.2807 185.573 78.1441 185.996 78.7863C186.129 78.9883 186.236 79.1588 186.319 79.2985C186.243 79.4264 186.146 79.5808 186.027 79.7625C185.626 80.3736 185.036 81.1936 184.303 82.163C182.843 84.0963 180.871 86.552 178.849 88.9774C176.826 91.4029 174.766 93.7812 173.13 95.5613C172.31 96.4539 171.612 97.1792 171.086 97.6809C171.01 97.7541 170.938 97.8206 170.873 97.8809C170.816 97.8369 170.754 97.7886 170.689 97.7358C170.112 97.273 169.333 96.5747 168.406 95.6943C166.558 93.9404 164.209 91.5463 161.888 89.0745C159.567 86.6033 157.292 84.0733 155.59 82.0505C154.737 81.0365 154.043 80.1677 153.562 79.5061C153.384 79.2605 153.244 79.0561 153.14 78.8922C153.217 78.7636 153.318 78.6069 153.444 78.421C153.873 77.7864 154.516 76.9332 155.322 75.9229C156.929 73.9091 159.115 71.3565 161.36 68.8457C163.606 66.3349 165.893 63.8855 167.702 62.0761C168.61 61.1683 169.378 60.4412 169.95 59.9518C170.023 59.8892 170.091 59.8322 170.154 59.7804Z" stroke="#343A40" stroke-width="3"/>
<path d="M349.842 59.6832C349.968 59.7776 350.117 59.8947 350.289 60.0361C350.916 60.5525 351.75 61.3073 352.73 62.2407C354.685 64.102 357.149 66.6036 359.569 69.1579C361.99 71.7118 364.351 74.3016 366.101 76.3369C366.979 77.3573 367.688 78.221 368.171 78.8633C368.296 79.0299 368.401 79.1748 368.487 79.2985C368.41 79.4097 368.316 79.5385 368.206 79.6855C367.747 80.2967 367.073 81.1171 366.235 82.0869C364.566 84.0209 362.312 86.4772 360 88.9033C357.688 91.3292 355.333 93.7085 353.462 95.4899C352.524 96.3829 351.724 97.1103 351.12 97.6147C350.948 97.7582 350.799 97.8776 350.673 97.9744C350.549 97.8957 350.402 97.7975 350.232 97.678C349.568 97.211 348.673 96.5094 347.613 95.6283C345.498 93.8722 342.812 91.4764 340.159 89.0039C337.505 86.5318 334.904 84.0007 332.957 81.9765C331.982 80.9618 331.188 80.0921 330.638 79.4296C330.463 79.2197 330.321 79.04 330.21 78.8902C330.289 78.7783 330.386 78.6478 330.502 78.498C330.993 77.8629 331.728 77.009 332.65 75.9981C334.488 73.9832 336.986 71.4295 339.554 68.9179C342.12 66.4066 344.737 63.9557 346.806 62.1444C347.844 61.2359 348.725 60.506 349.383 60.0128C349.56 59.8801 349.713 59.7708 349.842 59.6832ZM329.948 78.4993C329.942 78.4877 329.944 78.4891 329.949 78.5023C329.949 78.5012 329.948 78.5002 329.948 78.4993ZM350.288 98.2427C350.278 98.248 350.28 98.2462 350.293 98.2401C350.291 98.2412 350.289 98.2421 350.288 98.2427Z" stroke="#343A40" stroke-width="3"/>
<path d="M90.5976 64.431C90.5981 64.432 90.5987 64.4336 90.5996 64.4357C90.5941 64.4242 90.5936 64.4218 90.5976 64.431ZM90.2142 64.8079C90.413 64.8249 90.5811 64.8432 90.7204 64.8618C90.7566 65.0156 90.796 65.2022 90.8379 65.423C90.9821 66.1832 91.1341 67.2332 91.287 68.4949C91.5921 71.0115 91.8902 74.2775 92.1364 77.5477C92.3824 80.8164 92.5752 84.0702 92.6712 86.5592C92.7193 87.8062 92.7425 88.8456 92.7371 89.5933C92.7362 89.7156 92.7346 89.8276 92.7322 89.9294C92.6538 89.9488 92.5682 89.9692 92.4754 89.9905C91.748 90.1576 90.71 90.3522 89.4447 90.5616C86.922 90.979 83.5859 91.4405 80.2267 91.8461C76.867 92.2517 73.5058 92.5987 70.9322 92.7892C69.6414 92.8848 68.5733 92.9391 67.8108 92.9442C67.6864 92.9451 67.5739 92.9446 67.4729 92.9429C67.444 92.8214 67.413 92.6836 67.3802 92.5288C67.2142 91.7464 67.0245 90.6488 66.8224 89.3235C66.4192 86.6796 65.979 83.2116 65.5907 79.7272C65.2024 76.243 64.868 72.761 64.675 70.09C64.5782 68.7513 64.5184 67.6354 64.5036 66.8313C64.5005 66.6638 64.4995 66.5147 64.5002 66.3834C64.6013 66.3596 64.7153 66.3345 64.843 66.3084C65.5988 66.1537 66.6714 65.9937 67.9805 65.8373C70.5892 65.5255 74.0199 65.2413 77.4729 65.0357C80.9261 64.83 84.3734 64.7046 87.0155 64.7068C88.3413 64.7079 89.4344 64.7412 90.2142 64.8079Z" stroke="#343A40" stroke-width="3"/>
<path d="M261.126 92.9399L261.122 92.9398C256.081 92.8453 252.496 90.9987 250.172 88.3901C247.826 85.7572 246.673 82.2435 246.722 78.6914C246.82 71.5871 251.655 64.7068 260.797 64.7068C269.695 64.7068 274.683 71.7722 274.948 79.0522C275.08 82.6741 274.018 86.2003 271.781 88.771C269.573 91.3081 266.107 93.0476 261.126 92.9399Z" stroke="#343A40" stroke-width="3"/>
<path d="M443.411 98.5581L443.409 98.5581C436.484 98.4282 431.449 95.8784 428.157 92.1826C424.853 88.4742 423.256 83.5584 423.324 78.6329C423.46 68.7818 430.219 59.087 443.004 59.087C455.497 59.087 462.419 69.051 462.784 79.0798C462.967 84.0849 461.503 89.0288 458.332 92.6724C455.177 96.2987 450.27 98.7064 443.411 98.5581Z" fill="#2271B1" stroke="white" stroke-width="1.55261"/>
<path d="M433.781 81.5951L438.276 87.213L452.321 71.4829" stroke="white" stroke-width="2"/>
</svg>
