<?xml version="1.0" encoding="UTF-8" standalone="no"?>
<!DOCTYPE svg PUBLIC "-//W3C//DTD SVG 1.1//EN" "http://www.w3.org/Graphics/SVG/1.1/DTD/svg11.dtd">
<svg width="100%" height="100%" viewBox="0 0 532 400" version="1.1" xmlns="http://www.w3.org/2000/svg" xmlns:xlink="http://www.w3.org/1999/xlink" xml:space="preserve" xmlns:serif="http://www.serif.com/" style="fill-rule:evenodd;clip-rule:evenodd;">
    <rect x="0" y="0" width="532" height="400" style="fill:white;"/>
    <g transform="matrix(1.43794,0,0,1.43794,337.849,107.487)">
        <path d="M33.834,0.793L26.213,23.453C26.053,23.927 25.609,24.247 25.11,24.247L12.194,24.247C11.665,24.247 11.203,23.891 11.068,23.378L10.902,22.747C10.707,22.008 11.264,21.286 12.028,21.286L15.221,21.286C15.721,21.286 16.163,20.967 16.323,20.493L17.723,16.336C17.978,15.581 17.416,14.801 16.621,14.801L9.706,14.801C9.177,14.801 8.715,14.445 8.58,13.933L8.457,13.464C8.263,12.725 8.82,12.004 9.583,12.004L21.073,12.004C21.572,12.004 22.016,11.684 22.175,11.212L23.579,7.054C23.833,6.299 23.273,5.518 22.476,5.518L1.165,5.518C0.402,5.518 -0.156,6.24 0.039,6.978L6.067,29.864C6.202,30.375 6.664,30.732 7.193,30.732L29.77,30.732C30.271,30.732 30.715,30.413 30.873,29.939L38.494,7.279C38.654,6.805 39.098,6.486 39.597,6.486L41.479,6.486C41.978,6.486 42.422,6.166 42.582,5.692L43.982,1.535C44.236,0.78 43.674,0 42.879,0L34.935,0C34.435,0 33.991,0.319 33.833,0.793L33.834,0.793Z" style="fill:rgb(52,58,64);fill-rule:nonzero;"/>
    </g>
    <g transform="matrix(1.43794,0,0,1.43794,337.849,107.487)">
        <path d="M25.076,39.837C27.317,39.837 29.133,38.021 29.133,35.781C29.133,33.54 27.317,31.724 25.076,31.724C22.836,31.724 21.019,33.54 21.019,35.781C21.019,38.021 22.836,39.837 25.076,39.837Z" style="fill:rgb(52,58,64);fill-rule:nonzero;"/>
    </g>
    <g transform="matrix(1.43794,0,0,1.43794,337.849,107.487)">
        <path d="M11.977,40C14.217,40 16.034,38.184 16.034,35.943C16.034,33.703 14.217,31.886 11.977,31.886C9.736,31.886 7.92,33.703 7.92,35.943C7.92,38.184 9.736,40 11.977,40Z" style="fill:rgb(52,58,64);fill-rule:nonzero;"/>
    </g>
    <path d="M356.882,210.438C359.587,210.521 359.821,212.019 360.293,215.031C360.414,215.804 360.551,216.677 360.749,217.651C360.881,218.29 360.675,218.6 360.047,218.688C358.36,218.926 356.723,219.37 355.084,219.815C353.309,220.296 351.531,220.778 349.684,221C347.261,221.292 344.997,221.515 342.918,221.719C339.446,222.061 336.487,222.352 334.162,222.83L302.639,263.772M356.882,210.438L356.828,212.221M356.882,210.438L356.828,212.221M356.882,210.438C329.518,209.602 327.838,213.731 322.507,226.827C319.191,234.974 314.462,246.59 301.262,262.64M356.828,212.221C345.728,211.882 339.149,212.38 334.88,213.826C332.794,214.533 331.292,215.458 330.089,216.611C328.872,217.777 327.889,219.246 326.926,221.143C326.036,222.897 325.191,224.974 324.209,227.388C320.901,235.524 316.038,247.481 302.639,263.772M356.828,212.221C357.493,212.241 357.714,212.366 357.77,212.405C357.803,212.428 357.909,212.504 358.045,212.887C358.193,213.31 358.307,213.898 358.453,214.808C358.477,214.963 358.503,215.125 358.529,215.294C358.613,215.826 358.707,216.427 358.824,217.081C357.372,217.346 355.97,217.727 354.649,218.085C354.57,218.106 354.492,218.128 354.413,218.149C352.695,218.615 351.101,219.034 349.471,219.23C347.345,219.486 345.341,219.689 343.464,219.874C343.222,219.898 342.982,219.921 342.745,219.945C341.143,220.102 339.632,220.251 338.243,220.412C335.111,220.776 332.336,221.228 330.319,222.138L330.78,224.282L330.22,225.34C331.566,226.052 333.492,226.407 335.502,226.587C337.576,226.773 339.98,226.791 342.439,226.696C347.352,226.507 352.644,225.861 356.236,225.111C357.172,224.915 358.034,224.605 358.74,224.334C358.938,224.258 359.116,224.189 359.279,224.125C359.482,224.046 359.662,223.976 359.825,223.915C359.845,269.134 336.018,312.033 289.12,325.453C289.164,325.372 289.209,325.289 289.255,325.204C289.339,325.052 289.426,324.892 289.517,324.724C291.458,321.158 294.753,314.929 297.884,304.951C302.484,290.287 301.36,278.377 300.59,270.213C300.532,269.594 300.476,268.997 300.424,268.422C300.314,267.19 300.33,266.465 300.394,266.03C300.424,265.824 300.461,265.714 300.483,265.662C300.501,265.619 300.513,265.604 300.52,265.596C300.576,265.531 300.627,265.495 300.961,265.262C301.006,265.231 301.056,265.196 301.112,265.157C301.531,264.865 302.078,264.455 302.639,263.772M301.262,262.64L302.639,263.772M301.262,262.64C300.79,263.214 300.336,263.527 299.94,263.799C298.95,264.481 298.319,264.916 298.648,268.581L301.262,262.64ZM359.799,223.029C359.798,223.03 359.8,223.04 359.806,223.059C359.802,223.037 359.799,223.028 359.799,223.029ZM360.651,223.663C360.668,223.663 360.677,223.662 360.677,223.662C360.678,223.661 360.669,223.661 360.651,223.663ZM359.819,216.919C359.819,216.919 359.815,216.92 359.808,216.921C359.816,216.92 359.819,216.919 359.819,216.919ZM359.006,218.03C359.007,218.042 359.008,218.049 359.009,218.049C359.009,218.049 359.008,218.043 359.006,218.03Z" style="fill:none;fill-rule:nonzero;stroke:rgb(52,58,64);stroke-width:3.57px;"/>
    <path d="M188.185,167.312C190.101,170.58 190.397,171.894 185.301,197.282C188.615,194.284 191.66,180.588 192.236,177.38C196.043,182.708 199.089,188.031 208.049,193.067C210.728,194.573 207.201,195.334 207.966,208.044C208.009,208.768 207.951,209.883 208.838,209.95C210.228,210.054 210.451,204.645 212.162,195.162C237.444,204.005 254.22,186.909 251.771,168.464C251.172,163.961 249.827,163.709 251.575,162.778C258.677,158.988 262.11,156.816 258.902,151.96C256.337,148.079 256.647,148.012 257.27,147.659C266.787,142.278 259.406,130.646 251.653,131.789C250.275,131.992 250.59,131.634 249.352,126.625C249.195,125.987 249.082,125.123 248.196,125.294C247.144,125.496 247.322,126.477 247.458,127.207C249.148,136.247 249.47,136.224 250.061,138.603C248.792,138.979 247.541,139.683 246.327,139.619C244.844,139.541 245.027,137.751 244.356,136.789C238.335,128.126 226.758,132.776 226.878,142.442C227.008,153.054 238.983,157.075 244.108,149.393C247.723,143.973 244.605,142.148 247.667,141.444C249.934,140.922 250.676,140.152 251.12,141.577C254.528,152.528 259.179,154.325 255.597,156.556C252.293,158.613 247.262,163.332 240,162.665C229.608,161.713 216.007,176.037 210.75,144.294C209.735,138.168 210.261,128.953 214.89,124.648C216.366,128.099 214.163,131.805 215.369,132.401C216.438,132.93 218.951,131.293 221.188,126.438C221.692,125.345 222.005,124.172 222.451,122.897C227.839,128.678 232.563,128.941 233.081,127.752C233.487,126.821 229.613,124.382 229.296,121.387C229.012,118.707 229.603,118.125 232.325,117.961C239.611,117.523 245.386,121.054 252.954,124.95C254.977,125.99 254.055,125.706 254.238,123.645C254.301,122.93 254.774,122.14 256.783,121.209C260.74,119.373 279.886,108.836 277.647,104.468C276.922,103.048 275.61,102.184 273.881,102.064C232.323,99.182 234.945,81.194 213.719,75.642C201.877,72.545 197.667,83.155 186.367,91.019C176.368,97.978 173.199,102.604 171.084,112.749C167.48,130.034 178.608,136.572 170.31,151.415C168.076,155.408 166.292,159.637 164.282,163.746C161.94,168.534 162.734,172.788 166.486,176.578C169.925,180.052 184.815,169.817 188.185,167.312ZM166.987,172.28C164.665,168.437 167.032,165.97 172.367,154.481C176.362,145.873 178.132,142.584 174.988,130.819C172.084,119.952 173.371,105.323 181.398,98.754C202.103,81.809 193.973,88.153 201.65,81.293C213.933,70.32 228.089,89.176 240.162,96.389C219.442,98.126 196.15,118.361 194.923,124.81C219.511,101.66 240.334,96.657 244.516,98.715C250.58,101.699 257.055,103.258 263.793,103.875C262.953,106.006 240.577,104.129 226.912,109.862C211.129,116.485 199.705,127.503 193.884,138.201C193.424,139.049 193.088,139.374 192.066,139.326C187.511,139.109 183.403,143.067 185.16,150.825C185.411,151.939 186.7,152.997 185.944,154.096C184.792,155.773 173.007,162.297 166.989,172.282L166.987,172.28ZM245.692,109.074C248.412,108.668 245.868,108.975 265.988,106.759C275.019,105.764 285.08,100.464 254.151,120.193C252.449,121.28 254.14,117.458 245.692,109.074ZM168.538,175.079C172.273,166.727 180.327,162.806 186.784,155.87C187.188,155.436 187.429,155.401 187.784,155.944C189.213,158.121 191.868,159.304 191.504,160.17C190.871,161.672 190.563,163.284 188.983,164.321C185.928,166.325 172.983,174.631 168.537,175.079L168.538,175.079ZM188.323,148.04C188.169,138.536 197.174,142.4 198.759,145.813C200.735,150.07 197.174,159.011 194.589,157.415C190.754,155.048 188.72,151.624 188.325,148.04L188.323,148.04ZM229.05,142.859C228.734,135.799 236.785,131.316 241.599,136.658C248.509,144.326 239.904,155.995 232.255,149.823C230.001,148.005 229.173,145.605 229.05,142.859ZM259.515,141.577C259.409,143.069 258.927,144.636 257.27,145.661C254.849,147.158 254.651,143.927 251.495,134.755C250.609,132.18 259.609,134.261 259.515,141.577ZM233.094,176.017C228.899,176.044 224.815,171.887 225.143,169.291C225.482,166.614 227.329,172.511 235.244,173.026C236.971,173.139 237.281,175.993 233.094,176.017Z" style="fill:rgb(52,58,64);fill-rule:nonzero;"/>
    <path d="M182.459,204.012C180.275,202.877 179.557,200.871 179.513,198.947C179.471,197.125 180.011,195.16 180.523,193.543C180.703,192.972 180.876,192.453 181.034,191.982C181.264,191.293 181.461,190.704 181.6,190.195C179.1,190.665 176.409,191.532 173.688,193.344C170.535,195.445 167.228,198.891 164.146,204.702C164.158,204.762 164.188,204.863 164.255,205.017C164.453,205.475 164.861,206.104 165.516,206.891C166.812,208.45 168.79,210.294 170.989,212.154C174.346,214.992 178.001,217.69 180.202,219.316C180.888,219.822 181.433,220.224 181.784,220.494C187.432,224.84 190.279,226.68 191.827,227.369C192.194,227.533 192.442,227.61 192.601,227.645C192.678,227.662 192.73,227.668 192.76,227.67C192.776,227.671 192.786,227.671 192.793,227.67L192.8,227.67M182.459,204.012L183.282,202.43M182.459,204.012L183.282,202.43M182.459,204.012C194.636,210.344 202.29,214.807 206.344,217.825C207.35,218.573 208.098,219.207 208.626,219.733C208.85,219.958 209.02,220.148 209.146,220.305C208.292,220.558 207.787,220.628 207.335,220.682C207.285,220.688 207.234,220.694 207.182,220.7C206.642,220.762 206.014,220.835 205.115,221.129C203.305,221.722 200.332,223.23 193.182,227.457M183.282,202.43C207.627,215.089 214.369,220.516 210,221.907L182.75,190.003M183.282,202.43C179.998,200.723 181.511,196.189 182.676,192.698C183.543,190.1 184.217,188.078 182.58,188.228L182.578,188.226M193.182,227.457L194.089,228.992L193.183,227.456C193.182,227.456 193.182,227.456 193.182,227.457ZM193.182,227.457C193.142,227.48 193.108,227.5 193.078,227.518C192.941,227.599 192.889,227.629 192.829,227.658C192.817,227.663 192.809,227.667 192.804,227.669L192.8,227.67M192.8,227.67L192.802,227.67L192.8,227.67L192.798,227.671L192.799,227.671L192.8,227.67ZM182.578,188.226L182.579,188.23L182.583,188.257L182.834,189.991C182.806,189.995 182.779,189.999 182.751,190.003M182.578,188.226L181.34,189.509L181.342,189.511L181.689,189.846L162.5,204C168.93,191.789 176.576,189.096 182.578,188.226ZM182.751,190.003L182.753,190.003L182.75,190.003M182.751,190.003L182.75,190.003M182.751,190.003L182.748,190.003L182.75,190.003M209.72,220.101C209.72,220.101 209.719,220.101 209.717,220.102C209.719,220.101 209.72,220.101 209.72,220.101ZM164.137,204.647C164.137,204.64 164.137,204.637 164.136,204.637C164.136,204.637 164.136,204.64 164.137,204.647Z" style="fill:none;fill-rule:nonzero;stroke:rgb(52,58,64);stroke-width:3.57px;"/>
    <path d="M268.939,227.554C268.839,235.758 281.96,238.562 279.003,251.657C277.488,258.369 285.596,249.66 278.503,238.239C275.258,233.016 268.152,229.032 273.862,221.505C278.956,214.789 269.041,219.27 268.937,227.556L268.939,227.554Z" style="fill:rgb(52,58,64);fill-rule:nonzero;"/>
    <path d="M311.903,221.147C312.305,216.047 302.629,213.447 302.252,215.024C302.085,215.72 306.347,217.879 307.768,219.175C311.798,222.849 306.282,226.787 301.099,228.644C300.347,228.914 298.902,228.857 299.205,230.046C299.527,231.31 300.843,230.698 301.683,230.522C306.742,229.46 311.772,226.335 311.903,221.147Z" style="fill:rgb(52,58,64);fill-rule:nonzero;"/>
    <path d="M295.744,255.73C300.56,248.554 309.327,250.776 312.024,244.253C313.177,241.465 311.6,240.855 310.835,242.059C308.783,245.299 305.344,246.412 301.976,247.724C291.667,251.745 293.911,258.459 295.742,255.729L295.744,255.73Z" style="fill:rgb(52,58,64);fill-rule:nonzero;"/>
    <path d="M300.667,235.775C300.174,235.947 299.411,235.918 299.565,236.728C299.694,237.403 300.35,237.534 300.907,237.463C316.75,235.474 314.805,225.531 311.776,226.06C309.276,226.497 315.88,230.495 300.667,235.774L300.667,235.775Z" style="fill:rgb(52,58,64);fill-rule:nonzero;"/>
    <path d="M234.56,142.116C234.517,145.956 238.784,145.746 238.737,142.109C238.69,138.381 234.6,138.586 234.56,142.116Z" style="fill:rgb(52,58,64);fill-rule:nonzero;"/>
    <path d="M313.846,236.095C313.846,235.083 313.864,233.67 312.809,233.566C311.112,233.397 313.697,236.192 307.209,239.354C302.201,241.795 300.39,241.546 300.689,242.812C301.269,245.271 314.203,240.934 313.85,236.097L313.846,236.095Z" style="fill:rgb(52,58,64);fill-rule:nonzero;"/>
    <path d="M163.336,204.246L163.337,204.246C163.363,204.238 163.389,204.232 163.414,204.225C163.425,204.271 163.436,204.32 163.448,204.372L163.448,204.373L165.187,203.977C165.498,205.358 165.993,207.534 168.602,210.22L163.336,204.246ZM163.336,204.246C136.052,211.574 118.679,226.697 107.558,248.004L107.237,248.63C91.113,280.046 97.519,312.992 117.986,336.859C138.47,360.745 173.081,375.55 213.317,370.318C222.537,369.119 228.844,367.349 233.509,365.445C238.167,363.545 241.249,361.489 244.071,359.604M163.336,204.246L244.071,359.604M293.342,260.607C290.517,260.464 287.955,260.133 285.57,259.824L285.564,259.824L294.433,261.959C294.422,261.182 294.203,260.651 293.342,260.607ZM293.342,260.607L293.272,261.975L293.272,261.976L293.251,262.386M293.342,260.607L293.273,261.975L293.273,261.976L293.252,262.387M293.251,262.386L293.263,262.388C293.263,262.388 293.259,262.388 293.252,262.387M293.251,262.386C293.251,262.387 293.252,262.387 293.252,262.387M293.251,262.386L293.252,262.388L293.252,262.387M293.251,262.386L293.251,262.387C293.052,262.377 292.854,262.366 292.657,262.355C292.654,262.234 292.652,262.111 292.65,261.986L292.65,261.984C292.649,261.927 292.647,261.884 292.644,261.853C292.641,261.825 292.638,261.813 292.638,261.813L292.639,261.813C292.639,261.815 292.655,261.885 292.715,261.983L292.715,261.985C292.724,261.998 292.733,262.012 292.743,262.026C292.836,262.161 292.966,262.269 293.102,262.335C293.174,262.369 293.228,262.382 293.251,262.386ZM193.697,309.962C194.291,310.304 194.968,310.491 195.636,310.446C192.68,314.224 190.328,317.673 188.547,320.65C186.992,323.248 185.856,325.513 185.135,327.341C184.774,328.254 184.505,329.088 184.344,329.82C184.19,330.515 184.097,331.271 184.219,331.959L184.854,335.526L187.293,332.847C188.621,331.39 190.395,329.106 192.554,326.326L192.629,326.229L191.221,325.135L207.236,222.847C208.45,222.607 209.202,222.509 209.679,222.513C209.695,222.513 209.71,222.514 209.725,222.514M193.697,309.962C193.697,309.962 193.698,309.962 193.698,309.963L194.587,308.417L193.697,309.962ZM193.697,309.962C193.269,309.715 192.917,309.37 192.64,309.059C192.349,308.733 192.056,308.345 191.761,307.926C191.178,307.097 190.492,306 189.694,304.727L189.681,304.707M189.681,304.707C187.011,300.449 182.745,293.648 175.42,285.325L176.759,284.147M189.681,304.707L189.681,304.706L191.192,303.759M189.681,304.707L191.192,303.759M176.759,284.147L175.42,285.325C165.525,274.08 156.923,266.805 151.513,262.231L151.436,262.166C149.379,260.427 147.702,259.009 146.635,257.922C146.109,257.387 145.6,256.803 145.29,256.205C144.982,255.611 144.62,254.44 145.49,253.41L145.491,253.409C146.098,252.692 146.928,252.535 147.514,252.538C148.095,252.54 148.68,252.691 149.205,252.877C150.269,253.253 151.549,253.943 152.947,254.828C155.375,256.364 158.408,258.648 161.74,261.441M176.759,284.147C166.775,272.8 158.09,265.456 152.664,260.869C148.415,257.277 146.165,255.374 146.852,254.561M176.759,284.147C184.179,292.579 188.506,299.477 191.191,303.757L191.192,303.759M161.74,261.441L171.822,243.739L171.862,243.668L171.909,243.6C172.31,243.027 172.821,242.539 173.41,242.162C174,241.786 174.657,241.528 175.345,241.4C176.032,241.273 176.739,241.279 177.424,241.417C178.11,241.556 178.763,241.824 179.345,242.21L178.362,243.698M161.74,261.441C162.196,261.823 162.658,262.214 163.124,262.615L173.371,244.622M161.74,261.441L160.843,263.016C153.599,256.916 147.891,253.333 146.852,254.561M178.362,243.698L179.346,242.211L212.111,263.888M178.362,243.698L211.127,265.375M178.362,243.698C177.972,243.439 177.533,243.258 177.071,243.165C176.609,243.072 176.133,243.068 175.67,243.154C175.206,243.239 174.765,243.413 174.37,243.665C173.976,243.917 173.636,244.242 173.371,244.622M212.111,263.888C212.694,264.274 213.197,264.77 213.588,265.35L212.2,266.286L213.588,265.35C213.98,265.93 214.251,266.582 214.386,267.269C214.52,267.956 214.514,268.663 214.368,269.347L212.624,268.975M212.111,263.888L211.127,265.375M212.111,263.888L211.127,265.375M212.624,268.975L214.368,269.347C214.222,270.032 213.939,270.679 213.538,271.253L213.508,271.295L213.477,271.335L193.501,296.644M212.624,268.975C212.528,269.424 212.342,269.851 212.077,270.23M212.624,268.975C212.72,268.526 212.724,268.062 212.636,267.611C212.548,267.16 212.369,266.731 212.11,266.347C211.851,265.964 211.517,265.633 211.127,265.375M193.501,296.644C195.565,299.996 197.233,303.289 198.3,306.391L198.38,306.621L198.394,306.864C198.397,306.919 198.4,306.975 198.401,307.031C199.905,305.234 201.536,303.377 203.297,301.475C216.86,286.824 238.161,269.42 268.7,255.468C269.422,255.138 269.778,254.687 269.949,254.12C270.143,253.48 270.145,252.525 269.769,251.204C269.014,248.549 266.91,245.041 263.556,241.172C256.887,233.477 245.745,224.889 232.571,219.483L232.57,219.482C232.093,219.287 231.915,219.263 231.795,219.269C231.701,219.274 231.442,219.308 230.897,219.689C229.706,220.523 227.84,222.502 224.439,226.846M193.501,296.644C193.251,296.239 192.996,295.834 192.736,295.427M193.501,296.644L192.761,297.582L192.322,298.137C194.181,301.216 195.659,304.196 196.614,306.971L192.736,295.427M224.439,226.846C223.794,227.67 223.148,228.367 222.511,228.757C222.222,228.934 221.612,229.253 220.855,229.121C219.893,228.954 219.417,228.222 219.244,227.695C219.092,227.23 219.103,226.769 219.132,226.451C219.164,226.099 219.238,225.731 219.334,225.367C219.528,224.637 219.846,223.791 220.26,222.898C221.716,219.756 224.686,215.343 228.832,212.808M224.439,226.846L224.439,226.845L223.035,225.746M224.439,226.846L223.035,225.746M228.832,212.808C228.375,212.525 227.822,212.191 227.155,211.788M228.832,212.808C229.29,212.528 229.762,212.271 230.248,212.041L230.249,212.041C230.421,211.96 230.505,211.914 230.541,211.891M228.832,212.808C229.082,212.963 229.304,213.103 229.5,213.23C229.776,213.409 229.978,213.548 230.125,213.659C230.28,213.775 230.326,213.825 230.321,213.819C230.315,213.813 230.276,213.77 230.23,213.692C230.183,213.613 230.114,213.476 230.074,213.286C229.979,212.833 230.112,212.421 230.299,212.149L230.3,212.149C230.305,212.141 230.311,212.133 230.316,212.126C230.414,211.991 230.508,211.916 230.541,211.891M227.155,211.788C223.199,209.41 219.303,206.94 215.469,204.379M227.155,211.788C227.156,211.788 227.157,211.788 227.158,211.789L228.076,210.26M227.155,211.788C227.155,211.787 227.154,211.787 227.153,211.786L228.076,210.26M215.469,204.379C215.251,207.16 215.281,214.357 215.698,222.45C216.124,230.713 216.944,239.697 218.254,245.639M215.469,204.379C215.474,204.316 215.479,204.256 215.484,204.198L215.485,204.197C215.49,204.138 215.496,204.083 215.502,204.032L216.322,202.804L215.503,204.029C215.517,203.92 215.533,203.832 215.549,203.763C215.573,203.66 215.593,203.616 215.594,203.612C215.596,203.609 215.571,203.662 215.501,203.734C215.465,203.77 215.42,203.809 215.365,203.847C215.309,203.884 215.249,203.916 215.184,203.942C215.052,203.994 214.938,204.005 214.866,204.004C214.824,204.003 214.799,203.999 214.792,203.997C214.793,203.998 214.796,203.998 214.801,204C214.827,204.008 214.887,204.029 214.982,204.078C215.03,204.102 215.083,204.132 215.143,204.167C215.143,204.167 215.143,204.168 215.144,204.168C215.201,204.202 215.263,204.241 215.331,204.287C215.377,204.317 215.423,204.348 215.469,204.379ZM218.254,245.639C218.65,247.434 220.064,254.85 221.111,261.871C221.634,265.379 222.073,268.837 222.244,271.465C222.328,272.766 222.353,273.944 222.268,274.846C222.227,275.284 222.151,275.775 221.983,276.214C221.852,276.556 221.43,277.478 220.341,277.694C219.934,277.774 219.473,277.767 219.009,277.597C218.552,277.429 218.209,277.147 217.961,276.858C217.509,276.332 217.271,275.662 217.117,275.117C216.807,274.016 216.581,272.393 216.311,270.461L216.291,270.314C215.721,266.22 214.859,260.051 212.61,251.792M218.254,245.639L216.513,246.024L218.254,245.64L218.254,245.639ZM212.61,251.792C208.857,238.02 209.365,229.799 209.65,225.276C209.724,224.111 209.77,223.335 209.744,222.767C209.739,222.665 209.732,222.581 209.725,222.514M212.61,251.792L214.33,251.323M212.61,251.792L212.609,251.792L214.33,251.323M209.725,222.514C209.705,222.333 209.681,222.267 209.682,222.267C209.683,222.267 209.703,222.316 209.761,222.382C209.857,222.49 209.947,222.528 209.974,222.537M209.725,222.514C209.877,222.518 209.951,222.532 209.974,222.537M209.974,222.537C209.979,222.539 209.982,222.54 209.982,222.54C209.982,222.54 209.979,222.539 209.974,222.537ZM214.33,251.323C216.61,259.695 217.484,265.954 218.057,270.068L211.43,225.388L211.429,225.394C211.152,229.804 210.648,237.811 214.33,251.323ZM228.076,210.26C232.164,212.733 232.512,212.944 231.011,213.653M228.076,210.26C224.096,207.869 220.177,205.383 216.322,202.804C214.843,201.816 213.89,201.991 213.708,204.04L231.011,213.653M231.011,213.653C225.998,216.024 222.447,221.808 221.298,225.056C221.158,225.221 221.036,225.355 220.931,225.461C220.841,225.553 220.77,225.618 220.717,225.662C220.669,225.702 220.646,225.717 220.646,225.717L220.647,225.717C220.651,225.714 220.715,225.675 220.831,225.64C220.897,225.62 220.997,225.596 221.124,225.588C220.588,227.399 220.983,228.119 222.531,226.357C222.58,226.444 222.614,226.524 222.634,226.587C222.671,226.7 222.679,226.782 222.681,226.814M231.011,213.653L233.248,217.833M230.541,211.891C230.55,211.886 230.554,211.883 230.554,211.883C230.555,211.883 230.551,211.886 230.541,211.891ZM223.035,225.746C229.785,217.124 231.12,216.958 233.248,217.833M223.035,225.746C222.983,225.813 222.932,225.877 222.882,225.938C222.843,226.06 222.81,226.174 222.782,226.28C222.719,226.519 222.692,226.681 222.683,226.774C222.682,226.792 222.681,226.805 222.681,226.814M233.248,217.833C260.113,228.857 278.735,252.845 269.441,257.09L233.248,217.833ZM222.681,226.814L222.681,226.829C222.681,226.829 222.68,226.824 222.681,226.814ZM192.736,295.427L192.778,295.395L192.501,295.033M192.736,295.427L192.501,295.033M146.852,254.561L191.192,303.759M146.852,254.561L173.371,244.622M173.371,244.622L212.077,270.23M212.077,270.23L192.501,295.033M212.077,270.23L192.501,295.033M244.071,359.604L244.163,359.543C245.062,358.942 245.956,358.345 246.859,357.788M244.071,359.604L279.061,265.818M246.859,357.788L246.858,357.789L247.795,359.306L246.859,357.788ZM246.859,357.788C248.313,356.89 249.475,356.185 250.434,355.604C252.504,354.347 253.624,353.668 254.686,352.867M254.686,352.867C256.103,351.798 257.353,350.556 260.513,347.418C261.311,346.626 262.23,345.714 263.304,344.652C273.581,334.499 281.619,324.407 286.849,312.956C292.015,301.647 294.484,288.919 293.56,273.357M254.686,352.867L255.76,354.291L254.687,352.867L254.686,352.867ZM293.56,273.357C292.026,273.521 289.958,273.469 287.777,273.306C285.107,273.107 282.071,272.725 279.22,272.249C276.379,271.774 273.667,271.196 271.664,270.595C270.678,270.298 269.772,269.97 269.093,269.605C268.764,269.428 268.373,269.182 268.055,268.843C267.746,268.514 267.263,267.817 267.455,266.877L267.728,265.538L269.092,265.454C272.567,265.24 275.668,265.516 278.998,265.812L279.061,265.818M293.56,273.357C293.861,273.325 294.141,273.285 294.397,273.235L294.398,273.235C294.417,273.231 294.43,273.23 294.436,273.229M293.56,273.357C293.55,273.191 293.54,273.025 293.529,272.859L293.529,272.855C293.517,272.669 293.509,272.584 293.499,272.534C293.499,272.532 293.498,272.53 293.498,272.528M279.061,265.818L278.903,267.594L279.062,265.818L279.061,265.818ZM294.436,273.229C294.429,273.229 294.416,273.23 294.397,273.229L294.396,273.229C294.354,273.226 294.287,273.218 294.201,273.192C294.092,273.159 293.971,273.101 293.856,273.013C293.787,272.961 293.729,272.904 293.682,272.849C293.681,272.848 293.68,272.847 293.679,272.846C293.65,272.811 293.624,272.776 293.602,272.743C293.532,272.638 293.505,272.554 293.498,272.528M294.436,273.229C294.44,273.228 294.442,273.228 294.442,273.228C294.442,273.228 294.44,273.229 294.436,273.229ZM293.498,272.528C293.497,272.523 293.496,272.52 293.496,272.52C293.496,272.52 293.497,272.522 293.498,272.528ZM269.097,261.395L269.961,262.955L269.097,261.395ZM292.918,266.322C293.122,266.314 293.328,266.306 293.535,266.297L293.537,266.297C293.658,266.292 293.723,266.285 293.752,266.28C293.755,266.28 293.757,266.279 293.759,266.279C293.748,266.281 293.71,266.291 293.655,266.313C293.622,266.327 293.583,266.345 293.54,266.369C293.54,266.37 293.539,266.37 293.539,266.37C293.461,266.414 293.372,266.477 293.283,266.566C293.142,266.707 293.057,266.859 293.011,266.979C292.976,267.072 292.967,267.135 292.965,267.146C292.966,267.135 292.969,267.088 292.967,266.986C292.962,266.822 292.945,266.614 292.918,266.322ZM270.975,267.166C270.937,266.725 270.702,266.452 270.657,266.404C270.632,266.377 270.617,266.365 270.617,266.364C270.617,266.364 270.662,266.399 270.782,266.464C271.139,266.656 271.766,266.901 272.672,267.174C272.111,267.16 271.546,267.157 270.975,267.166Z" style="fill:none;fill-rule:nonzero;stroke:rgb(52,58,64);stroke-width:3.57px;"/>
    <path d="M159,259.5C167.667,266.333 195.5,300.5 195.5,300.5" style="fill:none;fill-rule:nonzero;stroke:rgb(52,58,64);stroke-width:3.57px;"/>
    <path d="M341.101,181.126C340.524,180.955 339.98,180.726 339.5,180.428C337.209,182.65 333.899,187.805 334.564,192.459L334.611,193.194C334.843,196.942 335.104,201.162 337.149,204.192C337.394,204.553 337.729,204.998 338.298,204.7C338.671,204.506 338.637,204.329 338.458,203.405C338.2,202.069 337.642,199.166 337.575,192.369C337.528,187.583 339.442,184.133 340.646,181.96C340.8,181.684 340.952,181.406 341.101,181.126ZM378.505,182.075C377.577,182.056 376.563,182.017 375.459,181.976C374.999,182.677 374.442,183.313 373.802,183.865C370.115,187.045 368.183,188.02 367.291,188.47C366.677,188.78 366.561,188.84 366.706,189.2C366.929,189.75 367.394,189.785 367.75,189.785C370.773,189.798 373.231,187.967 375.412,186.345L375.78,186.071L375.78,186.073C377.176,185.251 378.032,183.733 378.507,182.075L378.505,182.075ZM386.608,180.193C386.136,180.807 385.516,181.234 384.722,181.525C384.567,181.939 384.396,182.424 384.188,183.026C383.8,184.144 383.27,185.671 382.408,187.907C379.77,194.743 372.207,196.363 366.528,197.58C365.495,197.802 364.521,198.011 363.653,198.235C351.29,201.425 351.283,209.096 354.092,206.828C354.482,206.514 354.836,206.186 355.195,205.851C357.016,204.157 359.047,202.268 367.244,200.831C379.21,198.732 386.479,193.551 386.887,181.731C386.911,181.205 386.815,180.68 386.606,180.193L386.608,180.193ZM367.84,181.269C367.56,181.127 367.297,180.955 367.057,180.754C366.218,181.481 365.136,181.724 363.599,181.802C363.593,181.806 363.588,181.811 363.582,181.816C359.895,184.995 357.963,185.971 357.071,186.42C356.456,186.731 356.34,186.791 356.485,187.151C356.708,187.701 357.172,187.736 357.529,187.736C360.553,187.748 363.011,185.918 365.192,184.295L365.56,184.022C366.597,183.414 367.335,182.419 367.84,181.271L367.84,181.269ZM357.294,181.851L356.676,181.851C355.352,181.858 354.277,181.862 353.398,181.858C350.407,184.398 348.774,185.13 348.014,185.47C347.478,185.71 347.374,185.756 347.538,186.103C347.786,186.632 348.21,186.696 348.538,186.727C351.279,186.987 353.362,185.488 355.213,184.156L355.564,183.904C356.364,183.47 356.924,182.735 357.294,181.849L357.294,181.851Z" style="fill:rgb(52,58,64);"/>
    <path d="M172.008,259.987C172.621,261.397 184.773,269.495 190.906,273.877C198.791,279.514 198.75,279.346 199.31,278.664C200.015,277.805 199.879,277.962 179.429,263.06C176.919,261.231 171.388,256.88 172.008,259.987Z" style="fill:rgb(52,58,64);fill-rule:nonzero;"/>
    <path d="M204.13,273.398C205.145,272.833 204.904,272.329 202.477,270.72C176.428,253.46 176.808,253.162 175.967,254.139C175.126,255.116 174.923,254.882 188.707,263.984C202.7,273.223 202.491,273.135 204.13,273.398Z" style="fill:rgb(52,58,64);fill-rule:nonzero;"/>
    <path d="M294.761,176.137C295.575,168.1 300.332,155.678 308.074,156.838C313.677,169.4 309.432,188.988 301.088,196.344C299.986,197.316 293.327,190.283 294.761,176.137Z" style="fill:rgb(34,113,177);fill-rule:nonzero;"/>
    <path d="M289.022,180.576C288.986,182.678 289.37,189.613 291.424,189.011C293.681,188.35 288.212,181.929 294.399,165.665C295.552,162.635 297.6,162.113 296.75,161.18C295.062,159.33 289.265,166.529 289.022,180.574L289.022,180.576Z" style="fill:rgb(52,58,64);fill-rule:nonzero;"/>
    <path d="M291.413,192.293C291.76,193.194 291.845,194.337 293.144,194.559C295.838,195.02 292.024,188.688 291.413,192.293Z" style="fill:rgb(52,58,64);fill-rule:nonzero;"/>
    <path d="M311.546,151.467C303.069,149.056 298.371,145.739 291.625,152.696C282.828,161.769 279.746,178.932 283.544,190.847C287.342,202.762 293.119,199.91 292.47,202.222C290.568,209.008 289.156,215.902 287.786,222.803C286.921,227.153 295.265,228.772 296.212,225.129C301.771,203.739 300.249,203.578 302.819,203.853C323.372,206.054 330.719,156.918 311.544,151.465L311.546,151.467ZM284.909,179.763C284.672,155.391 303.252,140.741 308.975,159.254C313.427,173.659 308.047,190.2 301.09,196.344C292.492,203.934 285.058,194.984 284.911,179.763L284.909,179.763ZM300.562,200.065C312.949,190.337 317.054,167.744 309.057,153.581C324.523,156.149 322.536,185.563 311.587,198.503C309.314,201.189 305.286,201.912 300.56,200.065L300.562,200.065Z" style="fill:rgb(52,58,64);fill-rule:nonzero;"/>
    <path d="M118.204,52.356C118.974,52.435 119.532,53.106 119.451,53.855C119.346,54.825 119.542,55.84 119.68,56.555C119.703,56.675 119.725,56.787 119.743,56.889C119.877,57.631 119.366,58.337 118.604,58.467C117.841,58.597 117.115,58.1 116.982,57.358C116.971,57.298 116.955,57.22 116.937,57.127C116.803,56.457 116.509,54.985 116.663,53.569C116.744,52.82 117.434,52.277 118.204,52.356Z" style="fill:rgb(52,58,64);"/>
    <path d="M420.36,166.635C421.13,166.714 421.688,167.385 421.607,168.134C421.502,169.103 421.698,170.119 421.837,170.834C421.86,170.954 421.881,171.066 421.9,171.168C422.033,171.909 421.523,172.616 420.76,172.746C419.998,172.875 419.271,172.379 419.138,171.637C419.127,171.577 419.112,171.499 419.093,171.405C418.959,170.736 418.666,169.264 418.819,167.848C418.9,167.099 419.59,166.556 420.36,166.635Z" style="fill:rgb(52,58,64);"/>
    <path d="M487.523,186.522C488.293,186.601 488.852,187.272 488.77,188.021C488.665,188.99 488.862,190.006 489,190.721C489.023,190.841 489.045,190.953 489.063,191.054C489.196,191.796 488.686,192.503 487.923,192.632C487.161,192.762 486.435,192.266 486.301,191.524C486.291,191.464 486.275,191.386 486.256,191.292C486.123,190.623 485.829,189.151 485.983,187.735C486.064,186.986 486.754,186.443 487.523,186.522Z" style="fill:rgb(52,58,64);"/>
    <path d="M115.112,116.303C115.882,116.382 116.441,117.053 116.359,117.802C116.254,118.771 116.451,119.787 116.589,120.502C116.612,120.622 116.634,120.734 116.652,120.835C116.785,121.577 116.275,122.284 115.512,122.413C114.75,122.543 114.024,122.047 113.89,121.305C113.88,121.245 113.864,121.167 113.845,121.073C113.712,120.404 113.418,118.932 113.572,117.516C113.653,116.767 114.343,116.224 115.112,116.303Z" style="fill:rgb(52,58,64);"/>
    <path d="M382.711,58.193C383.481,58.272 384.039,58.944 383.958,59.693C383.853,60.662 384.049,61.677 384.188,62.392C384.211,62.513 384.232,62.624 384.251,62.726C384.384,63.468 383.874,64.174 383.111,64.304C382.349,64.434 381.622,63.937 381.489,63.196C381.478,63.136 381.463,63.057 381.444,62.964C381.311,62.294 381.017,60.823 381.17,59.407C381.251,58.658 381.941,58.114 382.711,58.193Z" style="fill:rgb(52,58,64);"/>
    <path d="M294.864,24.384C295.634,24.462 296.192,25.134 296.111,25.883C296.006,26.852 296.202,27.867 296.34,28.582C296.363,28.703 296.385,28.814 296.403,28.916C296.537,29.658 296.026,30.365 295.264,30.494C294.501,30.624 293.775,30.128 293.642,29.386C293.631,29.326 293.615,29.248 293.597,29.154C293.463,28.484 293.169,27.013 293.323,25.597C293.404,24.848 294.094,24.305 294.864,24.384Z" style="fill:rgb(52,58,64);"/>
    <path d="M450.898,140.112C450.476,140.112 450.127,139.978 449.851,139.71C449.575,139.441 449.438,139.102 449.438,138.692L449.438,128.275L438.73,128.275C438.309,128.275 437.96,128.141 437.684,127.872C437.408,127.604 437.27,127.265 437.27,126.854C437.27,126.444 437.408,126.105 437.684,125.836C437.96,125.568 438.309,125.434 438.73,125.434L449.438,125.434L449.438,115.017C449.438,114.607 449.575,114.267 449.851,113.999C450.127,113.731 450.476,113.597 450.898,113.597C451.319,113.597 451.668,113.731 451.944,113.999C452.22,114.267 452.358,114.607 452.358,115.017L452.358,125.434L463.065,125.434C463.487,125.434 463.836,125.568 464.111,125.836C464.387,126.105 464.525,126.444 464.525,126.854C464.525,127.265 464.387,127.604 464.111,127.872C463.836,128.141 463.487,128.275 463.065,128.275L452.358,128.275L452.358,138.692C452.358,139.102 452.22,139.441 451.944,139.71C451.668,139.978 451.319,140.112 450.898,140.112Z" style="fill:rgb(28,61,148);fill-rule:nonzero;"/>
    <path d="M262.212,60.866C259.75,62.063 257.545,63.948 256.798,66.746C256.554,67.663 256.773,68.429 256.861,69.325C254.984,67.499 253.058,68.342 251.748,70.5C251.313,71.216 250.982,71.97 250.755,72.771C250.67,73.068 250.587,73.366 250.547,73.672C250.532,73.787 250.606,74.125 250.559,74.019C249.501,71.618 248.307,69.079 245.848,67.759C244.837,67.216 243.903,67.163 242.808,67.485C242.681,67.522 241.99,67.689 242.005,67.784C242.642,65.925 241.727,64.147 240.019,63.181C239.416,62.841 238.78,62.578 238.134,62.326C237.868,62.223 237.16,62.106 237.355,62.02C237.013,62.112 238.109,61.872 238.227,61.831C238.938,61.583 239.74,61.297 240.367,60.885C241.548,60.108 243.398,57.964 241.515,55.754C241.515,55.754 241.845,55.914 241.909,55.936C242.226,56.043 242.538,56.127 242.868,56.184C243.853,56.354 244.902,56.244 245.761,55.72C247.814,54.467 248.211,50.927 248.485,48.794C248.375,48.927 248.659,49.365 248.711,49.461C249.084,50.168 249.481,50.864 249.925,51.531C251.133,53.348 254.375,56.386 256.702,54.122C256.548,54.081 256.396,54.977 256.379,55.086C256.24,55.972 256.336,56.843 256.862,57.599C258.089,59.363 260.088,60.866 262.212,60.866Z" style="fill:rgb(34,113,177);"/>
    <path d="M100.488,193.708C98.027,194.906 95.821,196.791 95.075,199.589C94.831,200.505 95.05,201.272 95.138,202.168C93.261,200.341 91.335,201.185 90.025,203.342C89.59,204.058 89.259,204.813 89.031,205.614C88.947,205.911 88.864,206.208 88.823,206.515C88.809,206.63 88.882,206.968 88.836,206.862C87.777,204.46 86.584,201.921 84.125,200.601C83.114,200.059 82.18,200.006 81.085,200.327C80.958,200.364 80.267,200.532 80.282,200.626C80.919,198.768 80.004,196.989 78.296,196.024C77.693,195.683 77.057,195.42 76.41,195.169C76.145,195.066 75.437,194.949 75.632,194.862C75.29,194.954 76.385,194.715 76.504,194.674C77.215,194.425 78.017,194.14 78.644,193.727C79.825,192.951 81.675,190.807 79.792,188.596C79.792,188.596 80.122,188.757 80.186,188.778C80.503,188.886 80.815,188.969 81.145,189.026C82.13,189.196 83.179,189.087 84.037,188.563C86.091,187.309 86.488,183.769 86.762,181.637C86.652,181.769 86.936,182.208 86.987,182.304C87.361,183.01 87.758,183.706 88.202,184.373C89.41,186.191 92.652,189.229 94.979,186.965C94.825,186.924 94.673,187.819 94.656,187.929C94.517,188.815 94.613,189.685 95.139,190.442C96.366,192.206 98.365,193.708 100.488,193.708Z" style="fill:rgb(34,113,177);"/>
    <path d="M81.014,100.465C80.592,100.465 80.243,100.331 79.967,100.062C79.692,99.794 79.554,99.455 79.554,99.044L79.554,88.628L68.846,88.628C68.425,88.628 68.076,88.494 67.8,88.225C67.524,87.957 67.386,87.618 67.386,87.207C67.386,86.797 67.524,86.458 67.8,86.189C68.076,85.921 68.425,85.787 68.846,85.787L79.554,85.787L79.554,75.37C79.554,74.96 79.692,74.62 79.967,74.352C80.243,74.084 80.592,73.95 81.014,73.95C81.435,73.95 81.784,74.084 82.06,74.352C82.336,74.62 82.474,74.96 82.474,75.37L82.474,85.787L93.181,85.787C93.603,85.787 93.952,85.921 94.227,86.189C94.503,86.458 94.641,86.797 94.641,87.207C94.641,87.618 94.503,87.957 94.227,88.225C93.952,88.494 93.603,88.628 93.181,88.628L82.474,88.628L82.474,99.044C82.474,99.455 82.336,99.794 82.06,100.062C81.784,100.331 81.435,100.465 81.014,100.465Z" style="fill:rgb(28,61,148);fill-rule:nonzero;"/>
    <path d="M467.67,225.832C465.208,227.029 463.003,228.915 462.257,231.713C462.012,232.629 462.231,233.395 462.319,234.291C460.442,232.465 458.516,233.308 457.206,235.466C456.771,236.182 456.441,236.937 456.213,237.738C456.128,238.035 456.045,238.332 456.005,238.639C455.99,238.753 456.064,239.092 456.017,238.985C454.959,236.584 453.765,234.045 451.306,232.725C450.296,232.182 449.362,232.13 448.267,232.451C448.14,232.488 447.448,232.656 447.463,232.75C448.101,230.891 447.185,229.113 445.478,228.148C444.875,227.807 444.238,227.544 443.592,227.293C443.326,227.189 442.619,227.072 442.813,226.986C442.471,227.078 443.567,226.839 443.685,226.797C444.396,226.549 445.198,226.264 445.825,225.851C447.006,225.075 448.856,222.931 446.973,220.72C446.973,220.72 447.303,220.88 447.367,220.902C447.684,221.01 447.996,221.093 448.327,221.15C449.311,221.32 450.361,221.21 451.219,220.686C453.272,219.433 453.669,215.893 453.943,213.76C453.834,213.893 454.118,214.331 454.169,214.428C454.542,215.134 454.94,215.83 455.383,216.497C456.591,218.314 459.833,221.353 462.16,219.089C462.006,219.048 461.855,219.943 461.838,220.052C461.698,220.938 461.795,221.809 462.321,222.566C463.547,224.33 465.547,225.832 467.67,225.832Z" style="fill:rgb(34,113,177);"/>
</svg>
