<svg width="532" height="400" viewBox="0 0 532 400" fill="none" xmlns="http://www.w3.org/2000/svg">
<rect width="532" height="400" fill="white"/>
<path d="M356.882 210.438C359.587 210.521 359.821 212.019 360.293 215.031C360.414 215.804 360.551 216.677 360.749 217.651C360.881 218.29 360.675 218.6 360.047 218.688C358.36 218.926 356.723 219.37 355.084 219.815C353.309 220.296 351.531 220.778 349.684 221C347.261 221.292 344.997 221.515 342.918 221.719C339.446 222.061 336.487 222.352 334.162 222.83L302.639 263.772M356.882 210.438L356.828 212.221M356.882 210.438L356.828 212.221M356.882 210.438C329.518 209.602 327.838 213.731 322.507 226.827C319.191 234.974 314.462 246.59 301.262 262.64M356.828 212.221C345.728 211.882 339.149 212.38 334.88 213.826C332.794 214.533 331.292 215.458 330.089 216.611C328.872 217.777 327.889 219.246 326.926 221.143C326.036 222.897 325.191 224.974 324.209 227.388C320.901 235.524 316.038 247.481 302.639 263.772M356.828 212.221C357.493 212.241 357.714 212.366 357.77 212.405C357.803 212.428 357.909 212.504 358.045 212.887C358.193 213.31 358.307 213.898 358.453 214.808C358.477 214.963 358.503 215.125 358.529 215.294C358.613 215.826 358.707 216.427 358.824 217.081C357.372 217.346 355.97 217.727 354.649 218.085C354.57 218.106 354.492 218.128 354.413 218.149C352.695 218.615 351.101 219.034 349.471 219.23L349.471 219.23C347.345 219.486 345.341 219.689 343.464 219.874C343.222 219.898 342.982 219.921 342.745 219.945C341.143 220.102 339.632 220.251 338.243 220.412C335.111 220.776 332.336 221.228 330.319 222.138L330.78 224.282L330.22 225.34C331.566 226.052 333.492 226.407 335.502 226.587C337.576 226.773 339.98 226.791 342.439 226.696C347.352 226.507 352.644 225.861 356.236 225.111L356.236 225.111C357.172 224.915 358.034 224.605 358.74 224.334C358.938 224.258 359.116 224.189 359.279 224.125C359.482 224.046 359.662 223.976 359.825 223.915C359.845 269.134 336.018 312.033 289.12 325.453C289.164 325.372 289.209 325.289 289.255 325.204C289.339 325.052 289.426 324.892 289.517 324.724C291.458 321.158 294.753 314.929 297.884 304.951L297.884 304.951C302.484 290.287 301.36 278.377 300.59 270.213C300.532 269.594 300.476 268.997 300.424 268.422C300.314 267.19 300.33 266.465 300.394 266.03C300.424 265.824 300.461 265.714 300.483 265.662C300.501 265.619 300.513 265.604 300.52 265.596C300.576 265.531 300.627 265.495 300.961 265.262C301.006 265.231 301.056 265.196 301.112 265.157C301.531 264.865 302.078 264.455 302.639 263.772M301.262 262.64L302.639 263.772M301.262 262.64C300.79 263.214 300.336 263.527 299.94 263.799C298.95 264.481 298.319 264.916 298.648 268.581L301.262 262.64ZM359.799 223.029C359.798 223.03 359.8 223.04 359.806 223.059C359.802 223.037 359.799 223.028 359.799 223.029ZM360.651 223.663C360.668 223.663 360.677 223.662 360.677 223.662C360.678 223.661 360.669 223.661 360.651 223.663ZM359.819 216.919C359.819 216.919 359.815 216.92 359.808 216.921C359.816 216.92 359.819 216.919 359.819 216.919ZM359.006 218.03C359.007 218.042 359.008 218.049 359.009 218.049C359.009 218.049 359.008 218.043 359.006 218.03Z" stroke="#343A40" stroke-width="3.56646"/>
<path d="M188.185 167.312C190.101 170.58 190.397 171.894 185.301 197.282C188.615 194.284 191.66 180.588 192.236 177.38C196.043 182.708 199.089 188.031 208.049 193.067C210.728 194.573 207.201 195.334 207.966 208.044C208.009 208.768 207.951 209.883 208.838 209.95C210.228 210.054 210.451 204.645 212.162 195.162C237.444 204.005 254.22 186.909 251.771 168.464C251.172 163.961 249.827 163.709 251.575 162.778C258.677 158.988 262.11 156.816 258.902 151.96C256.337 148.079 256.647 148.012 257.27 147.659C266.787 142.278 259.406 130.646 251.653 131.789C250.275 131.992 250.59 131.634 249.352 126.625C249.195 125.987 249.082 125.123 248.196 125.294C247.144 125.496 247.322 126.477 247.458 127.207C249.148 136.247 249.47 136.224 250.061 138.603C248.792 138.979 247.541 139.683 246.327 139.619C244.844 139.541 245.027 137.751 244.356 136.789C238.335 128.126 226.758 132.776 226.878 142.442C227.008 153.054 238.983 157.075 244.108 149.393C247.723 143.973 244.605 142.148 247.667 141.444C249.934 140.922 250.676 140.152 251.12 141.577C254.528 152.528 259.179 154.325 255.597 156.556C252.293 158.613 247.262 163.332 240 162.665C229.608 161.713 216.007 176.037 210.75 144.294C209.735 138.168 210.261 128.953 214.89 124.648C216.366 128.099 214.163 131.805 215.369 132.401C216.438 132.93 218.951 131.293 221.188 126.438C221.692 125.345 222.005 124.172 222.451 122.897C227.839 128.678 232.563 128.941 233.081 127.752C233.487 126.821 229.613 124.382 229.296 121.387C229.012 118.707 229.603 118.125 232.325 117.961C239.611 117.523 245.386 121.054 252.954 124.95C254.977 125.99 254.055 125.706 254.238 123.645C254.301 122.93 254.774 122.14 256.783 121.209C260.74 119.373 279.886 108.836 277.647 104.468C276.922 103.048 275.61 102.184 273.881 102.064C232.323 99.1823 234.945 81.1939 213.719 75.6422C201.877 72.5454 197.667 83.155 186.367 91.0187C176.368 97.9778 173.199 102.604 171.084 112.749C167.48 130.034 178.608 136.572 170.31 151.415C168.076 155.408 166.292 159.637 164.282 163.746C161.94 168.534 162.734 172.788 166.486 176.578C169.925 180.052 184.815 169.817 188.185 167.312ZM166.987 172.28C164.665 168.437 167.032 165.97 172.367 154.481C176.362 145.873 178.132 142.584 174.988 130.819C172.084 119.952 173.371 105.323 181.398 98.7537C202.103 81.8094 193.973 88.153 201.65 81.2927C213.933 70.3198 228.089 89.1758 240.162 96.3888C219.442 98.1259 196.15 118.361 194.923 124.81C219.511 101.66 240.334 96.6569 244.516 98.7149C250.58 101.699 257.055 103.258 263.793 103.875C262.953 106.006 240.577 104.129 226.912 109.862C211.129 116.485 199.705 127.503 193.884 138.201C193.424 139.049 193.088 139.374 192.066 139.326C187.511 139.109 183.403 143.067 185.16 150.825C185.411 151.939 186.7 152.997 185.944 154.096C184.792 155.773 173.007 162.297 166.989 172.282L166.987 172.28ZM245.692 109.074C248.412 108.668 245.868 108.975 265.988 106.759C275.019 105.764 285.08 100.464 254.151 120.193C252.449 121.28 254.14 117.458 245.692 109.074ZM168.538 175.079C172.273 166.727 180.327 162.806 186.784 155.87C187.188 155.436 187.429 155.401 187.784 155.944C189.213 158.121 191.868 159.304 191.504 160.17C190.871 161.672 190.563 163.284 188.983 164.321C185.928 166.325 172.983 174.631 168.537 175.079H168.538ZM188.323 148.04C188.169 138.536 197.174 142.4 198.759 145.813C200.735 150.07 197.174 159.011 194.589 157.415C190.754 155.048 188.72 151.624 188.325 148.04H188.323ZM229.05 142.859C228.734 135.799 236.785 131.316 241.599 136.658C248.509 144.326 239.904 155.995 232.255 149.823C230.001 148.005 229.173 145.605 229.05 142.859ZM259.515 141.577C259.409 143.069 258.927 144.636 257.27 145.661C254.849 147.158 254.651 143.927 251.495 134.755C250.609 132.18 259.609 134.261 259.515 141.577ZM233.094 176.017C228.899 176.044 224.815 171.887 225.143 169.291C225.482 166.614 227.329 172.511 235.244 173.026C236.971 173.139 237.281 175.993 233.094 176.017Z" fill="#343A40"/>
<path d="M182.459 204.012C180.275 202.877 179.557 200.871 179.513 198.947C179.471 197.125 180.011 195.16 180.523 193.543C180.703 192.972 180.876 192.453 181.034 191.982C181.264 191.293 181.461 190.704 181.6 190.195C179.1 190.665 176.409 191.532 173.688 193.344C170.535 195.445 167.228 198.891 164.146 204.702C164.158 204.762 164.188 204.863 164.255 205.017C164.453 205.475 164.861 206.104 165.516 206.891C166.812 208.45 168.79 210.294 170.989 212.154C174.346 214.992 178.001 217.69 180.202 219.316C180.888 219.822 181.433 220.224 181.784 220.494L181.784 220.494C187.432 224.84 190.279 226.68 191.827 227.369C192.194 227.533 192.442 227.61 192.601 227.645C192.678 227.662 192.73 227.668 192.76 227.67C192.776 227.671 192.786 227.671 192.793 227.67C192.796 227.67 192.798 227.67 192.8 227.67M182.459 204.012L183.282 202.43M182.459 204.012L183.282 202.43M182.459 204.012C194.636 210.344 202.29 214.807 206.344 217.825C207.35 218.573 208.098 219.207 208.626 219.733C208.85 219.958 209.02 220.148 209.146 220.305C208.292 220.558 207.787 220.628 207.335 220.682C207.285 220.688 207.234 220.694 207.182 220.7C206.642 220.762 206.014 220.835 205.115 221.129C203.305 221.722 200.332 223.23 193.182 227.457M183.282 202.43C207.627 215.089 214.369 220.516 210 221.907L182.75 190.003M183.282 202.43C179.998 200.723 181.511 196.189 182.676 192.698C183.543 190.1 184.217 188.078 182.58 188.228L182.578 188.226M193.182 227.457L194.089 228.992L193.183 227.456C193.182 227.456 193.182 227.456 193.182 227.457ZM193.182 227.457C193.142 227.48 193.108 227.5 193.078 227.518C192.941 227.599 192.889 227.629 192.829 227.658C192.817 227.663 192.809 227.667 192.804 227.669L192.8 227.67M192.8 227.67C192.801 227.67 192.802 227.67 192.802 227.67L192.802 227.67C192.802 227.67 192.801 227.67 192.8 227.67L192.798 227.671L192.799 227.671L192.8 227.67ZM182.578 188.226L182.579 188.23L182.583 188.257L182.834 189.991C182.806 189.995 182.779 189.999 182.751 190.003M182.578 188.226L181.34 189.509L181.342 189.511L181.689 189.846L162.5 204C168.93 191.789 176.576 189.096 182.578 188.226ZM182.751 190.003C182.752 190.003 182.753 190.003 182.753 190.003C182.753 190.003 182.752 190.003 182.75 190.003M182.751 190.003C182.751 190.003 182.75 190.003 182.75 190.003M182.751 190.003C182.75 190.003 182.749 190.003 182.748 190.003C182.749 190.003 182.749 190.003 182.75 190.003M209.72 220.101C209.72 220.101 209.719 220.101 209.717 220.102C209.719 220.101 209.72 220.101 209.72 220.101ZM164.137 204.647C164.137 204.64 164.137 204.637 164.136 204.637C164.136 204.637 164.136 204.64 164.137 204.647Z" stroke="#343A40" stroke-width="3.56646"/>
<path d="M268.939 227.554C268.839 235.758 281.96 238.562 279.003 251.657C277.488 258.369 285.596 249.66 278.503 238.239C275.258 233.016 268.152 229.032 273.862 221.505C278.956 214.789 269.041 219.27 268.937 227.556L268.939 227.554Z" fill="#343A40"/>
<path d="M311.903 221.147C312.305 216.047 302.629 213.447 302.252 215.024C302.085 215.72 306.347 217.879 307.768 219.175C311.798 222.849 306.282 226.787 301.099 228.644C300.347 228.914 298.902 228.857 299.205 230.046C299.527 231.31 300.843 230.698 301.683 230.522C306.742 229.46 311.772 226.335 311.903 221.147Z" fill="#343A40"/>
<path d="M295.744 255.73C300.56 248.554 309.327 250.776 312.024 244.253C313.177 241.465 311.6 240.855 310.835 242.059C308.783 245.299 305.344 246.412 301.976 247.724C291.667 251.745 293.911 258.459 295.742 255.729L295.744 255.73Z" fill="#343A40"/>
<path d="M300.667 235.775C300.174 235.947 299.411 235.918 299.565 236.728C299.694 237.403 300.35 237.534 300.907 237.463C316.75 235.474 314.805 225.531 311.776 226.06C309.276 226.497 315.88 230.495 300.667 235.774V235.775Z" fill="#343A40"/>
<path d="M234.56 142.116C234.517 145.956 238.784 145.746 238.737 142.109C238.69 138.381 234.6 138.586 234.56 142.116Z" fill="#343A40"/>
<path d="M313.846 236.095C313.846 235.083 313.864 233.67 312.809 233.566C311.112 233.397 313.697 236.192 307.209 239.354C302.201 241.795 300.39 241.546 300.689 242.812C301.269 245.271 314.203 240.934 313.85 236.097L313.846 236.095Z" fill="#343A40"/>
<path d="M163.336 204.246L163.337 204.246C163.363 204.238 163.389 204.232 163.414 204.225C163.425 204.271 163.436 204.32 163.448 204.372C163.448 204.372 163.448 204.373 163.448 204.373L165.187 203.977C165.498 205.358 165.993 207.534 168.602 210.22L163.336 204.246ZM163.336 204.246C136.052 211.574 118.679 226.697 107.558 248.004L107.237 248.63C91.1129 280.046 97.5186 312.992 117.986 336.859C138.47 360.745 173.081 375.55 213.317 370.318C222.537 369.119 228.844 367.349 233.509 365.445C238.167 363.545 241.249 361.489 244.071 359.604M163.336 204.246L244.071 359.604M293.342 260.607C290.517 260.464 287.955 260.133 285.57 259.824L285.564 259.824L294.433 261.959C294.422 261.182 294.203 260.651 293.342 260.607ZM293.342 260.607L293.272 261.975L293.272 261.976L293.251 262.386M293.342 260.607L293.273 261.975L293.273 261.976L293.252 262.387M293.251 262.386L293.263 262.388C293.263 262.388 293.259 262.388 293.252 262.387M293.251 262.386C293.251 262.387 293.252 262.387 293.252 262.387M293.251 262.386L293.252 262.388L293.252 262.387M293.251 262.386L293.251 262.387C293.052 262.377 292.854 262.366 292.657 262.355C292.654 262.234 292.652 262.111 292.65 261.986L292.65 261.984C292.649 261.927 292.647 261.884 292.644 261.853C292.641 261.825 292.638 261.813 292.638 261.813L292.639 261.813L292.639 261.813C292.639 261.815 292.655 261.885 292.715 261.983C292.715 261.984 292.715 261.984 292.715 261.985C292.724 261.998 292.733 262.012 292.743 262.026C292.836 262.161 292.966 262.269 293.102 262.335C293.174 262.369 293.228 262.382 293.251 262.386ZM193.697 309.962C194.291 310.304 194.968 310.491 195.636 310.446C192.68 314.224 190.328 317.673 188.547 320.65C186.992 323.248 185.856 325.513 185.135 327.341C184.774 328.254 184.505 329.088 184.344 329.82C184.19 330.515 184.097 331.271 184.219 331.959L184.854 335.526L187.293 332.847C188.621 331.39 190.395 329.106 192.554 326.326L192.629 326.229L191.221 325.135L207.236 222.847C208.45 222.607 209.202 222.509 209.679 222.513C209.695 222.513 209.71 222.514 209.725 222.514M193.697 309.962C193.697 309.962 193.698 309.962 193.698 309.963L194.587 308.417L193.697 309.962ZM193.697 309.962C193.269 309.715 192.917 309.37 192.64 309.059C192.349 308.733 192.056 308.345 191.761 307.926C191.178 307.097 190.492 306 189.694 304.727L189.681 304.707M189.681 304.707C187.011 300.449 182.745 293.648 175.42 285.325L176.759 284.147M189.681 304.707L189.681 304.706L191.192 303.759M189.681 304.707L191.192 303.759M176.759 284.147L175.42 285.325C165.525 274.08 156.923 266.805 151.513 262.231L151.436 262.166C149.379 260.427 147.702 259.009 146.635 257.922C146.109 257.387 145.6 256.803 145.29 256.205C144.982 255.611 144.62 254.44 145.49 253.41L145.491 253.409C146.098 252.692 146.928 252.535 147.514 252.538C148.095 252.54 148.68 252.691 149.205 252.877C150.269 253.253 151.549 253.943 152.947 254.828C155.375 256.364 158.408 258.648 161.74 261.441M176.759 284.147C166.775 272.8 158.09 265.456 152.664 260.869C148.415 257.277 146.165 255.374 146.852 254.561M176.759 284.147C184.179 292.579 188.506 299.477 191.191 303.757L191.192 303.759M161.74 261.441L171.822 243.739L171.862 243.668L171.909 243.6C172.31 243.027 172.821 242.539 173.41 242.162C174 241.786 174.657 241.528 175.345 241.4C176.032 241.273 176.739 241.279 177.424 241.417C178.11 241.556 178.763 241.824 179.345 242.21L178.362 243.698M161.74 261.441C162.196 261.823 162.658 262.214 163.124 262.615L173.371 244.622M161.74 261.441L160.843 263.016C153.599 256.916 147.891 253.333 146.852 254.561M178.362 243.698L179.346 242.211L212.111 263.888M178.362 243.698L211.127 265.375M178.362 243.698C177.972 243.439 177.533 243.258 177.071 243.165C176.609 243.072 176.133 243.068 175.67 243.154C175.206 243.239 174.765 243.413 174.37 243.665C173.976 243.917 173.636 244.242 173.371 244.622M212.111 263.888C212.694 264.274 213.197 264.77 213.588 265.35L212.2 266.286L213.588 265.35C213.98 265.93 214.251 266.582 214.386 267.269C214.52 267.956 214.514 268.663 214.368 269.347L212.624 268.975M212.111 263.888L211.127 265.375M212.111 263.888L212.111 263.888L211.127 265.375M212.624 268.975L214.368 269.347C214.222 270.032 213.939 270.679 213.538 271.253L213.508 271.295L213.477 271.335L193.501 296.644M212.624 268.975C212.528 269.424 212.342 269.851 212.077 270.23M212.624 268.975C212.72 268.526 212.724 268.062 212.636 267.611C212.548 267.16 212.369 266.731 212.11 266.347C211.851 265.964 211.517 265.633 211.127 265.375M193.501 296.644C195.565 299.996 197.233 303.289 198.3 306.391L198.38 306.621L198.394 306.864C198.397 306.919 198.4 306.975 198.401 307.031C199.905 305.234 201.536 303.377 203.297 301.475C216.86 286.824 238.161 269.42 268.7 255.468L268.7 255.468C269.422 255.138 269.778 254.687 269.949 254.12C270.143 253.48 270.145 252.525 269.769 251.204C269.014 248.549 266.91 245.041 263.556 241.172C256.887 233.477 245.745 224.889 232.571 219.483L232.57 219.482C232.093 219.287 231.915 219.263 231.795 219.269C231.701 219.274 231.442 219.308 230.897 219.689C229.706 220.523 227.84 222.502 224.439 226.846M193.501 296.644C193.251 296.239 192.996 295.834 192.736 295.427M193.501 296.644L192.761 297.582L192.322 298.137C194.181 301.216 195.659 304.196 196.614 306.971L192.736 295.427M224.439 226.846C223.794 227.67 223.148 228.367 222.511 228.757C222.222 228.934 221.612 229.253 220.855 229.121C219.893 228.954 219.417 228.222 219.244 227.695C219.092 227.23 219.103 226.769 219.132 226.451C219.164 226.099 219.238 225.731 219.334 225.367C219.528 224.637 219.846 223.791 220.26 222.898C221.716 219.756 224.686 215.343 228.832 212.808M224.439 226.846C224.439 226.845 224.439 226.845 224.439 226.845L223.035 225.746M224.439 226.846L223.035 225.746M228.832 212.808C228.375 212.525 227.822 212.191 227.155 211.788M228.832 212.808C229.29 212.528 229.762 212.271 230.248 212.041L230.249 212.041C230.421 211.96 230.505 211.914 230.541 211.891M228.832 212.808C229.082 212.963 229.304 213.103 229.5 213.23C229.776 213.409 229.978 213.548 230.125 213.659C230.28 213.775 230.326 213.825 230.321 213.819C230.315 213.813 230.276 213.77 230.23 213.692C230.183 213.613 230.114 213.476 230.074 213.286C229.979 212.833 230.112 212.421 230.299 212.149C230.3 212.149 230.3 212.149 230.3 212.149C230.305 212.141 230.311 212.133 230.316 212.126C230.414 211.991 230.508 211.916 230.541 211.891M227.155 211.788C223.199 209.41 219.303 206.94 215.469 204.379M227.155 211.788C227.156 211.788 227.157 211.788 227.158 211.789L228.076 210.26M227.155 211.788C227.155 211.787 227.154 211.787 227.153 211.786L228.076 210.26M215.469 204.379C215.251 207.16 215.281 214.357 215.698 222.45C216.124 230.713 216.944 239.697 218.254 245.639M215.469 204.379C215.474 204.316 215.479 204.256 215.484 204.198L215.485 204.197C215.49 204.138 215.496 204.083 215.502 204.032L216.322 202.804L215.503 204.029C215.517 203.92 215.533 203.832 215.549 203.763C215.573 203.66 215.593 203.616 215.594 203.612C215.596 203.609 215.571 203.662 215.501 203.734C215.465 203.77 215.42 203.809 215.365 203.847C215.309 203.884 215.249 203.916 215.184 203.942C215.052 203.994 214.938 204.005 214.866 204.004C214.824 204.003 214.799 203.999 214.792 203.997C214.793 203.998 214.796 203.998 214.801 204C214.827 204.008 214.887 204.029 214.982 204.078C215.03 204.102 215.083 204.132 215.143 204.167C215.143 204.167 215.143 204.168 215.144 204.168C215.201 204.202 215.263 204.241 215.331 204.287C215.377 204.317 215.423 204.348 215.469 204.379ZM218.254 245.639C218.65 247.434 220.064 254.85 221.111 261.871C221.634 265.379 222.073 268.837 222.244 271.465C222.328 272.766 222.353 273.944 222.268 274.846C222.227 275.284 222.151 275.775 221.983 276.214C221.852 276.556 221.43 277.478 220.341 277.694L220.341 277.694C219.934 277.774 219.473 277.767 219.009 277.597C218.552 277.429 218.209 277.147 217.961 276.858C217.509 276.332 217.271 275.662 217.117 275.117C216.807 274.016 216.581 272.393 216.311 270.461L216.291 270.314L216.291 270.314C215.721 266.22 214.859 260.051 212.61 251.792M218.254 245.639L216.513 246.024L218.254 245.64C218.254 245.64 218.254 245.64 218.254 245.639ZM212.61 251.792C208.857 238.02 209.365 229.799 209.65 225.276L209.65 225.276C209.724 224.111 209.77 223.335 209.744 222.767C209.739 222.665 209.732 222.581 209.725 222.514M212.61 251.792L214.33 251.323M212.61 251.792C212.609 251.792 212.609 251.792 212.609 251.792L214.33 251.323M209.725 222.514C209.705 222.333 209.681 222.267 209.682 222.267C209.683 222.267 209.703 222.316 209.761 222.382C209.857 222.49 209.947 222.528 209.974 222.537M209.725 222.514C209.877 222.518 209.951 222.532 209.974 222.537M209.974 222.537C209.979 222.539 209.982 222.54 209.982 222.54C209.982 222.54 209.979 222.539 209.974 222.537ZM214.33 251.323C216.61 259.695 217.484 265.954 218.057 270.068L211.43 225.388L211.429 225.394C211.152 229.804 210.648 237.811 214.33 251.323ZM228.076 210.26C232.164 212.733 232.512 212.944 231.011 213.653M228.076 210.26C224.096 207.869 220.177 205.383 216.322 202.804C214.843 201.816 213.89 201.991 213.708 204.04L231.011 213.653M231.011 213.653C225.998 216.024 222.447 221.808 221.298 225.056C221.158 225.221 221.036 225.355 220.931 225.461C220.841 225.553 220.77 225.618 220.717 225.662C220.669 225.702 220.646 225.717 220.646 225.717L220.647 225.717L220.647 225.717C220.651 225.714 220.715 225.675 220.831 225.64C220.897 225.62 220.997 225.596 221.124 225.588C220.588 227.399 220.983 228.119 222.531 226.357C222.58 226.444 222.614 226.524 222.634 226.587C222.671 226.7 222.679 226.782 222.681 226.814M231.011 213.653L233.248 217.833M230.541 211.891C230.55 211.886 230.554 211.883 230.554 211.883C230.555 211.883 230.551 211.886 230.541 211.891L230.541 211.891ZM223.035 225.746C229.785 217.124 231.12 216.958 233.248 217.833M223.035 225.746C222.983 225.813 222.932 225.877 222.882 225.938C222.843 226.06 222.81 226.174 222.782 226.28C222.719 226.519 222.692 226.681 222.683 226.774C222.682 226.792 222.681 226.805 222.681 226.814M233.248 217.833C260.113 228.857 278.735 252.845 269.441 257.09L233.248 217.833ZM222.681 226.814C222.681 226.824 222.681 226.829 222.681 226.829C222.681 226.829 222.68 226.824 222.681 226.814ZM192.736 295.427L192.778 295.395L192.501 295.033M192.736 295.427L192.501 295.033M146.852 254.561L191.192 303.759M146.852 254.561L173.371 244.622M173.371 244.622L212.077 270.23M212.077 270.23L192.501 295.033M212.077 270.23L192.501 295.033M244.071 359.604L244.163 359.543C245.062 358.942 245.956 358.345 246.859 357.788M244.071 359.604L279.061 265.818M246.859 357.788C246.859 357.788 246.858 357.789 246.858 357.789L247.795 359.306L246.859 357.788ZM246.859 357.788C248.313 356.89 249.475 356.185 250.434 355.604C252.504 354.347 253.624 353.668 254.686 352.867M254.686 352.867C256.103 351.798 257.353 350.556 260.513 347.418C261.311 346.626 262.23 345.714 263.304 344.652C273.581 334.499 281.619 324.407 286.849 312.956C292.015 301.647 294.484 288.919 293.56 273.357M254.686 352.867L255.76 354.291L254.687 352.867C254.687 352.867 254.686 352.867 254.686 352.867ZM293.56 273.357C292.026 273.521 289.958 273.469 287.777 273.306C285.107 273.107 282.071 272.725 279.22 272.249C276.379 271.774 273.667 271.196 271.664 270.595C270.678 270.298 269.772 269.97 269.093 269.605C268.764 269.428 268.373 269.182 268.055 268.843C267.746 268.514 267.263 267.817 267.455 266.877L267.728 265.538L269.092 265.454C272.567 265.24 275.668 265.516 278.998 265.812L279.061 265.818M293.56 273.357C293.861 273.325 294.141 273.285 294.397 273.235L294.398 273.235C294.417 273.231 294.43 273.23 294.436 273.229M293.56 273.357C293.55 273.191 293.54 273.025 293.529 272.859L293.529 272.855C293.517 272.669 293.509 272.584 293.499 272.534C293.499 272.532 293.498 272.53 293.498 272.528M279.061 265.818L278.903 267.594L279.062 265.818L279.061 265.818ZM294.436 273.229C294.429 273.229 294.416 273.23 294.397 273.229C294.396 273.229 294.396 273.229 294.396 273.229C294.354 273.226 294.287 273.218 294.201 273.192C294.092 273.159 293.971 273.101 293.856 273.013C293.787 272.961 293.729 272.904 293.682 272.849C293.681 272.848 293.68 272.847 293.679 272.846C293.65 272.811 293.624 272.776 293.602 272.743C293.532 272.638 293.505 272.554 293.498 272.528M294.436 273.229C294.44 273.228 294.442 273.228 294.442 273.228C294.442 273.228 294.44 273.229 294.436 273.229ZM293.498 272.528C293.497 272.523 293.496 272.52 293.496 272.52C293.496 272.52 293.497 272.522 293.498 272.528ZM269.097 261.395L269.961 262.955C269.961 262.955 269.961 262.955 269.961 262.955L269.097 261.395ZM292.918 266.322C293.122 266.314 293.328 266.306 293.535 266.297L293.537 266.297C293.658 266.292 293.723 266.285 293.752 266.28C293.755 266.28 293.757 266.279 293.759 266.279C293.748 266.281 293.71 266.291 293.655 266.313C293.622 266.327 293.583 266.345 293.54 266.369C293.54 266.37 293.539 266.37 293.539 266.37C293.461 266.414 293.372 266.477 293.283 266.566C293.142 266.707 293.057 266.859 293.011 266.979C292.976 267.072 292.967 267.135 292.965 267.146C292.966 267.135 292.969 267.088 292.967 266.986C292.962 266.822 292.945 266.614 292.918 266.322ZM270.975 267.166C270.937 266.725 270.702 266.452 270.657 266.404C270.632 266.377 270.617 266.365 270.617 266.364C270.617 266.364 270.662 266.399 270.782 266.464C271.139 266.656 271.766 266.901 272.672 267.174C272.111 267.16 271.546 267.157 270.975 267.166Z" stroke="#343A40" stroke-width="3.56646"/>
<path d="M159 259.5C167.667 266.333 195.5 300.5 195.5 300.5" stroke="#343A40" stroke-width="3.56646"/>
<path fill-rule="evenodd" clip-rule="evenodd" d="M341.101 181.126C340.524 180.955 339.98 180.726 339.5 180.428C337.209 182.65 333.899 187.805 334.564 192.459L334.611 193.194C334.843 196.942 335.104 201.162 337.149 204.192C337.394 204.553 337.729 204.998 338.298 204.7C338.671 204.506 338.637 204.329 338.458 203.405C338.2 202.069 337.642 199.166 337.575 192.369C337.528 187.583 339.442 184.133 340.646 181.96C340.8 181.684 340.952 181.406 341.101 181.126ZM378.505 182.075C377.577 182.056 376.563 182.017 375.459 181.976C374.999 182.677 374.442 183.313 373.802 183.865C370.115 187.045 368.183 188.02 367.291 188.47C366.677 188.78 366.561 188.84 366.706 189.2C366.929 189.75 367.394 189.785 367.75 189.785C370.773 189.798 373.231 187.967 375.412 186.345L375.78 186.071V186.073C377.176 185.251 378.032 183.733 378.507 182.075H378.505ZM386.608 180.193C386.136 180.807 385.516 181.234 384.722 181.525C384.567 181.939 384.396 182.424 384.188 183.026C383.8 184.144 383.27 185.671 382.408 187.907C379.77 194.743 372.207 196.363 366.528 197.58C365.495 197.802 364.521 198.011 363.653 198.235C351.29 201.425 351.283 209.096 354.092 206.828C354.482 206.514 354.836 206.186 355.195 205.851C357.016 204.157 359.047 202.268 367.244 200.831C379.21 198.732 386.479 193.551 386.887 181.731C386.911 181.205 386.815 180.68 386.606 180.193H386.608ZM367.84 181.269C367.56 181.127 367.297 180.955 367.057 180.754C366.218 181.481 365.136 181.724 363.599 181.802C363.593 181.806 363.588 181.811 363.582 181.816C359.895 184.995 357.963 185.971 357.071 186.42C356.456 186.731 356.34 186.791 356.485 187.151C356.708 187.701 357.172 187.736 357.529 187.736C360.553 187.748 363.011 185.918 365.192 184.295L365.56 184.022C366.597 183.414 367.335 182.419 367.84 181.271V181.269ZM357.294 181.851H356.676C355.352 181.858 354.277 181.862 353.398 181.858C350.407 184.398 348.774 185.13 348.014 185.47C347.478 185.71 347.374 185.756 347.538 186.103C347.786 186.632 348.21 186.696 348.538 186.727C351.279 186.987 353.362 185.488 355.213 184.156L355.564 183.904C356.364 183.47 356.924 182.735 357.294 181.849V181.851Z" fill="#343A40"/>
<path d="M172.008 259.987C172.621 261.397 184.773 269.495 190.906 273.877C198.791 279.514 198.75 279.346 199.31 278.664C200.015 277.805 199.879 277.962 179.429 263.06C176.919 261.231 171.388 256.88 172.008 259.987Z" fill="#343A40"/>
<path d="M204.13 273.398C205.145 272.833 204.904 272.329 202.477 270.72C176.428 253.46 176.808 253.162 175.967 254.139C175.126 255.116 174.923 254.882 188.707 263.984C202.7 273.223 202.491 273.135 204.13 273.398Z" fill="#343A40"/>
<path d="M294.761 176.137C295.575 168.1 300.332 155.678 308.074 156.838C313.677 169.4 309.432 188.988 301.088 196.344C299.986 197.316 293.327 190.283 294.761 176.137Z" fill="#2271B1"/>
<path d="M289.022 180.576C288.986 182.678 289.37 189.613 291.424 189.011C293.681 188.35 288.212 181.929 294.399 165.665C295.552 162.635 297.6 162.113 296.75 161.18C295.062 159.33 289.265 166.529 289.022 180.574V180.576Z" fill="#343A40"/>
<path d="M291.413 192.293C291.76 193.194 291.845 194.337 293.144 194.559C295.838 195.02 292.024 188.688 291.413 192.293Z" fill="#343A40"/>
<path d="M311.546 151.467C303.069 149.056 298.371 145.739 291.625 152.696C282.828 161.769 279.746 178.932 283.544 190.847C287.342 202.762 293.119 199.91 292.47 202.222C290.568 209.008 289.156 215.902 287.786 222.803C286.921 227.153 295.265 228.772 296.212 225.129C301.771 203.739 300.249 203.578 302.819 203.853C323.372 206.054 330.719 156.918 311.544 151.465L311.546 151.467ZM284.909 179.763C284.672 155.391 303.252 140.741 308.975 159.254C313.427 173.659 308.047 190.2 301.09 196.344C292.492 203.934 285.058 194.984 284.911 179.763H284.909ZM300.562 200.065C312.949 190.337 317.054 167.744 309.057 153.581C324.523 156.149 322.536 185.563 311.587 198.503C309.314 201.189 305.286 201.912 300.56 200.065H300.562Z" fill="#343A40"/>
<path fill-rule="evenodd" clip-rule="evenodd" d="M118.204 52.3563C118.974 52.4352 119.532 53.1064 119.451 53.8554C119.346 54.8247 119.542 55.8401 119.68 56.5551C119.703 56.6754 119.725 56.7872 119.743 56.8888C119.877 57.6307 119.366 58.3372 118.604 58.4669C117.841 58.5965 117.115 58.1002 116.982 57.3583C116.971 57.2984 116.955 57.2203 116.937 57.1266C116.803 56.4571 116.509 54.9854 116.663 53.5693C116.744 52.8203 117.434 52.2772 118.204 52.3563Z" fill="#343A40"/>
<path fill-rule="evenodd" clip-rule="evenodd" d="M420.36 166.635C421.13 166.714 421.688 167.385 421.607 168.134C421.502 169.103 421.698 170.119 421.837 170.834C421.86 170.954 421.881 171.066 421.9 171.168C422.033 171.909 421.523 172.616 420.76 172.746C419.998 172.875 419.271 172.379 419.138 171.637C419.127 171.577 419.112 171.499 419.093 171.405C418.959 170.736 418.666 169.264 418.819 167.848C418.9 167.099 419.59 166.556 420.36 166.635Z" fill="#343A40"/>
<path fill-rule="evenodd" clip-rule="evenodd" d="M487.523 186.522C488.293 186.601 488.852 187.272 488.77 188.021C488.665 188.99 488.862 190.006 489 190.721C489.023 190.841 489.045 190.953 489.063 191.054C489.196 191.796 488.686 192.503 487.923 192.632C487.161 192.762 486.435 192.266 486.301 191.524C486.291 191.464 486.275 191.386 486.256 191.292C486.123 190.623 485.829 189.151 485.983 187.735C486.064 186.986 486.754 186.443 487.523 186.522Z" fill="#343A40"/>
<path fill-rule="evenodd" clip-rule="evenodd" d="M115.112 116.303C115.882 116.382 116.441 117.053 116.359 117.802C116.254 118.771 116.451 119.787 116.589 120.502C116.612 120.622 116.634 120.734 116.652 120.835C116.785 121.577 116.275 122.284 115.512 122.413C114.75 122.543 114.024 122.047 113.89 121.305C113.88 121.245 113.864 121.167 113.845 121.073C113.712 120.404 113.418 118.932 113.572 117.516C113.653 116.767 114.343 116.224 115.112 116.303Z" fill="#343A40"/>
<path fill-rule="evenodd" clip-rule="evenodd" d="M382.711 58.1934C383.481 58.2724 384.039 58.9436 383.958 59.6926C383.853 60.6618 384.049 61.6772 384.188 62.3922C384.211 62.5126 384.232 62.6243 384.251 62.726C384.384 63.4679 383.874 64.1744 383.111 64.304C382.349 64.4337 381.622 63.9374 381.489 63.1955C381.478 63.1356 381.463 63.0575 381.444 62.9637C381.311 62.2943 381.017 60.8225 381.17 59.4065C381.251 58.6575 381.941 58.1144 382.711 58.1934Z" fill="#343A40"/>
<path fill-rule="evenodd" clip-rule="evenodd" d="M294.864 24.3835C295.634 24.4624 296.192 25.1336 296.111 25.8826C296.006 26.8519 296.202 27.8673 296.34 28.5823C296.363 28.7026 296.385 28.8144 296.403 28.9161C296.537 29.658 296.026 30.3645 295.264 30.4941C294.501 30.6238 293.775 30.1275 293.642 29.3856C293.631 29.3256 293.615 29.2476 293.597 29.1538C293.463 28.4843 293.169 27.0126 293.323 25.5965C293.404 24.8475 294.094 24.3045 294.864 24.3835Z" fill="#343A40"/>
<path d="M450.898 140.112C450.476 140.112 450.127 139.978 449.851 139.71C449.575 139.441 449.438 139.102 449.438 138.692V128.275H438.73C438.309 128.275 437.96 128.141 437.684 127.872C437.408 127.604 437.27 127.265 437.27 126.854C437.27 126.444 437.408 126.105 437.684 125.836C437.96 125.568 438.309 125.434 438.73 125.434H449.438V115.017C449.438 114.607 449.575 114.267 449.851 113.999C450.127 113.731 450.476 113.597 450.898 113.597C451.319 113.597 451.668 113.731 451.944 113.999C452.22 114.267 452.358 114.607 452.358 115.017V125.434H463.065C463.487 125.434 463.836 125.568 464.111 125.836C464.387 126.105 464.525 126.444 464.525 126.854C464.525 127.265 464.387 127.604 464.111 127.872C463.836 128.141 463.487 128.275 463.065 128.275H452.358V138.692C452.358 139.102 452.22 139.441 451.944 139.71C451.668 139.978 451.319 140.112 450.898 140.112Z" fill="#1C3D94"/>
<path fill-rule="evenodd" clip-rule="evenodd" d="M262.212 60.8656C259.75 62.0629 257.545 63.9484 256.798 66.7464C256.554 67.6628 256.773 68.429 256.861 69.3249C254.984 67.4988 253.058 68.342 251.748 70.4998C251.313 71.2156 250.982 71.9704 250.755 72.7712C250.67 73.0683 250.587 73.3658 250.547 73.6724C250.532 73.7869 250.606 74.1253 250.559 74.0189C249.501 71.6177 248.307 69.0787 245.848 67.7588C244.837 67.216 243.903 67.1632 242.808 67.4845C242.681 67.5216 241.99 67.6894 242.005 67.7835C242.642 65.9251 241.727 64.1465 240.019 63.1813C239.416 62.8405 238.78 62.5776 238.134 62.3262C237.868 62.2231 237.16 62.1061 237.355 62.0196C237.013 62.1118 238.109 61.8723 238.227 61.8309C238.938 61.5828 239.74 61.2971 240.367 60.8846C241.548 60.1084 243.398 57.9644 241.515 55.7538C241.515 55.7538 241.845 55.914 241.909 55.9358C242.226 56.0433 242.538 56.1265 242.868 56.1835C243.853 56.3536 244.902 56.2439 245.761 55.72C247.814 54.4667 248.211 50.9267 248.485 48.7941C248.375 48.9267 248.659 49.3649 248.711 49.4614C249.084 50.1677 249.481 50.8635 249.925 51.5308C251.133 53.3479 254.375 56.3864 256.702 54.1221C256.548 54.0813 256.396 54.9767 256.379 55.086C256.24 55.972 256.336 56.8427 256.862 57.5994C258.089 59.3632 260.088 60.8656 262.212 60.8656Z" fill="#2271B1"/>
<path fill-rule="evenodd" clip-rule="evenodd" d="M100.488 193.708C98.0267 194.906 95.8214 196.791 95.0753 199.589C94.8311 200.505 95.0499 201.272 95.1379 202.168C93.2609 200.341 91.335 201.185 90.0247 203.342C89.5899 204.058 89.2591 204.813 89.0315 205.614C88.947 205.911 88.8639 206.208 88.8234 206.515C88.8087 206.63 88.8825 206.968 88.8356 206.862C87.7774 204.46 86.5839 201.921 84.125 200.601C83.1142 200.059 82.1801 200.006 81.0853 200.327C80.9583 200.364 80.267 200.532 80.2821 200.626C80.9192 198.768 80.0036 196.989 78.2962 196.024C77.6933 195.683 77.0567 195.42 76.4104 195.169C76.145 195.066 75.4371 194.949 75.6316 194.862C75.2901 194.954 76.3854 194.715 76.5036 194.674C77.2145 194.425 78.0167 194.14 78.644 193.727C79.8248 192.951 81.6745 190.807 79.7916 188.596C79.7916 188.596 80.1218 188.757 80.1858 188.778C80.5025 188.886 80.8146 188.969 81.1454 189.026C82.1298 189.196 83.1792 189.087 84.0375 188.563C86.0905 187.309 86.4876 183.769 86.7617 181.637C86.6522 181.769 86.9361 182.208 86.9874 182.304C87.3607 183.01 87.7583 183.706 88.2019 184.373C89.4096 186.191 92.6517 189.229 94.9791 186.965C94.8247 186.924 94.6732 187.819 94.6562 187.929C94.5169 188.815 94.6132 189.685 95.1393 190.442C96.3656 192.206 98.3652 193.708 100.488 193.708Z" fill="#2271B1"/>
<path d="M81.0136 100.465C80.5918 100.465 80.243 100.331 79.9673 100.062C79.6915 99.7941 79.5536 99.4548 79.5536 99.0444V88.6276H68.8463C68.4245 88.6276 68.0757 88.4935 67.7999 88.2252C67.5241 87.9569 67.3862 87.6175 67.3862 87.2072C67.3862 86.7968 67.5241 86.4575 67.7999 86.1892C68.0757 85.9209 68.4245 85.7867 68.8463 85.7867H79.5536V75.3699C79.5536 74.9596 79.6915 74.6202 79.9673 74.3519C80.243 74.0836 80.5918 73.9495 81.0136 73.9495C81.4354 73.9495 81.7842 74.0836 82.06 74.3519C82.3358 74.6202 82.4737 74.9596 82.4737 75.3699V85.7867H93.181C93.6028 85.7867 93.9516 85.9209 94.2274 86.1892C94.5032 86.4575 94.6411 86.7968 94.6411 87.2072C94.6411 87.6175 94.5032 87.9569 94.2274 88.2252C93.9516 88.4935 93.6028 88.6276 93.181 88.6276H82.4737V99.0444C82.4737 99.4548 82.3358 99.7941 82.06 100.062C81.7842 100.331 81.4354 100.465 81.0136 100.465Z" fill="#1C3D94"/>
<path fill-rule="evenodd" clip-rule="evenodd" d="M467.67 225.832C465.208 227.029 463.003 228.915 462.257 231.713C462.012 232.629 462.231 233.395 462.319 234.291C460.442 232.465 458.516 233.308 457.206 235.466C456.771 236.182 456.441 236.937 456.213 237.738C456.128 238.035 456.045 238.332 456.005 238.639C455.99 238.753 456.064 239.092 456.017 238.985C454.959 236.584 453.765 234.045 451.306 232.725C450.296 232.182 449.362 232.13 448.267 232.451C448.14 232.488 447.448 232.656 447.463 232.75C448.101 230.891 447.185 229.113 445.478 228.148C444.875 227.807 444.238 227.544 443.592 227.293C443.326 227.189 442.619 227.072 442.813 226.986C442.471 227.078 443.567 226.839 443.685 226.797C444.396 226.549 445.198 226.264 445.825 225.851C447.006 225.075 448.856 222.931 446.973 220.72C446.973 220.72 447.303 220.88 447.367 220.902C447.684 221.01 447.996 221.093 448.327 221.15C449.311 221.32 450.361 221.21 451.219 220.686C453.272 219.433 453.669 215.893 453.943 213.76C453.834 213.893 454.118 214.331 454.169 214.428C454.542 215.134 454.94 215.83 455.383 216.497C456.591 218.314 459.833 221.353 462.16 219.089C462.006 219.048 461.855 219.943 461.838 220.052C461.698 220.938 461.795 221.809 462.321 222.566C463.547 224.33 465.547 225.832 467.67 225.832Z" fill="#2271B1"/>
<path d="M402.447 106.881C395.381 100.005 385.616 95.7526 374.832 95.7526C364.046 95.7526 354.282 100.005 347.214 106.881C340.144 113.757 335.773 123.258 335.773 133.75C335.773 144.242 340.144 153.744 347.212 160.62C354.28 167.497 364.046 171.748 374.832 171.748C385.617 171.748 395.383 167.494 402.449 160.62C409.517 153.742 413.888 144.242 413.888 133.75C413.888 123.258 409.515 113.757 402.447 106.881ZM401.159 159.364C394.421 165.918 385.113 169.973 374.831 169.973C364.549 169.973 355.239 165.918 348.501 159.364C341.763 152.809 337.596 143.753 337.596 133.75C337.596 123.748 341.764 114.692 348.501 108.137C355.238 101.583 364.547 97.5271 374.83 97.5271C385.111 97.5271 394.42 101.582 401.157 108.136C407.894 114.691 412.062 123.747 412.062 133.75C412.064 143.753 407.896 152.809 401.159 159.364Z" fill="#1D2428"/>
<path d="M408.43 133.434C408.254 115.526 393.28 101.061 374.833 101.061C356.383 101.061 341.408 115.527 341.235 133.435L356.642 118.446L361.809 123.473L350.534 134.442H399.132L387.857 123.474L393.023 118.447L408.43 133.434ZM374.831 127.816L360.515 113.201H370.029V105.998C370.029 104.128 372.19 102.595 374.831 102.595C377.473 102.595 379.634 104.127 379.634 105.998V113.202H389.148L374.831 127.816Z" fill="#1D2428"/>
<path d="M379.007 152.148C378.243 151.664 377.277 151.231 376.11 150.854C375.219 150.555 374.484 150.273 373.911 150.001C373.343 149.732 372.924 149.433 372.655 149.118C372.38 148.797 372.252 148.412 372.252 147.97C372.252 147.617 372.361 147.281 372.595 146.963C372.825 146.646 373.184 146.382 373.673 146.183C374.166 145.98 374.793 145.87 375.573 145.868C376.201 145.871 376.774 145.92 377.293 146.007C377.806 146.097 378.26 146.207 378.649 146.332C379.042 146.461 379.362 146.583 379.612 146.699L380.479 144.155C379.955 143.899 379.297 143.686 378.5 143.514C377.823 143.368 377.049 143.284 376.168 143.256V140.623H373.784V143.387C373.402 143.447 373.035 143.528 372.688 143.626C371.811 143.878 371.058 144.228 370.434 144.684C369.816 145.139 369.337 145.67 369.009 146.28C368.678 146.889 368.516 147.561 368.509 148.283C368.514 149.119 368.739 149.855 369.183 150.492C369.627 151.128 370.261 151.681 371.077 152.154C371.891 152.626 372.862 153.033 373.986 153.375C374.829 153.638 375.516 153.912 376.04 154.193C376.563 154.473 376.947 154.782 377.187 155.119C377.431 155.457 377.552 155.848 377.546 156.285C377.546 156.765 377.401 157.181 377.118 157.54C376.838 157.894 376.425 158.173 375.881 158.371C375.338 158.571 374.674 158.669 373.896 158.675C373.263 158.671 372.649 158.618 372.05 158.519C371.456 158.414 370.898 158.279 370.384 158.112C369.865 157.944 369.411 157.762 369.016 157.558L368.179 160.208C368.558 160.41 369.031 160.592 369.61 160.761C370.19 160.93 370.828 161.065 371.526 161.168C372.219 161.267 372.931 161.318 373.656 161.324L373.783 161.323V164.045H376.167V161.105C376.47 161.048 376.758 160.98 377.031 160.901C377.988 160.621 378.783 160.239 379.41 159.75C380.043 159.266 380.512 158.703 380.822 158.07C381.131 157.437 381.286 156.767 381.286 156.053C381.286 155.217 381.102 154.477 380.723 153.842C380.343 153.196 379.773 152.633 379.007 152.148Z" fill="#1D2428"/>
</svg>
