<svg width="532" height="400" viewBox="0 0 532 400" fill="none" xmlns="http://www.w3.org/2000/svg">
<g clip-path="url(#clip0_45_1780)">
<rect width="532" height="400" fill="white"/>
<path d="M198.391 294.434C196.119 293.884 193.743 293.935 191.496 294.581C189.266 295.178 187.205 296.283 185.475 297.81C184.888 298.256 185.622 299.275 186.208 298.836C189.744 296.613 193.977 295.777 198.092 296.488C199.272 296.635 199.421 294.719 198.391 294.434Z" fill="#343A40"/>
<path d="M203.602 293.388C204.613 293.58 205.163 292.407 204.7 291.938C204.228 291.377 203.647 290.918 202.991 290.59C202.335 290.263 201.618 290.073 200.886 290.034C199.535 289.937 198.191 290.298 197.071 291.06C196.337 291.646 196.924 292.822 197.804 292.38C199.916 291.113 203.074 293.288 203.602 293.388Z" fill="#343A40"/>
<path d="M320.318 300.009C300.549 300.009 293.291 300.377 255.321 295.315C255.228 295.217 255.108 295.151 254.977 295.125C254.846 295.098 254.709 295.113 254.587 295.167C252.025 296.45 247.56 297.464 236.392 306.906C220.481 299.195 220.958 292.737 213.062 287.097C211.019 285.503 208.46 284.72 205.875 284.896C205.725 284.905 205.585 284.971 205.482 285.08C205.379 285.19 205.322 285.334 205.322 285.484C205.322 285.634 205.379 285.778 205.482 285.887C205.585 285.996 205.725 286.062 205.875 286.071C215.751 286.997 218.162 301.324 234.642 308.518C222.754 318.921 212.507 336.293 212.926 352.244C212.928 352.408 212.99 352.565 213.1 352.686C213.209 352.807 213.36 352.883 213.522 352.901C213.684 352.919 213.848 352.877 213.981 352.782C214.114 352.688 214.209 352.548 214.246 352.389C217.83 326.909 230.628 311.632 251.808 298.396C252.981 297.663 254.009 296.929 255.182 296.195C278.267 302.187 314.433 302.919 319.444 301.918C318.566 303.971 317.685 306.028 316.951 308.079C315.644 310.755 314.612 313.557 313.871 316.442C313.85 316.603 313.881 316.767 313.961 316.908C314.04 317.05 314.163 317.163 314.312 317.229C314.46 317.295 314.626 317.312 314.785 317.276C314.943 317.24 315.086 317.154 315.192 317.03C319.71 310.253 334.408 269.355 337.786 259.661C344.202 242.029 348.9 222.608 363.168 210.51C370.613 204.197 379.969 200.579 389.725 200.239C389.824 200.226 389.917 200.182 389.99 200.112C390.062 200.043 390.11 199.952 390.126 199.853C390.143 199.754 390.127 199.652 390.081 199.563C390.036 199.474 389.962 199.402 389.872 199.358C381.215 198.038 372.413 201.267 365.224 206.108C348.985 217.481 343.782 235.216 337.349 253.645C332.454 267.255 326.484 284.8 320.318 300.009Z" fill="#343A40"/>
<path d="M390.158 248.511C390.158 247.925 389.277 247.778 389.277 248.362C387.299 264.197 384.061 279.848 379.592 295.167C375.053 310.284 368.957 324.888 361.399 338.744C357.912 345.158 352.236 350.105 345.406 352.684C338.197 355.225 330.711 356.898 323.106 357.67C281.017 363.209 239.526 355.543 215.705 353.857C215.118 353.857 214.971 354.885 215.557 354.885C224.067 356.644 232.577 357.525 241.087 358.553C266.185 361.53 293.206 363.408 318.41 360.605C326.434 359.904 334.385 358.53 342.179 356.497C349.244 354.501 355.537 350.408 360.226 344.76C367.808 335.04 376.088 313.54 380.033 301.915C383.579 291.283 386.325 280.4 388.249 269.357C389.256 268.284 390.143 267.102 390.891 265.834C392.768 262.997 394.295 259.942 395.438 256.738C396.025 255.123 396.172 253.364 396.758 251.609C396.906 251.163 396.312 251.022 396.172 251.464C395.527 253.021 394.792 254.539 393.971 256.011L391.77 260.413C390.941 262.031 390.01 263.595 388.982 265.096C390.051 259.637 390.446 254.067 390.158 248.511Z" fill="#343A40"/>
<path d="M110.651 317.175C105.719 319.086 111.787 324.2 116.521 326.566C140.946 339.277 141.829 342.66 158.336 338.162C174.984 333.913 191.392 328.77 207.487 322.757C208.394 322.427 209.277 322.035 210.13 321.582C213.529 321.705 216.919 321.156 220.107 319.967C221.132 319.521 220.84 317.913 219.661 318.208C215.847 319.1 211.445 320.262 207.63 318.654C199.76 315.157 199.011 301.728 187.823 300.754C185.976 300.465 184.087 300.636 182.321 301.25C180.555 301.864 178.968 302.903 177.699 304.275C177.326 304.835 177.616 306.079 178.58 305.597C179.574 304.955 180.603 304.367 181.661 303.836C183.54 302.962 185.632 302.656 187.682 302.955C194.656 303.847 197.432 311.955 201.181 316.453C201.914 317.334 205.143 321.296 206.463 320.855C190.201 326.819 173.649 331.958 156.868 336.253C147.132 338.873 143.711 338.668 133.835 333.318C114.474 322.993 115.925 323.879 114.173 322.755C112.112 321.575 109.889 319.655 112.63 318.785C125.006 314.849 178.495 298.776 183.133 297.377C183.72 297.23 183.425 296.352 182.839 296.485C170.743 298.448 145.716 306.259 135.741 309.25V309.105C135.34 308.122 134.723 307.243 133.935 306.531C133.148 305.82 132.21 305.295 131.192 304.995C128.617 304.435 125.942 304.536 123.416 305.289C120.923 305.876 116.226 307.051 114.32 304.703C112.853 302.941 116.668 301.474 117.694 301.035C139.902 288.625 222.027 277.843 236.687 270.517C242.384 267.569 246.78 262.186 246.075 255.844C245.93 254.671 244.168 254.671 244.315 255.844C244.363 258.358 243.699 260.835 242.401 262.989C241.103 265.144 239.224 266.888 236.979 268.022C224.239 275.358 167.646 282.14 133.835 292.819C128.319 294.298 122.962 296.315 117.841 298.84C116.521 299.574 115.348 300.308 114.173 301.041C113.292 301.775 112.266 302.509 112.119 303.682C111.824 306.03 114.906 307.497 116.813 307.792C119.37 308.114 121.966 307.914 124.444 307.203C126.855 306.487 129.435 306.591 131.781 307.497C132.255 307.704 132.682 308.007 133.036 308.385C133.389 308.764 133.661 309.21 133.835 309.698C133.834 309.717 133.837 309.737 133.844 309.755C133.851 309.773 133.862 309.789 133.876 309.803C133.889 309.817 133.905 309.827 133.923 309.835C133.941 309.842 133.96 309.846 133.98 309.845C127.379 311.895 111.82 316.723 110.651 317.175Z" fill="#343A40"/>
<path d="M323.253 266.264C323.733 266.591 324.287 266.793 324.865 266.851C327.506 266.851 324.419 264.65 323.692 264.211C318.434 261.199 312.877 258.74 307.112 256.874C305.486 256.212 303.737 255.908 301.983 255.982C297.276 256.51 294.58 260.072 290.539 261.557C289.805 261.851 290.093 263.024 290.831 262.877C294.546 262.052 298.667 258.537 301.836 258.194C305.21 257.748 309.028 259.954 312.107 261.276C315.95 262.638 319.677 264.306 323.253 266.264Z" fill="#343A40"/>
<path d="M318.704 280.503C315.36 281.191 311.914 281.208 308.564 280.553C305.214 279.898 302.027 278.584 299.189 276.688C298.455 276.242 296.254 274.047 295.668 275.515C295.081 276.982 297.577 278.155 298.455 278.741C301.31 280.608 304.499 281.904 307.846 282.557C311.608 283.344 315.514 283.09 319.143 281.823C319.877 281.669 319.582 280.336 318.704 280.503Z" fill="#343A40"/>
<path d="M273.66 270.519C272.682 271.352 272.01 272.488 271.751 273.746C271.746 274.444 271.954 275.127 272.348 275.703C272.741 276.28 273.301 276.723 273.952 276.973C275.488 277.551 277.056 278.041 278.648 278.44C281.772 279.601 285.022 280.39 288.331 280.788C289.278 280.935 290.246 280.837 291.144 280.504C292.042 280.17 292.839 279.611 293.46 278.882C294.486 277.414 294.194 273.753 296.395 273.601C298.538 273.601 301.401 275.947 304.171 275.947C308.281 275.947 307.25 270.818 305.197 269.052C302.04 266.56 298.206 265.078 294.194 264.797C285.758 263.591 276.967 267.21 273.66 270.519Z" fill="#2271B1"/>
<path d="M390.45 164.733C380.649 159.65 385.593 140.693 384.141 138.323C383.252 137.12 382.27 135.989 381.204 134.94C380.81 134.382 380.599 133.715 380.599 133.032C380.599 132.349 380.81 131.682 381.204 131.124C382.348 129.686 383.573 128.315 384.872 127.017C389.154 122.467 391.125 121.511 393.677 115.131C394.15 113.62 394.841 112.187 395.728 110.876C396.174 110.441 396.62 110.876 396.62 111.322C395.919 114.677 394.681 117.897 392.952 120.857C390.242 125.03 383.726 130.946 382.973 132.453C382.388 133.481 383.856 134.654 384.44 135.388C385.377 136.256 386.04 137.378 386.349 138.617C386.594 140.082 385.865 146.54 386.057 150.501L386.349 152.055C386.349 152.642 386.496 153.141 386.496 153.728C386.929 157.251 388.102 161.211 391.625 162.826C393.834 163.652 396.249 163.755 398.52 163.118C401.496 162.082 404.031 160.064 405.707 157.396C405.797 157.239 405.941 157.122 406.112 157.065C406.283 157.009 406.469 157.018 406.634 157.091C406.798 157.164 406.93 157.296 407.003 157.461C407.076 157.625 407.086 157.811 407.03 157.982C405.614 163.905 396.865 167.939 390.45 164.733Z" fill="#343A40"/>
<path d="M397.793 122.476C394.131 122.476 394.323 128.785 397.646 127.025C399.608 125.547 400.097 122.476 397.793 122.476Z" fill="#343A40"/>
<path d="M401.599 120.715C401.432 121.288 401.334 121.879 401.307 122.476C401.455 123.504 402.483 123.357 403.067 122.771C403.502 122.169 403.756 121.456 403.801 120.715C403.889 119.8 403.645 118.884 403.111 118.135C402.578 117.387 401.791 116.857 400.898 116.642C400.004 116.428 399.063 116.544 398.248 116.969C397.433 117.394 396.799 118.1 396.464 118.955C396.265 119.354 397.008 120.708 398.081 119.102C398.301 118.846 398.57 118.636 398.872 118.485C399.174 118.334 399.503 118.244 399.84 118.221C400.135 118.233 400.423 118.312 400.683 118.452C400.942 118.593 401.166 118.792 401.336 119.033C401.506 119.274 401.619 119.551 401.664 119.843C401.71 120.135 401.688 120.433 401.599 120.715Z" fill="#343A40"/>
<path d="M433.879 311.014C429.945 310.137 425.852 310.29 421.995 311.46C418.766 312.341 413.778 313.808 411.577 316.743C407.806 321.457 418.784 326.588 428.893 321.292C431.533 319.818 440.48 312.782 433.879 311.014Z" fill="#343A40"/>
<path d="M242.407 214.031C241.836 206.984 229.147 91.6042 228.763 91.2251C228.616 90.6386 228.03 90.6386 227.588 90.7791C226.899 90.8482 140.154 106.139 137.209 107.212C137.07 107.269 136.954 107.37 136.878 107.499C136.801 107.628 136.769 107.778 136.786 107.927C136.802 108.076 136.867 108.216 136.97 108.325C137.073 108.434 137.208 108.507 137.356 108.532C142.239 108.532 226.614 93.3681 227.448 93.125C228.173 99.2776 241.987 228.943 242.121 230.163C241.898 230.239 170.621 243.846 153.648 248.944C153.648 242.733 138.06 109.636 137.949 109.413C137.802 108.385 136.187 108.385 136.334 109.413C137.391 123.161 151.797 249.531 152.181 249.531C152.036 249.668 151.942 249.85 151.915 250.048C151.888 250.246 151.929 250.447 152.032 250.618C152.135 250.789 152.293 250.92 152.48 250.989C152.667 251.058 152.872 251.061 153.062 250.998C167.18 247.974 242.344 231.575 242.708 231.483C242.917 231.468 243.112 231.37 243.25 231.211C243.387 231.052 243.456 230.845 243.441 230.636C243.392 225.086 243.046 219.544 242.407 214.031Z" fill="#343A40"/>
<path d="M223.775 101.789C225.811 97.7166 224.747 97.3286 223.501 99.5586C219.839 106.072 208.152 131.111 190.615 168.401C186.947 163.999 150.698 121.89 147.919 118.672C146.452 116.91 142.931 113.097 142.79 112.803C141.898 111.922 140.442 113.249 141.323 114.27C150.749 124.874 189.415 170.243 189.596 170.466C189.406 170.865 155.555 242.629 155.555 242.941C155.555 243.527 156.289 244.848 156.875 243.672C157.767 241.913 190.771 172.66 190.916 172.074C192.118 173.485 236.346 224.267 237.719 225.48C239.171 226.506 238.542 224.987 238.279 224.65C232.534 217.274 192.156 170.087 191.942 169.873C194.43 164.733 223.041 103.256 223.775 101.789Z" fill="#2271B1"/>
<path d="M295.521 81.1008C295.331 80.1441 291.926 80.4764 291.696 80.5076C290.198 80.7128 288.831 81.2837 283.343 82.1289C279.527 82.7153 241.381 88.7297 237.273 89.6105C236.979 89.6105 236.827 90.0565 236.827 90.3442C238.578 109.589 243.914 144.883 245.192 154.461C245.337 155.781 245.778 156.957 245.923 158.277C245.923 158.542 246.394 158.723 246.657 158.723C258.581 157.233 299.147 149.047 300.944 148.746C301.059 148.709 301.163 148.643 301.246 148.555C301.329 148.466 301.388 148.359 301.417 148.241C301.447 148.124 301.446 148.001 301.415 147.884C301.385 147.767 301.324 147.66 301.241 147.573C301.241 144.005 301.272 141.362 301.091 139.21C299.856 125.137 297.173 90.5828 295.521 81.1008ZM247.107 157.057C247.083 156.834 238.74 93.7249 238.152 90.4914C245.383 89.9225 252.582 88.9922 259.72 87.7039C268.721 86.4684 285.742 83.4802 288.184 83.1546C290.019 82.8915 291.834 82.4996 293.614 81.9817C294.493 89.6105 300.081 146.099 300.215 147.127C293.322 148.371 253.878 155.552 247.107 157.057Z" fill="#343A40"/>
<path d="M401.749 183.219C403.64 179.865 404.602 176.067 404.534 172.216C404.483 170.054 404.288 167.897 403.95 165.761C403.912 165.642 403.834 165.54 403.729 165.474C403.623 165.407 403.498 165.38 403.374 165.398C403.251 165.415 403.138 165.476 403.055 165.569C402.972 165.662 402.925 165.781 402.922 165.906C402.929 169.744 402.585 173.574 401.894 177.35C401.553 178.904 400.957 180.391 400.132 181.752C399.398 183.072 398.228 184.247 397.494 185.715C397.347 186.161 397.639 186.593 398.081 186.448C399.672 185.882 400.986 184.726 401.749 183.219Z" fill="#343A40"/>
<path d="M411.871 121.595C412.545 122.952 412.944 124.428 413.045 125.939C413.145 127.45 412.946 128.966 412.457 130.4C412.025 131.877 411.435 133.303 410.698 134.654C410.252 135.682 407.91 138.617 409.086 139.643C411.026 141.59 413.526 134.144 418.621 134.949C425.224 135.975 426.103 151.228 413.191 148.005C412.605 147.86 411.577 148.153 411.871 149.033C412.752 151.234 417.299 150.795 417.299 150.94C421.701 155.636 428.449 151.386 429.037 151.234C425.811 160.038 425.516 175.883 425.516 176.03C417.007 177.497 409.086 182.051 401.6 186.301C398.52 188.061 395.291 189.675 392.356 191.729C392.246 191.793 392.164 191.896 392.127 192.018C392.091 192.14 392.102 192.271 392.159 192.385C392.216 192.499 392.314 192.587 392.434 192.631C392.553 192.675 392.685 192.671 392.802 192.621C397.095 191.548 400.177 189.24 409.081 184.551C417.627 180.039 425.238 177.011 434.608 177.95C434.385 177.95 432.282 186.972 432.849 188.219C434.097 190.966 436.127 191.499 440.477 200.691C441.36 203.429 442.489 206.081 443.851 208.615C443.916 208.716 444.011 208.794 444.124 208.837C444.236 208.879 444.36 208.885 444.475 208.852C444.591 208.818 444.693 208.749 444.766 208.653C444.838 208.557 444.878 208.44 444.879 208.32C445.325 204.36 442.97 200.105 441.064 196.581C439.345 193.183 437.119 190.066 434.461 187.338C434.719 187.079 435.984 181.516 437.103 177.216C437.145 177.081 437.158 176.939 437.144 176.799C437.129 176.658 437.086 176.522 437.018 176.399C436.949 176.276 436.856 176.167 436.745 176.08C436.634 175.994 436.506 175.93 436.37 175.894C433.466 175.332 430.486 175.283 427.566 175.749C427.566 175.602 428.012 165.477 428.888 160.342C429.51 156.809 430.392 153.328 431.528 149.925C433.581 148.663 435.455 147.133 437.103 145.376C440.038 142.442 445.905 135.107 446.052 134.813C446.2 134.96 448.695 138.039 450.896 136.28C450.338 136.835 448.858 142.381 450.749 149.484C451.778 152.923 453.732 156.013 456.396 158.419C459.06 160.825 462.333 162.454 465.859 163.129C466.006 163.129 463.072 165.772 465.413 168.412C454.051 172.783 447.776 181.839 447.074 192.034C446.903 194.709 447.408 197.382 448.541 199.81C449.908 202.217 451.638 204.398 453.67 206.277C453.039 206.357 452.437 206.587 451.913 206.947C451.389 207.306 450.958 207.786 450.657 208.346C450.356 208.906 450.193 209.529 450.181 210.165C450.169 210.8 450.31 211.429 450.59 212C444.874 213.491 439.658 216.479 435.48 220.657C426.489 229.354 427.022 241.068 433.716 246.183C433.198 246.306 432.725 246.571 432.349 246.948C431.973 247.325 431.71 247.799 431.588 248.317C431.467 248.835 431.492 249.377 431.661 249.881C431.83 250.386 432.136 250.834 432.545 251.174C430.09 252.361 427.817 253.892 425.795 255.721C423.623 257.783 421.932 260.298 420.841 263.087C419.751 265.876 419.287 268.871 419.484 271.86C419.698 276.331 421.463 280.589 424.475 283.902C425.074 284.436 425.711 284.927 426.382 285.369C425.84 286.255 425.604 287.295 425.71 288.329C425.815 289.363 426.258 290.333 426.968 291.091C423.877 294.593 420.987 298.268 418.311 302.096C415.493 305.811 413.129 309.85 411.271 314.127C413.675 312.141 416.475 310.691 419.484 309.872C424.49 308.389 433.368 306.659 437.384 309.872C437.628 303.206 435.319 296.699 430.928 291.678C431.697 291.088 432.204 290.221 432.341 289.263C432.478 288.304 432.235 287.33 431.662 286.549C432.623 286.445 433.562 286.197 434.45 285.815C447.02 280.427 450.822 261.865 440.917 252.951C440.133 252.231 439.242 251.637 438.276 251.19C439.891 250.456 438.863 248.697 438.863 248.549C452.341 249.664 463.275 229.583 455.588 214.207C456.706 213.868 457.657 213.123 458.255 212.118C458.852 211.114 459.051 209.922 458.815 208.777C464.978 209.805 470.701 205.99 474.075 201.148C479.337 193.694 477.995 185.092 474.369 176.792C474.075 176.206 470.701 169.456 470.553 169.603C471.068 169.256 471.5 168.799 471.816 168.265C472.132 167.731 472.325 167.133 472.381 166.514C472.438 165.896 472.355 165.273 472.14 164.691C471.926 164.108 471.584 163.581 471.14 163.147C472.627 162.556 473.94 161.597 474.955 160.36C476.419 157.886 477.357 155.136 477.711 152.284C478.064 149.431 477.825 146.536 477.009 143.78C474.661 135.711 466.738 128.522 457.936 129.403C457.49 129.403 456.908 129.548 456.469 129.548C456.023 124.706 450.448 124.854 450.305 124.706C450.452 124.706 451.039 117.517 451.039 116.783C451.039 103.742 441.05 89.7778 427.711 86.9993C421.325 85.6968 414.684 86.9618 409.224 90.5204C404.822 91.2541 399.981 89.6284 396.018 92.2821C394.325 93.3454 392.954 94.8491 392.05 96.6321C391.147 98.4151 390.745 100.41 390.889 102.404C391.979 111.618 406.679 112.138 411.871 121.595Z" fill="#343A40"/>
<path d="M451.634 322.017V324.073C451.636 324.198 451.682 324.318 451.764 324.413C451.847 324.507 451.961 324.568 452.085 324.585C452.209 324.603 452.335 324.576 452.44 324.508C452.546 324.441 452.624 324.338 452.66 324.218C452.794 323.689 454.031 321.678 455.447 309.694C457.807 290.235 459.238 272.783 454.861 253.052C454.569 251.732 453.969 250.411 453.686 249.089C453.541 248.643 452.807 248.799 452.952 249.238C454.414 258.857 455.247 268.561 455.447 278.289C455.447 302.078 451.634 317.925 451.634 322.017Z" fill="#343A40"/>
<path d="M294.642 140.082C281.454 141.739 274.198 143.996 255.76 146.832C257.106 145.169 258.239 143.345 259.134 141.402C265.737 141.402 265.003 136.273 262.214 133.773C262.214 133.773 264.122 129.079 265.148 127.17C269.55 119.542 277.19 114.406 282.611 107.658C283.414 107.974 284.303 107.999 285.122 107.727C285.942 107.454 286.639 106.903 287.093 106.169C287.547 105.435 287.729 104.564 287.606 103.71C287.483 102.855 287.065 102.071 286.422 101.494C286.572 101.349 286.572 101.048 286.719 100.908C287.565 98.6591 287.963 96.2667 287.89 93.8653C287.89 93.8062 287.866 93.7495 287.824 93.7076C287.783 93.6658 287.726 93.6423 287.667 93.6423C287.608 93.6423 287.551 93.6658 287.509 93.7076C287.467 93.7495 287.444 93.8062 287.444 93.8653C287.032 96.2952 286.19 98.6319 284.955 100.765C281.715 98.5996 277.596 104.482 280.847 107.076C278.357 109.956 275.711 112.699 272.922 115.291C264.448 123.765 263.984 124.737 260.307 133.486C259.402 133.348 258.477 133.52 257.683 133.975C256.888 134.429 256.271 135.139 255.931 135.989C255.591 136.839 255.548 137.779 255.81 138.656C256.071 139.533 256.622 140.296 257.372 140.82C256.242 143.423 254.595 145.77 252.531 147.718C252.161 147.776 251.77 147.76 251.53 147.82C251.235 140.778 250.33 133.191 249.746 126.296C248.37 113.362 247.166 106.255 246.224 100.62C246.032 98.6488 245.538 96.7189 244.759 94.8978C244.61 94.6035 244.026 94.6035 244.026 95.0428C243.854 96.7047 243.903 98.3821 244.171 100.031C246.075 111.451 249.099 144.37 249.746 148.743C249.815 149.014 249.964 149.256 250.174 149.44C250.383 149.623 250.644 149.739 250.921 149.771C259.294 149.102 276.903 144.959 294.937 142.435C296.105 142.136 295.958 139.917 294.642 140.082Z" fill="#343A40"/>
<path d="M292.439 162.09C291.919 162.177 249.01 170.024 249.01 170.6C248.37 170.6 248.276 171.715 248.276 172.359C248.254 175.748 248.5 179.133 249.01 182.483C249.01 183.181 249.083 184.116 249.743 183.951C253.152 183.577 256.533 182.989 259.868 182.189C260.091 182.153 287.687 177.361 298.016 175.147C299.787 174.824 301.527 174.352 303.219 173.737C303.484 173.653 303.718 173.49 303.889 173.271C304.06 173.051 304.161 172.784 304.178 172.506C304.325 170.553 304.325 168.591 304.178 166.637C304.174 164.868 304.025 163.101 303.732 161.356C303.813 161.225 303.857 161.075 303.861 160.921C303.864 160.768 303.827 160.616 303.752 160.481C303.677 160.347 303.568 160.234 303.435 160.156C303.303 160.078 303.152 160.037 302.998 160.036C299.936 160.293 294.939 161.675 292.439 162.09ZM293.331 174.121C286.924 175.459 274.229 177.633 272.496 177.934C272.496 174.638 272.202 171.348 271.617 168.104C278.218 166.931 300.668 162.677 302.282 162.235C302.135 163.702 302.282 165.317 302.282 166.784C302.234 168.598 302.331 170.413 302.574 172.212C301.408 172.33 294.916 173.686 293.32 174.132L293.331 174.121Z" fill="#343A40"/>
<path d="M284.81 190.703C250.805 197.654 251.211 197.132 251.211 197.598C250.874 198.102 251.405 210.657 252.678 210.657C256.663 210.309 295.891 203.2 301.096 202C303.012 201.687 304.883 201.145 306.671 200.386C306.968 196.332 306.968 192.262 306.671 188.208C306.752 188.077 306.796 187.927 306.8 187.773C306.803 187.619 306.766 187.467 306.691 187.332C306.616 187.198 306.507 187.086 306.374 187.008C306.242 186.929 306.091 186.888 305.937 186.888C304.03 186.888 288.193 190.012 284.81 190.703ZM291.56 201.559C291.413 198.185 291.266 194.958 291.114 191.582C292.006 191.437 303.292 189.383 304.909 188.941C304.79 192.27 304.887 195.602 305.199 198.918C303.738 198.918 293.028 201.267 291.56 201.561V201.559Z" fill="#343A40"/>
<path d="M253.512 221.25C253.367 222.811 254.292 233.408 254.431 233.544C256.355 235.044 307.877 224.521 309.01 223.863C309.307 219.809 309.307 215.738 309.01 211.683C309.091 211.552 309.135 211.402 309.139 211.248C309.143 211.094 309.105 210.942 309.03 210.808C308.955 210.673 308.846 210.561 308.714 210.483C308.581 210.405 308.43 210.363 308.276 210.363C303.37 210.737 257.327 220.144 254.161 220.748C253.735 220.833 253.557 220.864 253.512 221.25ZM266.754 230.022C266.609 228.263 266.754 221.662 266.308 220.195C269.39 219.606 305.629 212.856 307.244 212.417C307.126 215.746 307.223 219.079 307.536 222.396C306.084 222.541 273.805 228.705 266.763 230.022H266.754Z" fill="#343A40"/>
<path d="M71.477 261.715C72.1195 266.212 73.6135 270.545 75.879 274.482C77.15 276.39 78.7922 278.023 80.7079 279.284C82.6235 280.544 84.7733 281.405 87.029 281.816C91.9961 282.598 97.0621 282.499 101.995 281.522C161.09 272.66 229.898 255.366 264.562 247.338C276.445 244.549 288.476 241.763 300.215 238.387C311.998 234.969 320.18 233.113 324.569 228.263C326.548 225.828 327.544 222.739 327.358 219.606C327.503 209.112 326.915 198.62 325.597 188.208C323.277 161.671 319.46 134.121 312.832 81.1008C312.468 76.8388 311.732 72.6169 310.631 68.4835C309.252 63.9745 306.413 60.0521 302.561 57.3335C296.959 53.759 290.425 51.9216 283.782 52.0528C274.353 52.6795 174.296 69.458 100.962 80.0728C100.986 81.0044 100.937 81.9364 100.815 82.8603C112.993 80.9514 276.885 55.1235 283.048 54.6932C288.54 54.3339 294.024 55.5017 298.892 58.0671C308.125 63.1605 309.26 70.8272 310.337 81.2591C311.951 94.0237 318.846 149.778 320.608 165.036C321.308 171.342 325.291 206.737 324.669 219.954C324.328 227.208 320.53 229.423 313.124 232.087C290.809 239.527 165.338 269.774 104.635 278.895C93.9309 280.467 83.1756 282.298 77.2059 273.171C75.0299 269.166 73.6359 264.785 73.0982 260.259C66.1228 222.626 60.3025 190.507 57.5395 152.26C56.6207 140.889 56.3757 129.474 56.8058 118.074C57.6978 107.622 61.2658 99.224 70.0097 93.2789C77.6385 87.996 86.8818 85.3557 95.8331 83.3018C97.7397 82.8558 99.5014 82.5682 101.408 82.1288C101.261 81.3952 101.114 80.6615 100.962 80.0728C84.2772 83.4178 65.7481 88.2881 58.2642 103.265C53.5523 112.394 54.0272 124.093 54.3038 134.369C56.9552 155.527 52.4529 158.99 71.477 261.715Z" fill="#343A40"/>
<path d="M187.386 80.22C187.879 80.2592 188.376 80.1982 188.845 80.0407C189.315 79.8832 189.747 79.6325 190.117 79.3037C190.487 78.9748 190.787 78.5746 190.999 78.127C191.21 77.6793 191.329 77.1936 191.349 76.6989C191.357 75.9815 191.153 75.2777 190.761 74.6764C190.37 74.0751 189.809 73.6034 189.15 73.3208C188.49 73.0382 187.762 72.9574 187.056 73.0888C186.351 73.2201 185.701 73.5576 185.187 74.0585C184.695 74.4921 184.317 75.04 184.086 75.654C183.856 76.2681 183.78 76.9294 183.865 77.5797C184.059 78.3572 184.515 79.0441 185.157 79.5249C185.798 80.0057 186.585 80.2512 187.386 80.22Z" fill="#343A40"/>
<path d="M67.0841 108.684C66.4976 108.831 66.7897 109.712 67.3784 109.712C70.0188 109.266 72.5074 108.82 75.1545 108.539C78.107 108.093 150.845 96.0663 151.302 95.9526C150.263 95.6637 149.273 95.2186 148.368 94.6324C111.909 100.707 67.7085 108.684 67.0841 108.684Z" fill="#343A40"/>
<path d="M300.217 70.0958C300.801 69.9509 300.509 69.07 299.923 69.2172C299.7 69.2172 301.261 69.0187 292.147 70.5374C286.277 71.5632 280.408 72.2968 274.541 73.3249C266.176 74.7922 149.973 94.4519 147.919 94.8934C147.039 95.6271 146.16 96.5057 145.279 97.0944C145.504 97.0365 299.992 70.0958 300.217 70.0958Z" fill="#343A40"/>
<path d="M123.128 149.118C125.024 148.694 125.22 147.876 125.196 146.337C125.167 144.466 123.155 120.855 122.243 116.901C122.302 116.825 122.345 116.737 122.369 116.644C122.394 116.55 122.399 116.453 122.385 116.357C122.372 116.262 122.339 116.17 122.289 116.087C122.24 116.005 122.174 115.933 122.096 115.876C120.752 115.507 119.333 115.507 117.988 115.876C112.739 116.4 76.1089 122.581 74.2647 122.918C74.1775 122.957 74.1027 123.019 74.0484 123.098C73.9941 123.176 73.9625 123.268 73.957 123.364C73.8968 123.944 73.6782 126 73.6782 127.315C73.6782 132.036 75.4622 153.072 76.0242 154.744C76.2472 155.389 76.5215 155.826 76.9162 155.922C79.9267 156.602 117.391 150.398 123.128 149.118ZM74.9984 124.091C86.3246 123.261 98.0677 121.002 121.509 117.488C121.322 122.514 123.494 146.333 123.711 146.98C123.488 146.98 78.1672 154.116 77.9331 154.169C77.9331 153.875 78.0802 153.723 78.0802 153.435C78.0802 145.876 75.9907 126.109 74.9984 124.091Z" fill="#343A40"/>
<path d="M124.002 191.29C125.857 191.058 127.679 190.616 129.432 189.969C129.523 189.946 129.608 189.904 129.681 189.846C129.754 189.787 129.813 189.714 129.855 189.63C129.898 189.547 129.922 189.455 129.926 189.362C129.93 189.269 129.913 189.175 129.878 189.089C129.878 188.866 129.932 185.581 129.807 184.272C129.299 178.909 128.023 167.993 127.238 162.532C126.944 160.625 126.944 158.716 126.652 156.957C126.504 156.223 125.184 156.076 125.037 156.809C122.278 156.964 119.532 157.307 116.82 157.837C88.2265 163.036 80.1807 164.338 77.9261 165.103C77.613 165.206 77.3355 165.396 77.1259 165.651C76.9163 165.905 76.7832 166.214 76.742 166.541C75.9504 170.238 79.7837 199.144 80.0067 199.648C80.475 200.698 80.8408 200.424 81.7528 200.239C94.388 197.681 107.255 194.334 124.002 191.29ZM79.8484 183.072C77.8726 169.193 77.6942 167.574 77.5024 166.494C82.1966 166.024 91.0207 164.396 95.842 163.56C119.163 159.51 121.772 158.919 124.453 158.13C125.247 168.412 126.567 178.647 128.409 188.794C125.546 188.794 118.519 190.487 110.069 192.023C93.0188 195.591 84.4757 197.939 81.4585 198.626C81.454 197.083 80.2409 185.826 79.8395 183.072H79.8484Z" fill="#343A40"/>
<path d="M90.8446 208.748C91.5872 215.438 91.3485 214.323 92.4591 222.102C95.173 240.648 95.6926 245.095 96.2724 245.869C96.3259 245.993 96.4112 246.1 96.5196 246.18C96.628 246.261 96.7557 246.311 96.8898 246.326C97.0238 246.341 97.1594 246.32 97.2828 246.265C97.4062 246.211 97.5131 246.125 97.5925 246.016C102.03 245.646 117.279 242.671 122.096 241.614C123.547 241.356 124.972 240.963 126.351 240.441C127.898 240.956 127.243 236.815 127.084 235.312C126.719 231.641 126.228 226.504 125.617 222.842C122.941 205.2 122.662 202.959 121.949 200.542C121.992 200.446 122.015 200.342 122.015 200.236C122.016 200.131 121.995 200.026 121.953 199.929C121.911 199.833 121.849 199.746 121.771 199.674C121.694 199.603 121.602 199.548 121.503 199.514C120.427 199.343 119.329 199.394 118.274 199.661C115.671 199.951 100.476 202.75 97.733 203.182C95.3692 203.474 93.0522 204.066 90.8379 204.944C90.7348 204.995 90.644 205.068 90.5717 205.157C90.4995 205.247 90.4476 205.351 90.4196 205.462C90.3916 205.574 90.3882 205.69 90.4096 205.803C90.431 205.916 90.4767 206.023 90.5435 206.117C90.7875 206.972 90.8892 207.861 90.8446 208.748ZM98.3262 205.08C101.116 204.634 103.901 204.054 106.691 203.615C114.824 202.33 121.293 200.939 121.07 200.972C121.07 208.708 123.325 217.434 124.736 229.436C124.758 229.659 125.72 238.456 125.764 238.679C124.667 238.732 123.582 238.93 122.537 239.268C100.286 243.728 101.825 243.345 98.1813 244.257C98.1813 243.637 93.1102 211.418 92.6063 208.895C92.4613 207.87 92.1603 206.989 92.0198 205.961C94.1466 205.884 96.2599 205.589 98.3262 205.08Z" fill="#343A40"/>
<path d="M137.356 255.846C137.148 252.916 137.209 249.979 136.769 247.191C136.647 246.705 136.114 246.522 135.431 246.489C134.448 246.446 94.0359 253.955 91.1347 255.409C90.9829 255.325 90.8119 255.283 90.6387 255.286C90.4656 255.29 90.2963 255.338 90.1478 255.427C89.9992 255.517 89.8767 255.643 89.7924 255.794C89.7081 255.946 89.665 256.116 89.6673 256.29C90.1918 261.867 91.0737 267.405 92.3076 272.87C92.3365 272.957 92.3964 273.031 92.476 273.077C92.5556 273.124 92.6494 273.139 92.7397 273.121C92.83 273.103 92.9106 273.053 92.9661 272.979C93.0217 272.906 93.0485 272.814 93.0413 272.723C93.0413 269.378 91.7524 256.807 91.7212 256.582C94.5373 256.273 97.3306 255.783 100.084 255.114C105.975 253.999 133.612 249.316 135.15 248.661C135.153 251.21 135.302 253.757 135.596 256.29C136.21 263.024 136.236 263.729 136.772 264.799C136.83 264.892 136.914 264.965 137.014 265.011C137.113 265.056 137.224 265.072 137.332 265.057C137.44 265.041 137.542 264.995 137.624 264.923C137.707 264.851 137.767 264.757 137.797 264.652C138.221 262.717 137.744 261.363 137.356 255.846Z" fill="#343A40"/>
<path d="M108.011 223.274C106.397 226.209 101.85 234.719 101.116 236.039C100.412 237.151 99.8223 238.33 99.3543 239.56C99.3213 239.708 99.335 239.863 99.3936 240.003C99.4522 240.143 99.5527 240.261 99.6814 240.342C99.81 240.422 99.9605 240.461 100.112 240.452C100.263 240.444 100.409 240.388 100.527 240.294C101.341 239.319 109.189 225.023 109.331 224.595C109.554 224.804 120.896 235.731 122.39 236.478C122.534 236.545 122.695 236.567 122.851 236.539C123.007 236.512 123.151 236.437 123.263 236.325C123.375 236.213 123.45 236.069 123.477 235.913C123.504 235.757 123.483 235.596 123.416 235.453C123.035 234.817 110.888 223.141 110.359 222.688C114.699 214.584 118.285 208.374 119.161 205.963C119.456 204.937 117.988 204.348 117.549 205.229C115.64 208.603 110.065 219.461 109.037 221.37C104.131 216.721 96.9481 209.455 95.5388 208.751C95.4369 208.72 95.3285 208.717 95.2253 208.743C95.122 208.769 95.0277 208.823 94.9525 208.898C94.8772 208.973 94.8237 209.067 94.7978 209.171C94.7718 209.274 94.7744 209.382 94.8051 209.484C95.0995 210.363 106.838 222.101 108.011 223.274Z" fill="#2271B1"/>
<path d="M81.1597 168.557C82.4323 169.65 83.8679 170.538 85.4146 171.188C89.5155 173.149 101.321 178.278 101.555 178.378C97.887 182.046 87.9099 191.582 86.5898 192.61C82.3528 196.144 84.4958 197.197 87.3234 194.371C88.3492 193.491 101.847 180.726 103.462 179.112C109.896 181.902 116.352 184.641 122.83 187.327C125.981 188.904 126.783 187.472 123.858 186.007C117.107 182.633 107.819 178.942 104.929 177.497C119.032 163.959 117.277 165.297 121.949 160.625C122.243 160.331 121.801 159.597 121.362 159.891C114.893 165.066 108.721 170.601 102.875 176.471C91.3664 171.539 84.5783 168.046 82.1699 167.328C81.0906 167.021 80.8765 167.698 81.1597 168.557Z" fill="#2271B1"/>
<path d="M79.9868 127.612C81.6816 128.604 94.5174 134.643 97.4477 135.974C93.6321 139.203 82.0406 149.033 80.1339 150.94C80.0109 151.067 79.9372 151.234 79.9261 151.41C79.915 151.587 79.9673 151.761 80.0735 151.903C80.1796 152.044 80.3328 152.143 80.5053 152.181C80.6779 152.22 80.8585 152.196 81.0148 152.113C82.9529 150.923 84.7707 149.547 86.4426 148.005C89.2301 145.659 97.887 138.323 99.5015 137.002C101.656 138.08 113.493 143.619 120.285 145.922C120.773 146.085 121.121 145.664 120.553 145.285C117.134 143.019 101.339 135.653 101.116 135.542C105.076 132.166 117.841 120.721 118.733 119.988C119.179 119.542 118.586 118.815 118.147 119.109C111.987 122.913 106.887 128.125 99.2183 134.514C98.9953 134.407 81.3604 126.165 79.1171 125.418C78.5306 125.27 78.2384 126.004 78.5306 126.443C78.9202 126.939 79.4184 127.339 79.9868 127.612Z" fill="#2271B1"/>
<path d="M131.926 250.124C130.595 250.784 129.36 251.623 128.257 252.619C126.645 253.792 116.96 260.982 113.881 263.477C111.825 262.743 102.731 259.954 100.38 259.075C98.4735 258.486 96.714 257.755 94.6602 257.313C94.4944 257.277 94.3211 257.299 94.1697 257.376C94.0182 257.452 93.8978 257.579 93.8286 257.734C93.7595 257.889 93.7459 258.063 93.7902 258.227C93.8344 258.391 93.9337 258.534 94.0715 258.633C96.2881 260.248 110.009 264.489 111.825 264.944C110.932 265.664 110.143 266.503 109.479 267.437C109.184 267.732 109.771 268.171 110.065 268.024C111.429 267.319 112.752 266.536 114.026 265.678C115.934 266.264 117.694 266.557 119.601 266.998C119.718 267.048 119.849 267.052 119.969 267.008C120.089 266.964 120.187 266.876 120.244 266.762C120.301 266.648 120.312 266.517 120.275 266.395C120.239 266.273 120.157 266.17 120.047 266.106C118.746 265.371 117.368 264.78 115.939 264.344C116.777 263.646 131.518 253.136 132.811 251.288C132.869 251.151 132.889 251.002 132.871 250.854C132.852 250.707 132.795 250.567 132.706 250.449C132.616 250.331 132.496 250.239 132.359 250.182C132.222 250.125 132.073 250.105 131.926 250.124Z" fill="#2271B1"/>
<path d="M155.256 316.002C153.347 316.736 145.571 319.376 143.517 320.11C144.837 320.699 149.538 322.9 150.56 323.339C154.375 322.019 158.336 320.844 162.156 319.524C160.978 318.937 156.284 316.589 155.256 316.002Z" fill="#2271B1"/>
<path d="M168.607 311.453C165.086 312.773 161.418 313.949 157.903 315.269C158.929 315.855 163.772 318.203 165.093 318.79C168.614 317.617 172.135 316.442 175.656 315.416C173.156 313.953 170.955 312.773 168.607 311.453Z" fill="#2271B1"/>
<path d="M178.29 316.736C174.768 317.911 171.247 318.937 167.726 320.11C170.221 321.285 176.969 324.657 177.85 325.099C181.371 324.073 184.745 322.9 188.267 321.872C188.267 321.725 180.198 317.617 178.29 316.736Z" fill="#2271B1"/>
<path d="M141.024 319.082C144.913 317.648 148.826 316.277 152.761 314.972C152.315 314.827 145.718 311.304 145.571 311.159C141.316 312.479 132.807 315.266 132.659 315.266C133.092 315.416 140.29 318.636 141.024 319.082Z" fill="#2271B1"/>
<path d="M150.56 325.549C149.092 325.995 138.676 329.217 138.089 329.362C140.143 330.096 142.197 330.83 144.398 331.563C150.508 333.309 153.931 331.748 160.537 330.096C160.392 330.087 152.174 326.274 150.56 325.549Z" fill="#2271B1"/>
<path d="M147.772 324.211C147.326 324.066 142.784 321.865 140.877 320.984C139.849 321.279 128.552 325.239 128.552 325.239C129.725 325.828 134.573 327.879 135.741 328.466C136.033 328.328 147.478 324.367 147.772 324.211Z" fill="#2271B1"/>
<path d="M155.392 313.953C159.06 312.633 162.582 311.311 166.25 310.138C164.334 309.137 162.517 307.958 160.822 306.616C160.236 306.766 151.726 309.257 148.058 310.432C148.359 310.575 154.667 313.654 155.392 313.953Z" fill="#2271B1"/>
<path d="M164.939 320.991C162.738 321.725 155.109 324.073 153.494 324.659C154.522 325.105 163.032 328.769 163.913 329.208C165.967 328.62 173.448 326.419 175.063 325.979C174.035 325.549 167.434 322.166 164.939 320.991Z" fill="#2271B1"/>
<path d="M194.283 311.6C190.323 312.921 181.666 315.71 181.224 315.71C182.545 316.297 190.615 320.393 191.349 320.699C193.844 319.965 196.19 319.084 198.685 318.351C197.657 317.178 194.863 312.481 194.283 311.6Z" fill="#2271B1"/>
<path d="M184.605 305.733C182.551 306.467 171.696 310.28 171.107 310.427C173.016 311.453 177.857 313.949 178.444 314.243C183.285 312.776 187.981 311.161 192.823 309.694C192.377 309.252 187.094 305.733 184.605 305.733Z" fill="#2271B1"/>
<path d="M168.754 309.252C170.514 308.668 172.128 308.079 173.883 307.493C172.724 306.578 171.773 305.427 171.094 304.116C168.387 304.734 165.697 305.419 163.025 306.173C164.939 307.051 168.754 309.252 168.754 309.252Z" fill="#2271B1"/>
<path d="M138.529 319.974C138.234 319.825 131.192 316.598 130.313 316.011C127.521 317.059 123.563 317.554 123.563 320.266C123.563 322.026 125.617 323.348 126.937 324.227C127.517 323.926 136.328 320.699 138.529 319.974Z" fill="#2271B1"/>
<path d="M263.547 260.982C259.684 261.636 255.862 262.518 252.103 263.622C249.168 264.797 244.766 267.143 246.233 270.959C247.114 273.16 249.607 273.746 251.808 274.04C256.792 274.87 261.174 273.186 267.36 276.094C268.683 276.828 269.709 274.774 268.536 274.188C261.663 270.586 251.971 274.299 248.582 270.666C247.114 269.052 249.902 267.29 251.222 266.557C259.04 262.346 271.107 263.571 272.79 257.313C272.957 256.251 272.738 255.164 272.173 254.248C271.608 253.333 270.733 252.651 269.709 252.325C267.481 251.205 265.012 250.65 262.519 250.71C262.401 250.71 262.287 250.757 262.204 250.841C262.12 250.924 262.073 251.038 262.073 251.156C262.073 251.274 262.12 251.388 262.204 251.472C262.287 251.555 262.401 251.602 262.519 251.602C264.867 251.749 270.295 253.217 270.737 256.004C271.276 259.298 264.412 260.544 263.547 260.982Z" fill="#343A40"/>
<path d="M385.99 149.582C385.223 149.359 383.983 149.172 384.219 148.344C384.266 148.187 384.368 148.052 384.507 147.963C384.645 147.875 384.811 147.839 384.973 147.863C385.836 147.911 386.698 147.746 387.483 147.382C388.267 147.019 388.95 146.468 389.471 145.778C391.512 143.793 390.642 149.615 385.99 149.58V149.582Z" fill="#343A40"/>
</g>
<defs>
<clipPath id="clip0_45_1780">
<rect width="532" height="400" fill="white"/>
</clipPath>
</defs>
</svg>
