<svg viewBox="0 0 300 52" xmlns="http://www.w3.org/2000/svg" fill-rule="evenodd" clip-rule="evenodd" stroke-linejoin="round" stroke-miterlimit="2"><path d="M0.555,-0.212c0,0.047 -0.012,0.087 -0.037,0.122c-0.025,0.034 -0.06,0.06 -0.105,0.077c-0.045,0.017 -0.099,0.025 -0.162,0.025c-0.073,0 -0.14,-0.012 -0.201,-0.037l0,-0.192c0.029,0.022 0.061,0.039 0.097,0.052c0.035,0.013 0.068,0.02 0.099,0.02c0.023,0 0.041,-0.004 0.054,-0.012c0.013,-0.009 0.019,-0.021 0.019,-0.037c0,-0.011 -0.003,-0.021 -0.01,-0.03c-0.006,-0.009 -0.016,-0.017 -0.028,-0.024c-0.013,-0.008 -0.037,-0.018 -0.072,-0.031c-0.113,-0.043 -0.169,-0.113 -0.169,-0.21c0,-0.067 0.026,-0.122 0.077,-0.162c0.052,-0.041 0.121,-0.061 0.207,-0.061c0.025,0 0.047,0.001 0.068,0.003c0.02,0.002 0.039,0.004 0.056,0.007c0.016,0.003 0.04,0.009 0.07,0.017l0,0.178c-0.059,-0.032 -0.117,-0.048 -0.174,-0.048c-0.023,0 -0.042,0.004 -0.056,0.013c-0.015,0.009 -0.022,0.021 -0.022,0.036c0,0.015 0.006,0.027 0.017,0.037c0.012,0.009 0.036,0.022 0.073,0.037c0.073,0.029 0.124,0.061 0.154,0.096c0.03,0.035 0.045,0.076 0.045,0.124Z" fill="#2794da" fill-rule="nonzero" transform="matrix(37.8505 0 0 37.8505 114.537 50.892)"/><path d="M0.508,0l-0.031,-0.129l-0.209,0l-0.033,0.129l-0.228,0l0.241,-0.7l0.262,0l0.227,0.7l-0.229,0Zm-0.133,-0.548l-0.005,0c-0.001,0.008 -0.003,0.021 -0.007,0.039c-0.004,0.018 -0.023,0.094 -0.059,0.23l0.134,0l-0.049,-0.19c-0.007,-0.028 -0.011,-0.054 -0.014,-0.079Z" fill="#2794da" fill-rule="nonzero" transform="matrix(37.8505 0 0 37.8505 136.18 50.892)"/><path d="M0.468,0l-0.237,0l-0.226,-0.7l0.227,0l0.107,0.431c0.008,0.035 0.013,0.061 0.014,0.078l0.005,0c0.002,-0.022 0.007,-0.049 0.015,-0.081l0.104,-0.428l0.22,0l-0.229,0.7Z" fill="#2794da" fill-rule="nonzero" transform="matrix(37.8505 0 0 37.8505 164.567 50.892)"/><path d="M0.069,0l0,-0.7l0.436,0l0,0.165l-0.225,0l0,0.102l0.211,0l0,0.165l-0.211,0l0,0.103l0.241,0l0,0.165l-0.452,0Z" fill="#2794da" fill-rule="nonzero" transform="matrix(37.8505 0 0 37.8505 191.144 50.892)"/><path d="M0.044,0l0,-0.056c0,-0.04 0.005,-0.074 0.015,-0.104c0.009,-0.029 0.025,-0.056 0.046,-0.082c0.021,-0.026 0.057,-0.059 0.109,-0.099c0.037,-0.03 0.062,-0.051 0.074,-0.064c0.013,-0.012 0.022,-0.025 0.028,-0.037c0.006,-0.012 0.009,-0.025 0.009,-0.039c0,-0.047 -0.028,-0.07 -0.084,-0.07c-0.057,0 -0.111,0.021 -0.162,0.062l0,-0.17c0.039,-0.02 0.075,-0.033 0.109,-0.041c0.033,-0.008 0.068,-0.012 0.104,-0.012c0.076,0 0.135,0.018 0.176,0.055c0.042,0.036 0.063,0.087 0.063,0.153c0,0.051 -0.011,0.093 -0.033,0.129c-0.022,0.035 -0.062,0.071 -0.122,0.109c-0.045,0.03 -0.075,0.051 -0.09,0.065c-0.014,0.013 -0.022,0.025 -0.022,0.034l0.273,0l0,0.167l-0.493,0Z" fill="#2794da" fill-rule="nonzero" transform="matrix(37.8505 0 0 37.8505 222.544 50.892)"/><path d="M0.532,-0.237c0,0.048 -0.011,0.091 -0.034,0.129c-0.022,0.038 -0.055,0.067 -0.098,0.088c-0.042,0.022 -0.093,0.032 -0.15,0.032c-0.033,0 -0.066,-0.003 -0.101,-0.008c-0.035,-0.006 -0.064,-0.013 -0.086,-0.021l0,-0.162c0.048,0.026 0.1,0.039 0.154,0.039c0.036,0 0.063,-0.007 0.082,-0.02c0.018,-0.013 0.027,-0.031 0.027,-0.055c0,-0.051 -0.042,-0.077 -0.128,-0.077c-0.042,0 -0.082,0.004 -0.118,0.012l0.026,-0.42l0.395,0l0,0.162l-0.234,0l-0.007,0.098c0.019,-0.002 0.037,-0.003 0.053,-0.003c0.069,0 0.122,0.019 0.161,0.056c0.039,0.036 0.058,0.087 0.058,0.15Z" fill="#2794da" fill-rule="nonzero" transform="matrix(37.8505 0 0 37.8505 245.22 50.892)"/><path d="M0.848,-0.179c0,0.057 -0.017,0.103 -0.05,0.137c-0.034,0.035 -0.079,0.052 -0.136,0.052c-0.053,0 -0.095,-0.016 -0.127,-0.049c-0.031,-0.032 -0.047,-0.074 -0.047,-0.127c0,-0.058 0.017,-0.104 0.051,-0.138c0.033,-0.034 0.079,-0.051 0.135,-0.051c0.054,0 0.096,0.015 0.128,0.046c0.031,0.031 0.046,0.074 0.046,0.13Zm-0.128,0.006c0,-0.023 -0.004,-0.041 -0.013,-0.054c-0.009,-0.013 -0.021,-0.02 -0.036,-0.02c-0.017,0 -0.03,0.007 -0.039,0.021c-0.009,0.014 -0.014,0.032 -0.014,0.056c0,0.023 0.004,0.04 0.013,0.053c0.008,0.013 0.02,0.019 0.037,0.019c0.017,0 0.03,-0.007 0.039,-0.02c0.009,-0.013 0.013,-0.031 0.013,-0.055Zm-0.418,0.173l-0.154,0l0.45,-0.7l0.154,0l-0.45,0.7Zm0.107,-0.533c0,0.058 -0.017,0.104 -0.05,0.138c-0.034,0.034 -0.079,0.051 -0.135,0.051c-0.053,0 -0.095,-0.016 -0.127,-0.049c-0.031,-0.032 -0.047,-0.074 -0.047,-0.127c0,-0.057 0.016,-0.103 0.049,-0.138c0.033,-0.035 0.079,-0.052 0.136,-0.052c0.054,0 0.096,0.016 0.128,0.047c0.031,0.032 0.046,0.075 0.046,0.13Zm-0.128,0.005c0,-0.022 -0.004,-0.04 -0.013,-0.053c-0.008,-0.013 -0.02,-0.02 -0.035,-0.02c-0.017,0 -0.03,0.007 -0.039,0.021c-0.009,0.014 -0.014,0.032 -0.014,0.056c0,0.023 0.004,0.04 0.013,0.053c0.008,0.013 0.02,0.019 0.037,0.019c0.016,0 0.029,-0.007 0.038,-0.02c0.008,-0.013 0.013,-0.031 0.013,-0.056Z" fill="#2794da" fill-rule="nonzero" transform="matrix(37.8505 0 0 37.8505 267.898 50.892)"/><g><path d="M0.555,-0.212c0,0.047 -0.012,0.087 -0.037,0.122c-0.025,0.034 -0.06,0.06 -0.105,0.077c-0.045,0.017 -0.099,0.025 -0.162,0.025c-0.073,0 -0.14,-0.012 -0.201,-0.037l0,-0.192c0.029,0.022 0.061,0.039 0.097,0.052c0.035,0.013 0.068,0.02 0.099,0.02c0.023,0 0.041,-0.004 0.054,-0.012c0.013,-0.009 0.019,-0.021 0.019,-0.037c0,-0.011 -0.003,-0.021 -0.01,-0.03c-0.006,-0.009 -0.016,-0.017 -0.028,-0.024c-0.013,-0.008 -0.037,-0.018 -0.072,-0.031c-0.113,-0.043 -0.169,-0.113 -0.169,-0.21c0,-0.067 0.026,-0.122 0.077,-0.162c0.052,-0.041 0.121,-0.061 0.207,-0.061c0.025,0 0.047,0.001 0.068,0.003c0.02,0.002 0.039,0.004 0.056,0.007c0.016,0.003 0.04,0.009 0.07,0.017l0,0.178c-0.059,-0.032 -0.117,-0.048 -0.174,-0.048c-0.023,0 -0.042,0.004 -0.056,0.013c-0.015,0.009 -0.022,0.021 -0.022,0.036c0,0.015 0.006,0.027 0.017,0.037c0.012,0.009 0.036,0.022 0.073,0.037c0.073,0.029 0.124,0.061 0.154,0.096c0.03,0.035 0.045,0.076 0.045,0.124Z" fill="#fff" fill-rule="nonzero" transform="matrix(37.8505 0 0 37.8505 -1.232 50.892)"/><path d="M0.508,0l-0.031,-0.129l-0.209,0l-0.033,0.129l-0.228,0l0.241,-0.7l0.262,0l0.227,0.7l-0.229,0Zm-0.133,-0.548l-0.005,0c-0.001,0.008 -0.003,0.021 -0.007,0.039c-0.004,0.018 -0.023,0.094 -0.059,0.23l0.134,0l-0.049,-0.19c-0.007,-0.028 -0.011,-0.054 -0.014,-0.079Z" fill="#fff" fill-rule="nonzero" transform="matrix(37.8505 0 0 37.8505 20.41 50.892)"/><path d="M0.069,0l0,-0.7l0.211,0l0,0.535l0.241,0l0,0.165l-0.452,0Z" fill="#fff" fill-rule="nonzero" transform="matrix(37.8505 0 0 37.8505 48.798 50.892)"/><path d="M0.069,0l0,-0.7l0.436,0l0,0.165l-0.225,0l0,0.102l0.211,0l0,0.165l-0.211,0l0,0.103l0.241,0l0,0.165l-0.452,0Z" fill="#fff" fill-rule="nonzero" transform="matrix(37.8505 0 0 37.8505 69.275 50.892)"/><path d="M0.265,-0.236l-0.167,0l-0.026,-0.464l0.219,0l-0.026,0.464Zm0.034,0.149c0,0.029 -0.011,0.053 -0.032,0.071c-0.021,0.019 -0.049,0.028 -0.084,0.028c-0.034,0 -0.062,-0.009 -0.084,-0.028c-0.021,-0.019 -0.032,-0.043 -0.032,-0.071c0,-0.029 0.01,-0.052 0.031,-0.069c0.021,-0.018 0.05,-0.027 0.085,-0.027c0.035,0 0.063,0.009 0.084,0.027c0.021,0.017 0.032,0.04 0.032,0.069Z" fill="#fff" fill-rule="nonzero" transform="matrix(37.8505 0 0 37.8505 90.16 50.892)"/></g><g><path d="M0.667,-0.215c0,0.069 -0.024,0.122 -0.072,0.159c-0.048,0.037 -0.117,0.056 -0.207,0.056l-0.319,0l0,-0.7l0.297,0c0.186,0 0.279,0.056 0.279,0.169c0,0.025 -0.006,0.047 -0.018,0.067c-0.011,0.021 -0.029,0.039 -0.053,0.054c-0.024,0.015 -0.05,0.026 -0.079,0.031l0,0.002c0.033,0.004 0.063,0.014 0.089,0.03c0.027,0.015 0.047,0.035 0.062,0.059c0.014,0.023 0.021,0.048 0.021,0.073Zm-0.246,-0.279c0,-0.043 -0.034,-0.065 -0.102,-0.065l-0.039,0l0,0.132l0.061,0c0.023,0 0.042,-0.006 0.057,-0.019c0.015,-0.012 0.023,-0.028 0.023,-0.048Zm0.022,0.278c0,-0.02 -0.007,-0.037 -0.022,-0.05c-0.015,-0.013 -0.034,-0.019 -0.058,-0.019l-0.083,0l0,0.143l0.07,0c0.029,0 0.051,-0.007 0.068,-0.02c0.017,-0.013 0.025,-0.031 0.025,-0.054Z" fill="#fff" fill-rule="nonzero" transform="matrix(17.92028 0 0 17.92028 -1.234 12.758)"/><path d="M0.069,0l0,-0.7l0.211,0l0,0.535l0.241,0l0,0.165l-0.452,0Z" fill="#fff" fill-rule="nonzero" transform="matrix(17.92028 0 0 17.92028 11.148 12.758)"/><path d="M0.508,0l-0.031,-0.129l-0.209,0l-0.033,0.129l-0.228,0l0.241,-0.7l0.262,0l0.227,0.7l-0.229,0Zm-0.133,-0.548l-0.005,0c-0.001,0.008 -0.003,0.021 -0.007,0.039c-0.004,0.018 -0.023,0.094 -0.059,0.23l0.134,0l-0.049,-0.19c-0.007,-0.028 -0.011,-0.054 -0.014,-0.079Z" fill="#fff" fill-rule="nonzero" transform="matrix(17.92028 0 0 17.92028 20.843 12.758)"/><path d="M0.59,-0.019c-0.058,0.021 -0.125,0.031 -0.201,0.031c-0.074,0 -0.139,-0.014 -0.193,-0.043c-0.054,-0.028 -0.095,-0.069 -0.123,-0.121c-0.029,-0.053 -0.043,-0.113 -0.043,-0.182c0,-0.074 0.016,-0.14 0.048,-0.197c0.032,-0.058 0.077,-0.102 0.135,-0.134c0.058,-0.031 0.125,-0.047 0.201,-0.047c0.061,0 0.119,0.007 0.176,0.022l0,0.195c-0.02,-0.012 -0.043,-0.021 -0.07,-0.027c-0.027,-0.007 -0.054,-0.01 -0.082,-0.01c-0.057,0 -0.102,0.016 -0.136,0.049c-0.033,0.033 -0.049,0.078 -0.049,0.134c0,0.056 0.016,0.1 0.049,0.132c0.034,0.033 0.078,0.049 0.133,0.049c0.051,0 0.103,-0.013 0.155,-0.039l0,0.188Z" fill="#fff" fill-rule="nonzero" transform="matrix(17.92028 0 0 17.92028 34.283 12.758)"/><path d="M0.456,0l-0.155,-0.296c-0.011,-0.023 -0.017,-0.039 -0.019,-0.048l-0.002,0l0,0.344l-0.211,0l0,-0.7l0.211,0l0,0.333l0.002,0c0.006,-0.018 0.013,-0.034 0.021,-0.049l0.14,-0.284l0.25,0l-0.199,0.334l0.218,0.366l-0.256,0Z" fill="#fff" fill-rule="nonzero" transform="matrix(17.92028 0 0 17.92028 45.57 12.758)"/><path d="M0.28,-0.535l0,0.126l0.208,0l0,0.165l-0.208,0l0,0.244l-0.211,0l0,-0.7l0.439,0l0,0.165l-0.228,0Z" fill="#fff" fill-rule="nonzero" transform="matrix(17.92028 0 0 17.92028 62.913 12.758)"/><path d="M0.432,0l-0.052,-0.151c-0.01,-0.03 -0.023,-0.053 -0.039,-0.07c-0.017,-0.017 -0.034,-0.025 -0.053,-0.025l-0.008,0l0,0.246l-0.211,0l0,-0.7l0.28,0c0.098,0 0.17,0.016 0.217,0.048c0.047,0.032 0.07,0.08 0.07,0.144c0,0.048 -0.013,0.089 -0.041,0.121c-0.027,0.033 -0.067,0.056 -0.121,0.071l0,0.002c0.03,0.009 0.054,0.024 0.074,0.044c0.02,0.021 0.037,0.051 0.053,0.092l0.069,0.178l-0.238,0Zm-0.02,-0.478c0,-0.023 -0.007,-0.042 -0.021,-0.056c-0.015,-0.013 -0.037,-0.02 -0.068,-0.02l-0.043,0l0,0.16l0.038,0c0.028,0 0.051,-0.008 0.068,-0.024c0.017,-0.016 0.026,-0.036 0.026,-0.06Z" fill="#fff" fill-rule="nonzero" transform="matrix(17.92028 0 0 17.92028 72.609 12.758)"/><path fill="#fff" fill-rule="nonzero" d="M0.069 -0.7H0.28V0H0.069z" transform="matrix(17.92028 0 0 17.92028 84.833 12.758)"/><path d="M0.729,-0.359c0,0.071 -0.015,0.134 -0.045,0.188c-0.029,0.055 -0.072,0.097 -0.127,0.127c-0.056,0.029 -0.119,0.044 -0.192,0.044l-0.296,0l0,-0.7l0.29,0c0.247,0 0.37,0.114 0.37,0.341Zm-0.224,0.002c0,-0.034 -0.007,-0.065 -0.021,-0.092c-0.014,-0.028 -0.033,-0.049 -0.059,-0.064c-0.026,-0.015 -0.056,-0.022 -0.091,-0.022l-0.054,0l0,0.37l0.059,0c0.05,0 0.091,-0.017 0.121,-0.052c0.03,-0.035 0.045,-0.081 0.045,-0.14Z" fill="#fff" fill-rule="nonzero" transform="matrix(17.92028 0 0 17.92028 91.08 12.758)"/><path d="M0.508,0l-0.031,-0.129l-0.209,0l-0.033,0.129l-0.228,0l0.241,-0.7l0.262,0l0.227,0.7l-0.229,0Zm-0.133,-0.548l-0.005,0c-0.001,0.008 -0.003,0.021 -0.007,0.039c-0.004,0.018 -0.023,0.094 -0.059,0.23l0.134,0l-0.049,-0.19c-0.007,-0.028 -0.011,-0.054 -0.014,-0.079Z" fill="#fff" fill-rule="nonzero" transform="matrix(17.92028 0 0 17.92028 104.678 12.758)"/><path d="M0.427,-0.243l0,0.243l-0.211,0l0,-0.24l-0.216,-0.46l0.242,0l0.076,0.22c0.005,0.015 0.009,0.028 0.011,0.039c0.002,0.011 0.004,0.022 0.007,0.034l0.002,0c0.004,-0.03 0.009,-0.053 0.014,-0.069l0.075,-0.224l0.223,0l-0.223,0.457Z" fill="#fff" fill-rule="nonzero" transform="matrix(17.92028 0 0 17.92028 118.119 12.758)"/><path d="M0.528,0.001l-0.041,-0.048c-0.022,0.017 -0.053,0.031 -0.092,0.042c-0.039,0.012 -0.077,0.017 -0.113,0.017c-0.08,0 -0.142,-0.017 -0.186,-0.052c-0.044,-0.034 -0.066,-0.083 -0.066,-0.145c0,-0.037 0.013,-0.072 0.04,-0.106c0.027,-0.033 0.067,-0.063 0.122,-0.091c-0.047,-0.051 -0.07,-0.103 -0.07,-0.154c0,-0.052 0.02,-0.095 0.061,-0.127c0.041,-0.033 0.094,-0.049 0.16,-0.049c0.062,0 0.112,0.015 0.15,0.044c0.038,0.029 0.057,0.068 0.057,0.116c0,0.039 -0.011,0.072 -0.034,0.1c-0.022,0.028 -0.058,0.054 -0.107,0.076l0.1,0.113c0.014,-0.029 0.022,-0.069 0.022,-0.119l0.159,0c0,0.047 -0.007,0.09 -0.02,0.127c-0.013,0.038 -0.035,0.072 -0.065,0.103l0.14,0.153l-0.217,0Zm-0.139,-0.542c0,-0.014 -0.005,-0.026 -0.015,-0.036c-0.01,-0.01 -0.022,-0.015 -0.036,-0.015c-0.016,0 -0.029,0.005 -0.039,0.013c-0.01,0.009 -0.015,0.021 -0.015,0.037c0,0.01 0.003,0.02 0.009,0.031c0.006,0.011 0.02,0.028 0.042,0.053c0.02,-0.012 0.034,-0.025 0.042,-0.038c0.008,-0.014 0.012,-0.028 0.012,-0.045Zm-0.124,0.244c-0.014,0.007 -0.025,0.018 -0.034,0.034c-0.01,0.016 -0.014,0.034 -0.014,0.054c0,0.028 0.009,0.05 0.027,0.067c0.019,0.016 0.041,0.025 0.068,0.025c0.017,0 0.033,-0.003 0.048,-0.008c0.016,-0.006 0.029,-0.013 0.039,-0.021l-0.134,-0.151Z" fill="#fff" fill-rule="nonzero" transform="matrix(17.92028 0 0 17.92028 134.743 12.758)"/><path d="M0.59,-0.019c-0.058,0.021 -0.125,0.031 -0.201,0.031c-0.074,0 -0.139,-0.014 -0.193,-0.043c-0.054,-0.028 -0.095,-0.069 -0.123,-0.121c-0.029,-0.053 -0.043,-0.113 -0.043,-0.182c0,-0.074 0.016,-0.14 0.048,-0.197c0.032,-0.058 0.077,-0.102 0.135,-0.134c0.058,-0.031 0.125,-0.047 0.201,-0.047c0.061,0 0.119,0.007 0.176,0.022l0,0.195c-0.02,-0.012 -0.043,-0.021 -0.07,-0.027c-0.027,-0.007 -0.054,-0.01 -0.082,-0.01c-0.057,0 -0.102,0.016 -0.136,0.049c-0.033,0.033 -0.049,0.078 -0.049,0.134c0,0.056 0.016,0.1 0.049,0.132c0.034,0.033 0.078,0.049 0.133,0.049c0.051,0 0.103,-0.013 0.155,-0.039l0,0.188Z" fill="#fff" fill-rule="nonzero" transform="matrix(17.92028 0 0 17.92028 152.962 12.758)"/><path d="M0.427,-0.243l0,0.243l-0.211,0l0,-0.24l-0.216,-0.46l0.242,0l0.076,0.22c0.005,0.015 0.009,0.028 0.011,0.039c0.002,0.011 0.004,0.022 0.007,0.034l0.002,0c0.004,-0.03 0.009,-0.053 0.014,-0.069l0.075,-0.224l0.223,0l-0.223,0.457Z" fill="#fff" fill-rule="nonzero" transform="matrix(17.92028 0 0 17.92028 164.25 12.758)"/><path d="M0.667,-0.215c0,0.069 -0.024,0.122 -0.072,0.159c-0.048,0.037 -0.117,0.056 -0.207,0.056l-0.319,0l0,-0.7l0.297,0c0.186,0 0.279,0.056 0.279,0.169c0,0.025 -0.006,0.047 -0.018,0.067c-0.011,0.021 -0.029,0.039 -0.053,0.054c-0.024,0.015 -0.05,0.026 -0.079,0.031l0,0.002c0.033,0.004 0.063,0.014 0.089,0.03c0.027,0.015 0.047,0.035 0.062,0.059c0.014,0.023 0.021,0.048 0.021,0.073Zm-0.246,-0.279c0,-0.043 -0.034,-0.065 -0.102,-0.065l-0.039,0l0,0.132l0.061,0c0.023,0 0.042,-0.006 0.057,-0.019c0.015,-0.012 0.023,-0.028 0.023,-0.048Zm0.022,0.278c0,-0.02 -0.007,-0.037 -0.022,-0.05c-0.015,-0.013 -0.034,-0.019 -0.058,-0.019l-0.083,0l0,0.143l0.07,0c0.029,0 0.051,-0.007 0.068,-0.02c0.017,-0.013 0.025,-0.031 0.025,-0.054Z" fill="#fff" fill-rule="nonzero" transform="matrix(17.92028 0 0 17.92028 175.896 12.758)"/><path d="M0.069,0l0,-0.7l0.436,0l0,0.165l-0.225,0l0,0.102l0.211,0l0,0.165l-0.211,0l0,0.103l0.241,0l0,0.165l-0.452,0Z" fill="#fff" fill-rule="nonzero" transform="matrix(17.92028 0 0 17.92028 188.277 12.758)"/><path d="M0.432,0l-0.052,-0.151c-0.01,-0.03 -0.023,-0.053 -0.039,-0.07c-0.017,-0.017 -0.034,-0.025 -0.053,-0.025l-0.008,0l0,0.246l-0.211,0l0,-0.7l0.28,0c0.098,0 0.17,0.016 0.217,0.048c0.047,0.032 0.07,0.08 0.07,0.144c0,0.048 -0.013,0.089 -0.041,0.121c-0.027,0.033 -0.067,0.056 -0.121,0.071l0,0.002c0.03,0.009 0.054,0.024 0.074,0.044c0.02,0.021 0.037,0.051 0.053,0.092l0.069,0.178l-0.238,0Zm-0.02,-0.478c0,-0.023 -0.007,-0.042 -0.021,-0.056c-0.015,-0.013 -0.037,-0.02 -0.068,-0.02l-0.043,0l0,0.16l0.038,0c0.028,0 0.051,-0.008 0.068,-0.024c0.017,-0.016 0.026,-0.036 0.026,-0.06Z" fill="#fff" fill-rule="nonzero" transform="matrix(17.92028 0 0 17.92028 198.164 12.758)"/><path d="M0.71,0l0,-0.384c0,-0.036 0.001,-0.076 0.003,-0.119l0.002,-0.032l-0.006,0c-0.01,0.055 -0.018,0.093 -0.024,0.114l-0.103,0.421l-0.198,0l-0.108,-0.416c-0.003,-0.01 -0.011,-0.05 -0.023,-0.119l-0.006,0c0.005,0.109 0.007,0.178 0.007,0.205l0,0.33l-0.185,0l0,-0.7l0.316,0l0.096,0.38c0.002,0.008 0.005,0.024 0.009,0.048c0.004,0.024 0.006,0.042 0.007,0.055l0.003,0c0.004,-0.029 0.009,-0.064 0.017,-0.105l0.09,-0.378l0.311,0l0,0.7l-0.208,0Z" fill="#fff" fill-rule="nonzero" transform="matrix(17.92028 0 0 17.92028 215.367 12.758)"/><path d="M0.735,-0.352c0,0.07 -0.015,0.133 -0.046,0.189c-0.03,0.055 -0.072,0.098 -0.126,0.129c-0.055,0.031 -0.116,0.046 -0.183,0.046c-0.066,0 -0.126,-0.015 -0.18,-0.044c-0.053,-0.03 -0.095,-0.072 -0.125,-0.126c-0.03,-0.054 -0.045,-0.115 -0.045,-0.183c0,-0.071 0.015,-0.135 0.045,-0.192c0.03,-0.057 0.073,-0.101 0.128,-0.132c0.054,-0.031 0.116,-0.047 0.186,-0.047c0.067,0 0.127,0.015 0.18,0.045c0.053,0.03 0.094,0.072 0.123,0.127c0.028,0.055 0.043,0.118 0.043,0.188Zm-0.224,0.006c0,-0.058 -0.011,-0.103 -0.033,-0.136c-0.022,-0.034 -0.052,-0.05 -0.091,-0.05c-0.042,0 -0.075,0.016 -0.098,0.048c-0.023,0.032 -0.035,0.077 -0.035,0.135c0,0.057 0.012,0.101 0.035,0.133c0.023,0.032 0.055,0.048 0.095,0.048c0.024,0 0.046,-0.007 0.066,-0.021c0.019,-0.015 0.034,-0.035 0.045,-0.062c0.011,-0.027 0.016,-0.058 0.016,-0.095Z" fill="#fff" fill-rule="nonzero" transform="matrix(17.92028 0 0 17.92028 233.051 12.758)"/><path d="M0.558,0l-0.247,-0.338c-0.019,-0.027 -0.035,-0.051 -0.048,-0.072l-0.002,0c0.002,0.034 0.003,0.073 0.003,0.116l0,0.294l-0.195,0l0,-0.7l0.199,0l0.237,0.321l0.023,0.033c0.005,0.006 0.009,0.013 0.012,0.018c0.004,0.006 0.007,0.011 0.009,0.016l0.002,0c-0.002,-0.014 -0.003,-0.039 -0.003,-0.074l0,-0.314l0.195,0l0,0.7l-0.185,0Z" fill="#fff" fill-rule="nonzero" transform="matrix(17.92028 0 0 17.92028 246.763 12.758)"/><path d="M0.729,-0.359c0,0.071 -0.015,0.134 -0.045,0.188c-0.029,0.055 -0.072,0.097 -0.127,0.127c-0.056,0.029 -0.119,0.044 -0.192,0.044l-0.296,0l0,-0.7l0.29,0c0.247,0 0.37,0.114 0.37,0.341Zm-0.224,0.002c0,-0.034 -0.007,-0.065 -0.021,-0.092c-0.014,-0.028 -0.033,-0.049 -0.059,-0.064c-0.026,-0.015 -0.056,-0.022 -0.091,-0.022l-0.054,0l0,0.37l0.059,0c0.05,0 0.091,-0.017 0.121,-0.052c0.03,-0.035 0.045,-0.081 0.045,-0.14Z" fill="#fff" fill-rule="nonzero" transform="matrix(17.92028 0 0 17.92028 261.314 12.758)"/><path d="M0.508,0l-0.031,-0.129l-0.209,0l-0.033,0.129l-0.228,0l0.241,-0.7l0.262,0l0.227,0.7l-0.229,0Zm-0.133,-0.548l-0.005,0c-0.001,0.008 -0.003,0.021 -0.007,0.039c-0.004,0.018 -0.023,0.094 -0.059,0.23l0.134,0l-0.049,-0.19c-0.007,-0.028 -0.011,-0.054 -0.014,-0.079Z" fill="#fff" fill-rule="nonzero" transform="matrix(17.92028 0 0 17.92028 274.913 12.758)"/><path d="M0.427,-0.243l0,0.243l-0.211,0l0,-0.24l-0.216,-0.46l0.242,0l0.076,0.22c0.005,0.015 0.009,0.028 0.011,0.039c0.002,0.011 0.004,0.022 0.007,0.034l0.002,0c0.004,-0.03 0.009,-0.053 0.014,-0.069l0.075,-0.224l0.223,0l-0.223,0.457Z" fill="#fff" fill-rule="nonzero" transform="matrix(17.92028 0 0 17.92028 288.352 12.758)"/></g></svg>