<svg viewBox="0 0 300 52" xmlns="http://www.w3.org/2000/svg" fill-rule="evenodd" clip-rule="evenodd" stroke-linejoin="round" stroke-miterlimit="2"><path d="M135.544 42.868c0 1.779-.454 3.293-1.4 4.617-.947 1.287-2.271 2.271-3.975 2.915-1.703.643-3.747.946-6.132.946-2.763 0-5.299-.454-7.607-1.4v-7.268c1.097.833 2.308 1.477 3.671 1.969 1.325.492 2.574.757 3.747.757.87 0 1.552-.152 2.044-.455.492-.34.72-.794.72-1.4 0-.416-.114-.795-.38-1.136-.226-.34-.605-.643-1.059-.908-.492-.303-1.4-.681-2.725-1.173-4.277-1.628-6.397-4.277-6.397-7.949 0-2.536.984-4.618 2.915-6.132 1.968-1.552 4.58-2.309 7.835-2.309.946 0 1.779.038 2.573.114.757.076 1.477.151 2.12.265.606.114 1.514.34 2.65.643v6.738c-2.234-1.211-4.429-1.817-6.586-1.817-.871 0-1.59.151-2.12.492-.568.34-.833.795-.833 1.363 0 .567.227 1.022.644 1.4.454.34 1.362.833 2.763 1.4 2.763 1.098 4.693 2.31 5.829 3.634 1.135 1.325 1.703 2.877 1.703 4.694zM155.408 50.892l-1.173-4.883h-7.911l-1.25 4.883h-8.629l9.122-26.495h9.917l8.592 26.495h-8.668zm-5.034-20.742h-.19c-.037.303-.113.795-.264 1.476-.152.681-.87 3.558-2.233 8.706h5.072l-1.855-7.192a23.777 23.777 0 0 1-.53-2.99zM182.281 50.892h-8.97l-8.555-26.495h8.592l4.05 16.313c.303 1.325.492 2.31.53 2.953h.19c.075-.833.264-1.855.567-3.066l3.937-16.2h8.327l-8.668 26.495zM193.756 50.892V24.397h16.503v6.245h-8.517v3.86h7.987v6.246h-7.987v3.899h9.122v6.245h-17.108zM224.21 50.892v-2.12c0-1.514.189-2.8.567-3.936.34-1.098.946-2.12 1.741-3.104.795-.984 2.158-2.233 4.126-3.747 1.4-1.136 2.347-1.93 2.8-2.422a4.884 4.884 0 0 0 1.06-1.4c.228-.455.341-.947.341-1.477 0-1.78-1.06-2.65-3.179-2.65-2.158 0-4.201.795-6.132 2.347V25.95c1.476-.757 2.839-1.25 4.126-1.552a16.733 16.733 0 0 1 3.936-.455c2.877 0 5.11.682 6.662 2.082 1.59 1.363 2.385 3.293 2.385 5.791 0 1.93-.417 3.52-1.25 4.883-.832 1.325-2.346 2.687-4.617 4.126-1.703 1.135-2.839 1.93-3.407 2.46-.53.492-.832.946-.832 1.287h10.333v6.321h-18.66zM265.356 41.921c0 1.817-.416 3.445-1.286 4.883-.833 1.438-2.082 2.536-3.71 3.331-1.59.833-3.52 1.211-5.677 1.211-1.25 0-2.499-.113-3.823-.303-1.325-.227-2.423-.492-3.255-.794v-6.132a12.125 12.125 0 0 0 5.829 1.476c1.362 0 2.384-.265 3.103-.757.682-.492 1.022-1.173 1.022-2.082 0-1.93-1.59-2.914-4.845-2.914-1.59 0-3.103.151-4.466.454l.984-15.897h14.951v6.131h-8.857l-.265 3.71c.72-.076 1.4-.114 2.006-.114 2.612 0 4.618.72 6.094 2.12 1.476 1.362 2.195 3.293 2.195 5.677zM299.995 44.117c0 2.157-.643 3.898-1.892 5.185-1.287 1.325-2.99 1.969-5.148 1.969-2.006 0-3.596-.606-4.807-1.855-1.173-1.211-1.779-2.801-1.779-4.807 0-2.196.644-3.937 1.93-5.224 1.25-1.286 2.99-1.93 5.11-1.93 2.044 0 3.634.568 4.845 1.741 1.173 1.174 1.741 2.801 1.741 4.92zm-4.845.227c0-.87-.151-1.552-.492-2.044-.34-.492-.795-.757-1.362-.757-.644 0-1.136.265-1.476.795-.341.53-.53 1.211-.53 2.12 0 .87.151 1.513.492 2.005.302.493.757.72 1.4.72.644 0 1.136-.265 1.476-.757.341-.492.492-1.174.492-2.082zm-15.821 6.548h-5.83l17.034-26.495h5.829l-17.033 26.495zm4.05-20.174c0 2.195-.644 3.936-1.893 5.223-1.287 1.287-2.99 1.93-5.11 1.93-2.006 0-3.595-.605-4.807-1.854-1.173-1.211-1.778-2.801-1.778-4.807 0-2.158.605-3.899 1.854-5.224 1.25-1.324 2.99-1.968 5.148-1.968 2.044 0 3.634.606 4.845 1.78 1.173 1.21 1.74 2.838 1.74 4.92zm-4.845.189c0-.833-.151-1.514-.492-2.006-.303-.492-.757-.757-1.325-.757-.643 0-1.135.265-1.476.795-.34.53-.53 1.21-.53 2.12 0 .87.151 1.513.492 2.005.303.492.757.72 1.4.72a1.68 1.68 0 0 0 1.439-.757c.303-.492.492-1.174.492-2.12z" fill="#2794da" fill-rule="nonzero"/><g fill="#fff" fill-rule="nonzero"><path d="M19.775 42.868c0 1.779-.454 3.293-1.4 4.617-.947 1.287-2.271 2.271-3.975 2.915-1.703.643-3.747.946-6.132.946-2.763 0-5.299-.454-7.607-1.4v-7.268c1.097.833 2.308 1.477 3.671 1.969 1.325.492 2.574.757 3.747.757.87 0 1.552-.152 2.044-.455.492-.34.72-.794.72-1.4 0-.416-.114-.795-.38-1.136-.226-.34-.605-.643-1.059-.908-.492-.303-1.4-.681-2.725-1.173C2.402 38.704.282 36.055.282 32.383c0-2.536.984-4.618 2.915-6.132 1.968-1.552 4.58-2.309 7.835-2.309.946 0 1.779.038 2.573.114.757.076 1.477.151 2.12.265.606.114 1.514.34 2.65.643v6.738c-2.234-1.211-4.429-1.817-6.586-1.817-.871 0-1.59.151-2.12.492-.568.34-.833.795-.833 1.363 0 .567.227 1.022.644 1.4.454.34 1.362.833 2.763 1.4 2.763 1.098 4.693 2.31 5.829 3.634 1.135 1.325 1.703 2.877 1.703 4.694zM39.638 50.892l-1.173-4.883h-7.911l-1.25 4.883h-8.629l9.122-26.495h9.917l8.592 26.495h-8.668zM34.604 30.15h-.19c-.037.303-.113.795-.264 1.476-.152.681-.87 3.558-2.233 8.706h5.072l-1.855-7.192a23.777 23.777 0 0 1-.53-2.99zM51.41 50.892V24.397h7.986v20.25h9.122v6.245H51.41zM71.887 50.892V24.397H88.39v6.245h-8.517v3.86h7.987v6.246h-7.987v3.899h9.122v6.245H71.887zM100.19 41.96h-6.32l-.985-17.563h8.29l-.985 17.562zm1.287 5.639c0 1.098-.416 2.006-1.21 2.687-.796.72-1.856 1.06-3.18 1.06-1.287 0-2.347-.34-3.18-1.06-.795-.719-1.211-1.627-1.211-2.687 0-1.098.378-1.968 1.173-2.612.795-.681 1.893-1.022 3.218-1.022 1.324 0 2.384.341 3.18 1.022.794.644 1.21 1.514 1.21 2.612z"/></g><g fill="#fff" fill-rule="nonzero"><path d="M10.719 8.905c0 1.237-.43 2.186-1.29 2.85-.86.663-2.097 1.003-3.71 1.003H.002V.214h5.323c3.333 0 5 1.003 5 3.028 0 .448-.108.843-.323 1.201-.197.376-.52.699-.95.968a3.9 3.9 0 0 1-1.415.555v.036c.59.072 1.129.25 1.594.538.484.268.843.627 1.112 1.057.25.412.376.86.376 1.308zm-4.409-5c0-.77-.609-1.164-1.827-1.164h-.7v2.365h1.094c.412 0 .752-.107 1.021-.34.27-.215.412-.502.412-.86zm.395 4.982c0-.358-.126-.663-.395-.896-.268-.233-.609-.34-1.039-.34H3.784v2.562h1.254c.52 0 .914-.125 1.219-.358.304-.233.448-.556.448-.968zM12.384 12.758V.214h3.782V9.8h4.318v2.957h-8.1zM29.947 12.758l-.556-2.312h-3.745l-.592 2.312h-4.086L25.288.214h4.694l4.068 12.544h-4.103zm-2.384-9.82h-.09a7.606 7.606 0 0 1-.125.699c-.072.322-.412 1.684-1.057 4.121h2.401l-.878-3.405a11.257 11.257 0 0 1-.25-1.415zM44.856 12.418c-1.04.376-2.24.555-3.602.555-1.326 0-2.49-.25-3.459-.77a5.15 5.15 0 0 1-2.204-2.169c-.52-.95-.77-2.025-.77-3.261 0-1.326.286-2.51.86-3.53A6.001 6.001 0 0 1 38.1.84c1.04-.556 2.24-.842 3.602-.842 1.093 0 2.133.125 3.154.394v3.494a4.162 4.162 0 0 0-1.254-.483 5.79 5.79 0 0 0-1.47-.18c-1.021 0-1.828.287-2.437.879-.591.59-.878 1.397-.878 2.4 0 1.004.287 1.793.878 2.366.61.592 1.398.878 2.383.878.914 0 1.846-.233 2.778-.698v3.369zM53.742 12.758l-2.778-5.304c-.197-.413-.305-.7-.34-.86h-.036v6.164h-3.782V.214h3.782V6.18h.036c.107-.322.232-.609.376-.878l2.509-5.09h4.48L54.423 6.2l3.906 6.559h-4.587zM67.93 3.17V5.43h3.728v2.956h-3.727v4.373h-3.782V.214h7.868V3.17H67.93zM80.35 12.758l-.931-2.706c-.18-.538-.412-.95-.7-1.254-.304-.305-.608-.448-.949-.448h-.143v4.408h-3.782V.214h5.018c1.756 0 3.047.287 3.889.86.842.573 1.254 1.434 1.254 2.58 0 .86-.233 1.595-.734 2.169-.484.591-1.201 1.003-2.169 1.272v.036c.538.161.968.43 1.326.789.359.376.663.913.95 1.648l1.237 3.19H80.35zm-.358-8.566c0-.412-.125-.753-.376-1.003-.269-.233-.663-.359-1.219-.359h-.77v2.867h.68c.502 0 .915-.143 1.22-.43.304-.286.465-.645.465-1.075zM86.07.214h3.78v12.544h-3.78zM104.144 6.325c0 1.272-.269 2.4-.807 3.369-.52.985-1.29 1.738-2.275 2.276-1.004.52-2.133.788-3.441.788h-5.305V.214h5.197c4.427 0 6.63 2.043 6.63 6.11zm-4.014.035c0-.609-.126-1.164-.377-1.648a2.626 2.626 0 0 0-1.057-1.147c-.466-.269-1.003-.394-1.63-.394h-.968V9.8h1.057c.896 0 1.63-.304 2.168-.932.538-.627.807-1.451.807-2.509zM113.782 12.758l-.556-2.312h-3.745l-.592 2.312h-4.086l4.32-12.544h4.694l4.068 12.544h-4.103zm-2.384-9.82h-.09a7.606 7.606 0 0 1-.125.699c-.072.322-.412 1.684-1.057 4.121h2.401l-.878-3.405a11.257 11.257 0 0 1-.25-1.415zM125.771 8.403v4.355h-3.781v-4.3L118.119.213h4.337l1.362 3.942c.09.27.16.502.197.7.036.196.071.393.125.608h.036c.072-.537.161-.95.25-1.236l1.345-4.014h3.996l-3.996 8.19zM144.205 12.776l-.735-.86c-.394.304-.95.555-1.648.752a6.862 6.862 0 0 1-2.025.305c-1.434 0-2.545-.305-3.334-.932-.788-.61-1.182-1.487-1.182-2.598 0-.663.233-1.29.716-1.9.484-.591 1.201-1.129 2.187-1.63-.843-.914-1.255-1.846-1.255-2.76 0-.932.359-1.703 1.093-2.276.735-.592 1.685-.878 2.868-.878 1.11 0 2.007.269 2.688.788.68.52 1.021 1.219 1.021 2.079 0 .699-.197 1.29-.61 1.792-.393.502-1.039.968-1.917 1.362l1.792 2.025c.251-.52.395-1.237.395-2.133h2.849c0 .843-.125 1.613-.358 2.276-.233.681-.628 1.29-1.165 1.846l2.509 2.742h-3.89zm-2.491-9.713a.88.88 0 0 0-.269-.645.88.88 0 0 0-.645-.269c-.287 0-.52.09-.699.233-.179.161-.269.376-.269.663 0 .18.054.359.162.556.107.197.358.502.752.95.359-.216.61-.448.753-.681.143-.251.215-.502.215-.807zm-2.222 4.373c-.251.125-.448.322-.61.609-.179.287-.25.61-.25.968 0 .501.161.896.484 1.2.34.287.734.448 1.218.448a2.547 2.547 0 0 0 1.56-.52l-2.402-2.705zM163.535 12.418c-1.04.376-2.24.555-3.602.555-1.326 0-2.49-.25-3.459-.77a5.15 5.15 0 0 1-2.204-2.169c-.52-.95-.77-2.025-.77-3.261 0-1.326.286-2.51.86-3.53A6.001 6.001 0 0 1 156.779.84c1.04-.556 2.24-.842 3.602-.842 1.093 0 2.133.125 3.154.394v3.494a4.162 4.162 0 0 0-1.254-.483 5.79 5.79 0 0 0-1.47-.18c-1.021 0-1.828.287-2.437.879-.591.59-.878 1.397-.878 2.4 0 1.004.287 1.793.878 2.366.61.592 1.398.878 2.383.878.914 0 1.846-.233 2.778-.698v3.369zM171.902 8.403v4.355h-3.781v-4.3L164.25.213h4.337l1.362 3.942c.09.27.16.502.197.7.036.196.071.393.125.608h.036c.072-.537.161-.95.25-1.236l1.345-4.014h3.996l-3.996 8.19zM187.849 8.905c0 1.237-.43 2.186-1.29 2.85-.86.663-2.097 1.003-3.71 1.003h-5.717V.214h5.323c3.333 0 5 1.003 5 3.028 0 .448-.108.843-.323 1.201-.197.376-.52.699-.95.968a3.9 3.9 0 0 1-1.415.555v.036c.59.072 1.129.25 1.594.538.484.268.843.627 1.112 1.057.25.412.376.86.376 1.308zm-4.409-5c0-.77-.609-1.164-1.827-1.164h-.7v2.365h1.094c.412 0 .752-.107 1.021-.34.27-.215.412-.502.412-.86zm.395 4.982c0-.358-.126-.663-.395-.896-.268-.233-.609-.34-1.039-.34h-1.487v2.562h1.254c.52 0 .914-.125 1.219-.358.304-.233.448-.556.448-.968zM189.513 12.758V.214h7.814V3.17h-4.032v1.828h3.78v2.956h-3.78v1.846h4.318v2.957h-8.1zM205.906 12.758l-.932-2.706c-.18-.538-.412-.95-.7-1.254-.304-.305-.608-.448-.949-.448h-.143v4.408H199.4V.214h5.018c1.756 0 3.047.287 3.889.86.842.573 1.254 1.434 1.254 2.58 0 .86-.233 1.595-.734 2.169-.484.591-1.201 1.003-2.169 1.272v.036c.538.161.968.43 1.326.789.359.376.663.913.95 1.648l1.237 3.19h-4.265zm-.359-8.566c0-.412-.125-.753-.376-1.003-.269-.233-.663-.359-1.219-.359h-.77v2.867h.68c.502 0 .915-.143 1.22-.43.304-.286.465-.645.465-1.075zM228.09 12.758V5.877c0-.646.018-1.362.054-2.133l.036-.573h-.108c-.179.985-.322 1.666-.43 2.043l-1.845 7.544h-3.549l-1.935-7.455c-.054-.179-.197-.896-.412-2.132h-.108c.09 1.953.126 3.19.126 3.673v5.914h-3.316V.214h5.663l1.72 6.81c.036.143.09.43.162.86.072.43.107.752.125.985h.054c.072-.52.161-1.147.305-1.881l1.613-6.774h5.573v12.544h-3.728zM246.222 6.45c0 1.254-.268 2.383-.824 3.387a5.837 5.837 0 0 1-2.258 2.312c-.985.555-2.079.824-3.28.824-1.182 0-2.257-.269-3.225-.788a5.774 5.774 0 0 1-2.24-2.258c-.538-.968-.806-2.061-.806-3.28 0-1.272.268-2.42.806-3.44A5.723 5.723 0 0 1 236.689.84c.968-.556 2.079-.842 3.333-.842 1.2 0 2.276.269 3.226.806a5.508 5.508 0 0 1 2.204 2.276c.502.986.77 2.115.77 3.37zm-4.014.108c0-1.04-.197-1.846-.591-2.438-.394-.609-.932-.896-1.63-.896-.754 0-1.345.287-1.757.86-.412.574-.627 1.38-.627 2.42 0 1.021.215 1.81.627 2.383.412.574.986.86 1.702.86.43 0 .825-.125 1.183-.376.34-.269.61-.627.807-1.111.197-.484.286-1.04.286-1.702zM256.763 12.758l-4.427-6.057c-.34-.484-.627-.914-.86-1.29h-.036c.036.609.054 1.308.054 2.078v5.269h-3.495V.214h3.567l4.247 5.752.412.592c.09.107.161.233.215.322.072.108.125.197.161.287h.036c-.036-.251-.054-.699-.054-1.326V.214h3.495v12.544h-3.315zM274.378 6.325c0 1.272-.269 2.4-.807 3.369-.52.985-1.29 1.738-2.275 2.276-1.004.52-2.133.788-3.441.788h-5.305V.214h5.197c4.427 0 6.63 2.043 6.63 6.11zm-4.014.035c0-.609-.126-1.164-.377-1.648a2.626 2.626 0 0 0-1.057-1.147c-.466-.269-1.003-.394-1.63-.394h-.968V9.8h1.057c.896 0 1.63-.304 2.168-.932.538-.627.807-1.451.807-2.509zM284.017 12.758l-.556-2.312h-3.745l-.592 2.312h-4.086l4.32-12.544h4.694l4.068 12.544h-4.103zm-2.384-9.82h-.09a7.606 7.606 0 0 1-.125.699c-.072.322-.412 1.684-1.057 4.121h2.401l-.878-3.405a11.257 11.257 0 0 1-.25-1.415zM296.004 8.403v4.355h-3.781v-4.3L288.352.213h4.337l1.362 3.942c.09.27.16.502.197.7.036.196.071.393.125.608h.036c.072-.537.161-.95.25-1.236l1.345-4.014H300l-3.996 8.19z"/></g></svg>