<?xml version="1.0" encoding="utf-8"?>
<!-- Generator: Adobe Illustrator 17.0.0, SVG Export Plug-In . SVG Version: 6.00 Build 0)  -->
<!DOCTYPE svg PUBLIC "-//W3C//DTD SVG 1.1//EN" "http://www.w3.org/Graphics/SVG/1.1/DTD/svg11.dtd">
<svg version="1.1" id="Layer_1" xmlns="http://www.w3.org/2000/svg" xmlns:xlink="http://www.w3.org/1999/xlink" x="0px" y="0px"
	 width="210px" height="210px" viewBox="0 0 210 210" enable-background="new 0 0 210 210" xml:space="preserve">
<path fill="#1D2428" d="M116.226,155.494c-2.052-1.334-4.651-2.533-7.787-3.574c-2.398-0.827-4.371-1.606-5.911-2.358
	c-1.527-0.744-2.656-1.571-3.377-2.441c-0.739-0.888-1.085-1.951-1.085-3.172c0-0.976,0.293-1.903,0.923-2.782
	c0.617-0.875,1.584-1.606,2.896-2.157c1.326-0.56,3.014-0.862,5.11-0.871c1.689,0.009,3.229,0.144,4.624,0.385
	c1.378,0.249,2.599,0.551,3.644,0.897c1.059,0.359,1.916,0.696,2.59,1.015l2.332-7.031c-1.409-0.709-3.176-1.295-5.32-1.772
	c-1.82-0.402-3.903-0.634-6.269-0.713v-7.275h-6.409v7.639c-1.028,0.166-2.013,0.39-2.944,0.661
	c-2.358,0.696-4.384,1.663-6.059,2.923c-1.663,1.256-2.949,2.726-3.833,4.41c-0.888,1.684-1.326,3.539-1.343,5.534
	c0.013,2.31,0.617,4.344,1.811,6.103c1.194,1.759,2.896,3.286,5.093,4.594c2.188,1.304,4.799,2.428,7.818,3.373
	c2.266,0.726,4.113,1.483,5.521,2.262c1.409,0.774,2.441,1.628,3.084,2.559c0.656,0.932,0.98,2.012,0.967,3.22
	c0,1.326-0.389,2.476-1.151,3.469c-0.752,0.98-1.864,1.75-3.325,2.297c-1.461,0.551-3.246,0.823-5.337,0.84
	c-1.702-0.013-3.351-0.158-4.961-0.433c-1.597-0.289-3.098-0.661-4.48-1.124c-1.396-0.464-2.616-0.967-3.675-1.531l-2.253,7.324
	c1.019,0.56,2.292,1.063,3.85,1.527c1.557,0.468,3.272,0.84,5.149,1.124c1.864,0.276,3.78,0.415,5.727,0.433l0.341-0.005v7.521
	h6.409v-8.124c0.814-0.157,1.588-0.346,2.323-0.564c2.572-0.774,4.707-1.829,6.396-3.181c1.702-1.339,2.962-2.892,3.797-4.642
	c0.831-1.75,1.247-3.601,1.247-5.574c0-2.31-0.495-4.353-1.514-6.112C119.818,158.39,118.287,156.837,116.226,155.494z"/>
<g id="EDD_logo">
	<path fill="#1D2428" d="M179.244,30.752C160.247,11.751,133.993,0,105.004,0C76.007,0,49.757,11.751,30.756,30.752
		C11.751,49.753,0,76.007,0,105s11.751,55.247,30.752,74.248C49.753,198.253,76.007,210,105.004,210
		c28.993,0,55.248-11.756,74.244-30.752C198.249,160.243,210,133.993,210,105S198.244,49.753,179.244,30.752z M175.779,175.779
		c-18.112,18.113-43.137,29.317-70.779,29.317s-52.671-11.204-70.783-29.317C16.105,157.666,4.9,132.641,4.9,105
		s11.205-52.666,29.317-70.779C52.329,16.109,77.355,4.904,104.996,4.904s52.666,11.205,70.779,29.317
		c18.113,18.113,29.317,43.138,29.317,70.779C205.096,132.641,193.891,157.666,175.779,175.779z"/>
	<path fill="#1D2428" d="M195.326,104.125c-0.472-49.486-40.727-89.456-90.322-89.456c-49.599,0-89.858,39.974-90.322,89.46
		l41.418-41.418l13.891,13.891l-30.31,30.31h130.646l-30.31-30.31l13.891-13.891L195.326,104.125z M105,88.603L66.513,48.217h25.576
		V28.311c0-5.167,5.81-9.402,12.911-9.402s12.911,4.231,12.911,9.402v19.906h25.576L105,88.603z"/>
</g>
</svg>
