<svg width="149" height="40" viewBox="0 0 149 40" fill="none" xmlns="http://www.w3.org/2000/svg">
<path d="M33.8344 0.793249L26.2129 23.4532C26.0533 23.9272 25.6092 24.2465 25.1103 24.2465H12.1939C11.665 24.2465 11.2027 23.8906 11.068 23.3784L10.9017 22.7465C10.7072 22.0081 11.2643 21.2864 12.0276 21.2864H15.2205C15.7211 21.2864 16.1634 20.9671 16.3231 20.4931L17.7233 16.3356C17.9778 15.5806 17.4157 14.8007 16.6208 14.8007H9.70603C9.1772 14.8007 8.71489 14.4448 8.58018 13.9326L8.45712 13.4636C8.26255 12.7252 8.81966 12.0035 9.58297 12.0035H21.0726C21.5715 12.0035 22.0155 11.6842 22.1752 11.2119L23.5787 7.05443C23.8332 6.29943 23.2727 5.51782 22.4762 5.51782H1.16489C0.40158 5.51782 -0.155522 6.23956 0.039048 6.97793L6.0674 29.8641C6.2021 30.3746 6.66442 30.7322 7.19325 30.7322H29.7701C30.2706 30.7322 30.7146 30.4129 30.8726 29.9389L38.4941 7.27893C38.6538 6.80498 39.0978 6.48569 39.5967 6.48569H41.4792C41.9781 6.48569 42.4221 6.16639 42.5818 5.69244L43.982 1.53494C44.2364 0.779944 43.6744 0 42.8794 0L34.9353 0C34.4348 0 33.9907 0.319295 33.8327 0.793249H33.8344Z" fill="#01B7FF"/>
<path d="M25.0759 39.8373C27.3164 39.8373 29.1327 38.021 29.1327 35.7805C29.1327 33.5399 27.3164 31.7236 25.0759 31.7236C22.8354 31.7236 21.019 33.5399 21.019 35.7805C21.019 38.021 22.8354 39.8373 25.0759 39.8373Z" fill="#01B7FF"/>
<path d="M11.9763 39.9999C14.2168 39.9999 16.0331 38.1836 16.0331 35.9431C16.0331 33.7025 14.2168 31.8862 11.9763 31.8862C9.73575 31.8862 7.91943 33.7025 7.91943 35.9431C7.91943 38.1836 9.73575 39.9999 11.9763 39.9999Z" fill="#01B7FF"/>
<path d="M51.0439 10.0126V0.132617H57.4626V1.62456H52.8144V4.29017H57.1178V5.76222H52.8144V8.52066H57.4891V10.0126H51.0439Z" fill="black"/>
<path d="M59.7348 10.0126L63.1828 0.132617H65.4307L68.9583 10.0126H67.0155L65.2583 4.88032C65.0859 4.34985 64.9069 3.75086 64.7212 3.08335C64.5355 2.41142 64.33 1.64888 64.1045 0.795704H64.4759C64.2548 1.65772 64.0537 2.4269 63.8725 3.10325C63.6956 3.77517 63.5277 4.36753 63.3685 4.88032L61.671 10.0126H59.7348ZM61.744 7.56582V6.14018H66.9492V7.56582H61.744Z" fill="black"/>
<path d="M74.7449 10.1651C73.9801 10.1651 73.3148 10.0458 72.749 9.80705C72.1876 9.56834 71.7477 9.22132 71.4294 8.766C71.1112 8.31068 70.9388 7.75811 70.9122 7.10829H72.6561C72.6871 7.45309 72.7954 7.74043 72.9811 7.9703C73.1667 8.20017 73.4121 8.37257 73.7171 8.48751C74.0221 8.59802 74.3603 8.65328 74.7316 8.65328C75.1206 8.65328 75.4632 8.5936 75.7594 8.47425C76.06 8.35489 76.2943 8.18912 76.4623 7.97693C76.6302 7.76032 76.7142 7.51056 76.7142 7.22764C76.7142 6.97125 76.6391 6.75906 76.4888 6.59108C76.3429 6.4231 76.1351 6.28164 75.8655 6.16671C75.6003 6.04735 75.2886 5.94347 74.9305 5.85505L73.8099 5.5633C72.9833 5.35111 72.3379 5.03062 71.8737 4.60182C71.414 4.17302 71.1841 3.6094 71.1841 2.91095C71.1841 2.32743 71.341 1.81686 71.6549 1.37922C71.9687 0.941583 72.3975 0.603409 72.9413 0.364698C73.485 0.121566 74.1017 0 74.7913 0C75.4942 0 76.1108 0.121566 76.6413 0.364698C77.1718 0.607829 77.5851 0.943793 77.8813 1.37259C78.1819 1.80139 78.3388 2.28986 78.3521 2.83801H76.6347C76.5905 2.41364 76.4004 2.08651 76.0644 1.85664C75.7329 1.62235 75.2997 1.50521 74.7648 1.50521C74.3934 1.50521 74.0729 1.56267 73.8033 1.67761C73.538 1.78812 73.3325 1.94063 73.1866 2.13514C73.0452 2.32964 72.9744 2.55288 72.9744 2.80486C72.9744 3.07893 73.0584 3.30438 73.2264 3.4812C73.3988 3.65803 73.6132 3.79949 73.8696 3.90558C74.1304 4.01167 74.3934 4.09788 74.6587 4.16418L75.5804 4.40289C75.9473 4.49131 76.3031 4.60845 76.6479 4.75433C76.9927 4.90021 77.3022 5.08587 77.5762 5.31132C77.8547 5.53235 78.0758 5.80201 78.2393 6.12029C78.4029 6.43857 78.4847 6.81211 78.4847 7.24091C78.4847 7.82 78.3366 8.33058 78.0404 8.77264C77.7442 9.21027 77.3176 9.55287 76.7607 9.80042C76.2037 10.0436 75.5317 10.1651 74.7449 10.1651Z" fill="black"/>
<path d="M84.2248 10.0126V6.1866L80.5778 0.132617H82.6466L84.4105 3.24912C84.5961 3.57625 84.7619 3.89453 84.9078 4.20397C85.0536 4.51341 85.204 4.89137 85.3587 5.33785H84.8945C85.0448 4.88695 85.1907 4.50457 85.3321 4.19071C85.478 3.87685 85.6394 3.56299 85.8162 3.24912L87.5469 0.132617H89.6024L85.9952 6.1866V10.0126H84.2248Z" fill="black"/>
<path d="M54.3859 24.9301H51.8861V23.3984H54.2997C54.9893 23.3984 55.564 23.2724 56.0237 23.0204C56.4879 22.764 56.8371 22.3838 57.0714 21.8799C57.3057 21.3715 57.4228 20.7372 57.4228 19.9768C57.4228 19.2253 57.3057 18.5976 57.0714 18.0937C56.8371 17.5897 56.4923 17.2118 56.037 16.9598C55.5861 16.7078 55.0225 16.5818 54.3461 16.5818H51.833V15.0501H54.4522C55.4336 15.0501 56.2757 15.2468 56.9786 15.6402C57.6814 16.0337 58.2208 16.5995 58.5965 17.3377C58.9767 18.076 59.1668 18.9557 59.1668 19.9768C59.1668 21.0068 58.9767 21.8931 58.5965 22.6358C58.2208 23.374 57.6748 23.9421 56.9587 24.3399C56.247 24.7334 55.3894 24.9301 54.3859 24.9301ZM52.8144 15.0501V24.9301H51.0439V15.0501H52.8144Z" fill="black"/>
<path d="M63.7597 15.0501V24.9301H61.9893V15.0501H63.7597Z" fill="black"/>
<path d="M71.1509 25.0627C70.2403 25.0627 69.4424 24.8571 68.7572 24.446C68.072 24.0349 67.5371 23.4514 67.1525 22.6955C66.7679 21.9396 66.5756 21.0422 66.5756 20.0033C66.5756 18.938 66.7724 18.0273 67.1658 17.2714C67.5636 16.5111 68.1029 15.9298 68.7837 15.5275C69.4645 15.1208 70.2359 14.9175 71.0979 14.9175C71.6416 14.9175 72.1478 14.997 72.6164 15.1562C73.0894 15.3153 73.5093 15.543 73.8762 15.8392C74.2476 16.1309 74.5504 16.4779 74.7847 16.8802C75.0234 17.2825 75.1803 17.7245 75.2554 18.2064H73.4452C73.3656 17.9411 73.2551 17.7046 73.1137 17.4969C72.9766 17.2891 72.8087 17.1101 72.6097 16.9598C72.4152 16.8095 72.192 16.6968 71.94 16.6216C71.6925 16.542 71.4184 16.5022 71.1178 16.5022C70.5873 16.5022 70.1121 16.6371 69.6921 16.9067C69.2766 17.1764 68.9495 17.5698 68.7108 18.087C68.4721 18.6042 68.3527 19.2386 68.3527 19.9901C68.3527 20.7327 68.4721 21.3649 68.7108 21.8865C68.9495 22.4037 69.2788 22.7994 69.6988 23.0734C70.1187 23.3431 70.605 23.4779 71.1576 23.4779C71.6615 23.4779 72.0969 23.3807 72.4639 23.1862C72.8352 22.9917 73.1203 22.7154 73.3192 22.3573C73.5226 21.9992 73.6243 21.5771 73.6243 21.0908L74.0287 21.1571H71.3432V19.7646H75.3416V20.9516C75.3416 21.7959 75.1604 22.5275 74.7979 23.1464C74.4398 23.7608 73.9447 24.2338 73.3126 24.5654C72.6849 24.8969 71.9643 25.0627 71.1509 25.0627Z" fill="black"/>
<path d="M79.9611 15.0501V24.9301H78.1907V15.0501H79.9611Z" fill="black"/>
<path d="M82.6444 16.542V15.0501H90.5086V16.542H87.4651V24.9301H85.6946V16.542H82.6444Z" fill="black"/>
<path d="M91.3287 24.9301L94.7767 15.0501H97.0246L100.552 24.9301H98.6093L96.8522 19.7978C96.6798 19.2673 96.5007 18.6683 96.3151 18.0008C96.1294 17.3289 95.9239 16.5663 95.6984 15.7132H96.0697C95.8487 16.5752 95.6476 17.3444 95.4663 18.0207C95.2895 18.6926 95.1215 19.285 94.9624 19.7978L93.2649 24.9301H91.3287ZM93.3378 22.4833V21.0577H98.543V22.4833H93.3378Z" fill="black"/>
<path d="M103.003 24.9301V15.0501H104.774V23.4381H109.137V24.9301H103.003Z" fill="black"/>
<path d="M54.3859 39.8475H51.8861V38.3158H54.2997C54.9893 38.3158 55.564 38.1898 56.0237 37.9378C56.4879 37.6814 56.8371 37.3012 57.0714 36.7973C57.3057 36.2889 57.4228 35.6546 57.4228 34.8942C57.4228 34.1427 57.3057 33.515 57.0714 33.0111C56.8371 32.5071 56.4923 32.1292 56.037 31.8772C55.5861 31.6252 55.0225 31.4992 54.3461 31.4992H51.833V29.9675H54.4522C55.4336 29.9675 56.2757 30.1642 56.9786 30.5576C57.6814 30.9511 58.2208 31.5169 58.5965 32.2551C58.9767 32.9934 59.1668 33.8731 59.1668 34.8942C59.1668 35.9242 58.9767 36.8106 58.5965 37.5532C58.2208 38.2914 57.6748 38.8595 56.9587 39.2573C56.247 39.6508 55.3894 39.8475 54.3859 39.8475ZM52.8144 29.9675V39.8475H51.0439V29.9675H52.8144Z" fill="black"/>
<path d="M66.2198 39.9801C65.3534 39.9801 64.5775 39.779 63.8924 39.3767C63.2072 38.9744 62.6656 38.3953 62.2678 37.6394C61.8744 36.8835 61.6776 35.9751 61.6776 34.9141C61.6776 33.8488 61.8744 32.9381 62.2678 32.1822C62.6656 31.4219 63.2072 30.8406 63.8924 30.4383C64.5775 30.036 65.3534 29.8349 66.2198 29.8349C67.0818 29.8349 67.8532 30.036 68.534 30.4383C69.2191 30.8406 69.7585 31.4219 70.1519 32.1822C70.5497 32.9381 70.7487 33.8488 70.7487 34.9141C70.7487 35.9751 70.5497 36.8857 70.1519 37.646C69.7585 38.402 69.2191 38.9811 68.534 39.3833C67.8532 39.7812 67.0818 39.9801 66.2198 39.9801ZM66.2198 38.3953C66.7547 38.3953 67.2277 38.2627 67.6388 37.9975C68.0543 37.7278 68.3792 37.3344 68.6135 36.8172C68.8478 36.2956 68.965 35.6612 68.965 34.9141C68.965 34.1582 68.8478 33.5216 68.6135 33.0044C68.3792 32.4828 68.0543 32.0894 67.6388 31.8241C67.2277 31.5545 66.7547 31.4197 66.2198 31.4197C65.6805 31.4197 65.2031 31.5545 64.7875 31.8241C64.372 32.0938 64.0449 32.4894 63.8062 33.0111C63.5719 33.5283 63.4547 34.1626 63.4547 34.9141C63.4547 35.6612 63.5719 36.2933 63.8062 36.8106C64.0449 37.3278 64.372 37.7212 64.7875 37.9908C65.2031 38.2605 65.6805 38.3953 66.2198 38.3953Z" fill="black"/>
<path d="M75.335 39.8475L72.6694 29.9675H74.5725L75.8589 35.2258C75.9473 35.6059 76.029 36.006 76.1042 36.426C76.1838 36.8459 76.2589 37.2681 76.3296 37.6925C76.4048 38.1168 76.4755 38.5324 76.5418 38.9391H76.2567C76.3319 38.5324 76.407 38.1168 76.4822 37.6925C76.5573 37.2681 76.6369 36.8459 76.7209 36.426C76.8049 36.006 76.8933 35.6059 76.9861 35.2258L78.3255 29.9675H80.2021L81.5349 35.2258C81.6321 35.6059 81.7205 36.006 81.8001 36.426C81.8841 36.8459 81.9637 37.2681 82.0388 37.6925C82.1184 38.1168 82.198 38.5324 82.2775 38.9391H81.9725C82.0432 38.5324 82.114 38.1168 82.1847 37.6925C82.2598 37.2681 82.3372 36.8459 82.4168 36.426C82.4963 36.006 82.5803 35.6059 82.6688 35.2258L83.9485 29.9675H85.8582L83.186 39.8475H81.1569L79.718 34.3903C79.5854 33.8819 79.4683 33.3293 79.3666 32.7326C79.2693 32.1358 79.1632 31.5037 79.0483 30.8361H79.4727C79.3489 31.4815 79.2428 32.0982 79.1544 32.6862C79.066 33.2697 78.9488 33.8377 78.803 34.3903L77.3641 39.8475H75.335Z" fill="black"/>
<path d="M88.3227 39.8475V29.9675H90.3252L93.7401 35.4114C93.8815 35.6369 94.0318 35.8933 94.191 36.1806C94.3501 36.4635 94.5159 36.7818 94.6883 37.1355C94.8607 37.4847 95.0309 37.8737 95.1989 38.3025H94.9999C94.969 37.9312 94.9403 37.551 94.9137 37.162C94.8916 36.7686 94.874 36.3972 94.8607 36.048C94.8519 35.6944 94.8474 35.396 94.8474 35.1528V29.9675H96.6444V39.8475H94.6353L91.5519 34.9473C91.3574 34.6334 91.1739 34.324 91.0015 34.019C90.8291 33.7139 90.6435 33.3691 90.4445 32.9845C90.2456 32.6 90.0047 32.1358 89.7218 31.5921H89.9738C90.0003 32.0739 90.0246 32.5314 90.0467 32.9647C90.0688 33.3934 90.0865 33.778 90.0997 34.1184C90.1174 34.4588 90.1263 34.7329 90.1263 34.9406V39.8475H88.3227Z" fill="black"/>
<path d="M99.772 39.8475V29.9675H101.542V38.3555H105.906V39.8475H99.772Z" fill="black"/>
<path d="M112.428 39.9801C111.562 39.9801 110.786 39.779 110.101 39.3767C109.415 38.9744 108.874 38.3953 108.476 37.6394C108.083 36.8835 107.886 35.9751 107.886 34.9141C107.886 33.8488 108.083 32.9381 108.476 32.1822C108.874 31.4219 109.415 30.8406 110.101 30.4383C110.786 30.036 111.562 29.8349 112.428 29.8349C113.29 29.8349 114.061 30.036 114.742 30.4383C115.427 30.8406 115.967 31.4219 116.36 32.1822C116.758 32.9381 116.957 33.8488 116.957 34.9141C116.957 35.9751 116.758 36.8857 116.36 37.646C115.967 38.402 115.427 38.9811 114.742 39.3833C114.061 39.7812 113.29 39.9801 112.428 39.9801ZM112.428 38.3953C112.963 38.3953 113.436 38.2627 113.847 37.9975C114.263 37.7278 114.588 37.3344 114.822 36.8172C115.056 36.2956 115.173 35.6612 115.173 34.9141C115.173 34.1582 115.056 33.5216 114.822 33.0044C114.588 32.4828 114.263 32.0894 113.847 31.8241C113.436 31.5545 112.963 31.4197 112.428 31.4197C111.889 31.4197 111.411 31.5545 110.996 31.8241C110.58 32.0938 110.253 32.4894 110.014 33.0111C109.78 33.5283 109.663 34.1626 109.663 34.9141C109.663 35.6612 109.78 36.2933 110.014 36.8106C110.253 37.3278 110.58 37.7212 110.996 37.9908C111.411 38.2605 111.889 38.3953 112.428 38.3953Z" fill="black"/>
<path d="M118.573 39.8475L122.021 29.9675H124.269L127.796 39.8475H125.853L124.096 34.7152C123.924 34.1847 123.745 33.5857 123.559 32.9182C123.373 32.2463 123.168 31.4838 122.942 30.6306H123.314C123.093 31.4926 122.892 32.2618 122.71 32.9381C122.534 33.6101 122.366 34.2024 122.206 34.7152L120.509 39.8475H118.573ZM120.582 37.4007V35.9751H125.787V37.4007H120.582Z" fill="black"/>
<path d="M133.589 39.8475H131.09V38.3158H133.503C134.193 38.3158 134.767 38.1898 135.227 37.9378C135.691 37.6814 136.041 37.3012 136.275 36.7973C136.509 36.2889 136.626 35.6546 136.626 34.8942C136.626 34.1427 136.509 33.515 136.275 33.0111C136.041 32.5071 135.696 32.1292 135.24 31.8772C134.79 31.6252 134.226 31.4992 133.55 31.4992H131.036V29.9675H133.656C134.637 29.9675 135.479 30.1642 136.182 30.5576C136.885 30.9511 137.424 31.5169 137.8 32.2551C138.18 32.9934 138.37 33.8731 138.37 34.8942C138.37 35.9242 138.18 36.8106 137.8 37.5532C137.424 38.2914 136.878 38.8595 136.162 39.2573C135.45 39.6508 134.593 39.8475 133.589 39.8475ZM132.018 29.9675V39.8475H130.247V29.9675H132.018Z" fill="black"/>
<path d="M144.661 40C143.896 40 143.231 39.8806 142.665 39.6419C142.103 39.4032 141.664 39.0562 141.345 38.6009C141.027 38.1456 140.855 37.593 140.828 36.9432H142.572C142.603 37.288 142.711 37.5753 142.897 37.8052C143.083 38.0351 143.328 38.2075 143.633 38.3224C143.938 38.4329 144.276 38.4882 144.647 38.4882C145.036 38.4882 145.379 38.4285 145.675 38.3091C145.976 38.1898 146.21 38.024 146.378 37.8118C146.546 37.5952 146.63 37.3454 146.63 37.0625C146.63 36.8061 146.555 36.5939 146.405 36.426C146.259 36.258 146.051 36.1165 145.781 36.0016C145.516 35.8822 145.204 35.7784 144.846 35.6899L143.726 35.3982C142.899 35.186 142.254 34.8655 141.79 34.4367C141.33 34.0079 141.1 33.4443 141.1 32.7458C141.1 32.1623 141.257 31.6517 141.571 31.2141C141.885 30.7765 142.313 30.4383 142.857 30.1996C143.401 29.9564 144.018 29.8349 144.707 29.8349C145.41 29.8349 146.027 29.9564 146.557 30.1996C147.088 30.4427 147.501 30.7787 147.797 31.2075C148.098 31.6363 148.255 32.1247 148.268 32.6729H146.551C146.506 32.2485 146.316 31.9214 145.98 31.6915C145.649 31.4572 145.215 31.3401 144.681 31.3401C144.309 31.3401 143.989 31.3976 143.719 31.5125C143.454 31.623 143.248 31.7755 143.102 31.97C142.961 32.1645 142.89 32.3878 142.89 32.6397C142.89 32.9138 142.974 33.1393 143.142 33.3161C143.315 33.4929 143.529 33.6344 143.785 33.7405C144.046 33.8466 144.309 33.9328 144.575 33.9991L145.496 34.2378C145.863 34.3262 146.219 34.4433 146.564 34.5892C146.909 34.7351 147.218 34.9208 147.492 35.1462C147.771 35.3672 147.992 35.6369 148.155 35.9552C148.319 36.2735 148.401 36.647 148.401 37.0758C148.401 37.6549 148.252 38.1655 147.956 38.6075C147.66 39.0452 147.233 39.3877 146.676 39.6353C146.119 39.8784 145.448 40 144.661 40Z" fill="black"/>
</svg>
