<svg width="175" height="165" viewBox="0 0 175 165" fill="none" xmlns="http://www.w3.org/2000/svg">
<g clip-path="url(#clip0_222_797)">
<path d="M146.989 19.6617C146.869 19.6796 146.755 19.7273 146.657 19.8006C146.56 19.8739 146.482 19.9704 146.432 20.0813C146.381 20.1923 146.359 20.3141 146.368 20.4357C146.376 20.5573 146.415 20.6748 146.481 20.7775C146.481 20.7775 148.585 24.1294 149.435 25.3959C149.503 25.4955 149.545 25.6102 149.558 25.7298C149.571 25.8494 149.555 25.9705 149.51 26.0823C149.466 26.1942 149.395 26.2936 149.304 26.3717C149.212 26.4499 149.103 26.5045 148.985 26.5308C145.841 27.2531 146.393 27.1517 143.819 27.7644C143.702 27.7942 143.594 27.8525 143.504 27.934C143.415 28.0156 143.347 28.1179 143.306 28.2319C143.265 28.346 143.254 28.4683 143.271 28.588C143.289 28.7077 143.336 28.8212 143.408 28.9185C143.408 28.9185 146.82 33.3926 147.224 33.9094C147.298 34.0022 147.349 34.1118 147.371 34.2285C147.394 34.3453 147.387 34.4658 147.353 34.5796C147.318 34.6933 147.256 34.7968 147.172 34.8812C147.088 34.9655 146.985 35.0281 146.872 35.0635C138.92 37.6202 141.334 38.1333 149.769 36.7272L150.884 36.5509C151.003 36.5316 151.116 36.483 151.213 36.4094C151.309 36.3358 151.386 36.2395 151.437 36.1292C151.487 36.0188 151.509 35.8977 151.501 35.7766C151.494 35.6555 151.456 35.5383 151.392 35.4352C150.378 33.8236 149.8 32.8484 148.437 30.8369C148.37 30.7372 148.328 30.6225 148.315 30.5028C148.302 30.3831 148.318 30.262 148.363 30.1501C148.407 30.0381 148.478 29.9387 148.569 29.8605C148.661 29.7822 148.77 29.7275 148.888 29.701C152.032 28.9788 151.48 29.081 154.054 28.4684C154.171 28.4386 154.279 28.3805 154.369 28.299C154.459 28.2175 154.527 28.1152 154.568 28.0011C154.608 27.8871 154.62 27.7647 154.602 27.6449C154.585 27.5252 154.538 27.4116 154.466 27.3142C154.466 27.3142 151.053 22.8182 150.649 22.3042C150.574 22.2114 150.524 22.1017 150.501 21.9848C150.479 21.8679 150.485 21.7473 150.52 21.6334C150.554 21.5196 150.617 21.4159 150.7 21.3315C150.784 21.2471 150.888 21.1845 151.001 21.1491C157.839 18.9395 158.265 17.8374 146.989 19.6617Z" fill="#2271B1"/>
<path d="M132.526 25.0824C132.395 25.0306 132.28 24.9478 132.188 24.8411C132.097 24.7344 132.033 24.6071 132.003 24.4702C131.972 24.3333 131.975 24.1909 132.011 24.0555C132.048 23.92 132.117 23.7955 132.213 23.6927C133.111 22.713 135.52 20.0532 135.52 20.0532C135.615 19.9468 135.682 19.8184 135.715 19.6795C135.748 19.5407 135.746 19.3959 135.709 19.258C135.672 19.1201 135.602 18.9936 135.504 18.8898C135.406 18.786 135.284 18.7083 135.148 18.6635C135.148 18.6635 130.08 16.9807 129.512 16.8045C129.38 16.7616 129.261 16.6876 129.164 16.5886C129.067 16.4897 128.995 16.3689 128.954 16.2363C128.914 16.1038 128.906 15.9634 128.932 15.8272C128.957 15.691 129.015 15.563 129.101 15.454C133.319 10.0349 133.114 8.70454 124.992 16.5305C124.889 16.6283 124.812 16.7501 124.767 16.8851C124.723 17.0201 124.713 17.164 124.739 17.3038C124.764 17.4437 124.824 17.575 124.912 17.6859C125.001 17.7969 125.116 17.884 125.247 17.9394C128.45 19.289 127.025 18.7037 129.982 19.9162C130.113 19.9679 130.229 20.0506 130.32 20.1573C130.411 20.264 130.475 20.3913 130.506 20.5283C130.537 20.6653 130.534 20.8077 130.497 20.9433C130.46 21.0788 130.391 21.2033 130.295 21.3059C129.397 22.2857 126.988 24.9656 126.988 24.9656C126.893 25.072 126.826 25.2003 126.793 25.339C126.76 25.4778 126.762 25.6225 126.799 25.7602C126.836 25.8979 126.907 26.0243 127.004 26.128C127.102 26.2318 127.224 26.3095 127.36 26.3544C127.36 26.3544 132.429 28.0381 132.996 28.2143C133.128 28.257 133.247 28.331 133.344 28.4298C133.441 28.5286 133.513 28.6494 133.553 28.7819C133.594 28.9144 133.602 29.0547 133.576 29.1908C133.551 29.327 133.493 29.4549 133.407 29.5638C129.231 34.93 129.367 36.3608 137.516 28.5074C137.619 28.4095 137.695 28.2877 137.739 28.1528C137.783 28.018 137.793 27.8743 137.768 27.7346C137.743 27.595 137.684 27.4638 137.595 27.3528C137.507 27.2417 137.392 27.1544 137.262 27.0985C135.715 26.4228 133.712 25.5518 132.526 25.0824Z" fill="#2271B1"/>
<path d="M168.614 42.7398C168.529 42.6498 168.423 42.5823 168.305 42.5434C168.187 42.5045 168.062 42.4952 167.94 42.5166C167.818 42.5379 167.703 42.5891 167.605 42.6657C167.508 42.7422 167.43 42.8417 167.381 42.9552C166.518 44.964 166.335 45.3457 165.287 47.9845C165.242 48.0989 165.17 48.2006 165.077 48.2807C164.984 48.3608 164.873 48.4168 164.753 48.4438C164.633 48.4709 164.509 48.4681 164.39 48.4358C164.272 48.4035 164.163 48.3426 164.074 48.2584C163.063 47.3125 160.16 44.7357 160.16 44.7357C160.067 44.6525 159.954 44.594 159.832 44.5654C159.71 44.5369 159.583 44.5393 159.463 44.5725C159.342 44.6056 159.232 44.6684 159.141 44.7551C159.051 44.8419 158.984 44.9498 158.947 45.069C158.947 45.069 157.173 50.3941 156.989 50.9986C156.952 51.1132 156.888 51.2174 156.803 51.3024C156.717 51.3873 156.612 51.4507 156.498 51.487C156.383 51.5234 156.261 51.5317 156.142 51.5114C156.023 51.4911 155.911 51.4427 155.815 51.3702C149.163 46.2569 150.239 48.6666 156.109 54.7166L156.872 55.5192C156.957 55.609 157.064 55.6763 157.181 55.7151C157.299 55.7539 157.424 55.763 157.546 55.7417C157.668 55.7204 157.783 55.6692 157.88 55.5928C157.978 55.5164 158.055 55.4171 158.105 55.3037C158.105 55.3037 159.633 51.6843 160.198 50.2745C160.243 50.1601 160.315 50.0584 160.408 49.9783C160.501 49.8982 160.613 49.8422 160.732 49.8151C160.852 49.7881 160.977 49.7909 161.095 49.8232C161.214 49.8555 161.322 49.9164 161.412 50.0006C162.423 50.9474 165.307 53.5232 165.307 53.5232C165.399 53.6057 165.511 53.6641 165.631 53.6933C165.751 53.7224 165.877 53.7215 165.997 53.6905C166.117 53.6596 166.227 53.5995 166.318 53.5157C166.41 53.4319 166.479 53.3269 166.52 53.21C166.52 53.21 168.302 47.8868 168.496 47.2805C168.534 47.1663 168.598 47.0626 168.684 46.978C168.769 46.8934 168.874 46.8303 168.988 46.794C169.103 46.7576 169.225 46.749 169.343 46.7688C169.462 46.7886 169.574 46.8363 169.671 46.908C175.236 51.1401 176.617 51.0488 168.614 42.7398Z" fill="#2271B1"/>
<path d="M169.925 69.2134C169.925 69.0903 169.894 68.9691 169.836 68.8607C169.777 68.7523 169.693 68.66 169.59 68.5922C169.488 68.5244 169.37 68.483 169.247 68.4719C169.124 68.4608 169.001 68.4803 168.888 68.5286C168.888 68.5286 165.272 70.0808 163.897 70.7008C163.787 70.7537 163.666 70.7787 163.545 70.7735C163.423 70.7683 163.305 70.7332 163.201 70.6711C163.096 70.6091 163.008 70.5222 162.945 70.4181C162.883 70.3139 162.847 70.1959 162.84 70.0744C162.776 68.6847 162.469 64.8297 162.469 64.8297C162.458 64.7063 162.418 64.5874 162.35 64.4835C162.283 64.3796 162.191 64.2939 162.083 64.2339C161.975 64.174 161.853 64.1417 161.729 64.1398C161.605 64.138 161.483 64.1667 161.373 64.2234C161.373 64.2234 156.421 66.843 155.854 67.159C155.749 67.2158 155.631 67.2463 155.511 67.248C155.391 67.2498 155.272 67.2227 155.165 67.169C155.057 67.1153 154.964 67.0366 154.894 66.9395C154.823 66.8424 154.777 66.7298 154.759 66.6111C154.011 61.7189 153.27 60.037 152.9 62.9122C152.687 65.3784 152.608 67.8544 152.665 70.3292C152.665 70.4523 152.696 70.5735 152.754 70.6819C152.813 70.7903 152.897 70.8826 153 70.9504C153.102 71.0182 153.22 71.0595 153.343 71.0706C153.466 71.0817 153.589 71.0623 153.702 71.014C153.702 71.014 157.318 69.4618 158.692 68.8418C158.802 68.7892 158.923 68.7644 159.044 68.7697C159.166 68.775 159.284 68.8102 159.388 68.8721C159.493 68.9341 159.581 69.0209 159.644 69.1249C159.707 69.2289 159.743 69.3468 159.75 69.4681C159.814 70.8588 160.121 74.7129 160.121 74.7129C160.131 74.8363 160.172 74.9553 160.239 75.0594C160.307 75.1634 160.398 75.2493 160.507 75.3093C160.615 75.3694 160.737 75.4018 160.861 75.4036C160.984 75.4055 161.107 75.3768 161.217 75.3201C161.217 75.3201 166.169 72.7004 166.736 72.3845C166.841 72.3273 166.959 72.2964 167.079 72.2945C167.2 72.2925 167.318 72.3196 167.426 72.3733C167.534 72.4271 167.626 72.5059 167.697 72.6033C167.768 72.7006 167.814 72.8135 167.831 72.9324C168.581 77.8429 169.32 79.5275 169.691 76.6504C169.904 74.1775 169.982 71.6948 169.925 69.2134Z" fill="#2271B1"/>
<path d="M96.7131 145.44C93.4206 146.182 89.9216 145.44 86.7122 144.677C83.836 143.992 80.6658 143.756 77.8864 142.799C75.673 142.034 75.8511 142.152 74.833 141.8C76.2236 134.57 77.564 129.038 80.9981 121.858C81.7414 122.308 82.481 122.765 83.2489 123.228C91.6912 128.325 97.1952 127.358 100.842 115.263C102.461 109.894 103.016 104.143 104.483 99.1562C104.665 98.5508 104.005 97.8295 103.758 97.2972C102.077 93.675 102.472 90.0839 105.715 87.9235C106.345 87.4673 107.005 87.0552 107.692 86.6899C108.745 86.0763 109.436 86.0581 109.219 85.9659C108.579 85.6919 107.497 86.2827 106.929 86.5338C105.868 86.9254 104.899 87.5303 104.081 88.3111C103.263 89.0919 102.614 90.0321 102.173 91.0736C101.267 93.6302 101.981 96.5795 103.269 98.9416C101.701 103.608 100.994 110.363 98.8863 116.473C97.1806 121.417 94.1812 126.077 89.2186 124.477C83.1393 122.516 73.2297 114.233 64.8339 112.972C63.7723 112.736 62.6738 112.716 61.6043 112.914C61.5066 113.051 62.4261 113.052 64.3837 113.481C69.5883 114.619 75.737 118.615 80.0202 121.251C75.6237 128.845 73.8816 137.848 74.1491 142.445C74.2404 144.04 74.0934 144.767 74.5016 145.439C68.8186 143.253 68.9318 143.119 62.9968 139.784C61.3398 138.778 59.5738 137.964 57.7329 137.357C58.5893 133.821 59.3381 129.123 58.9263 125.478C58.7208 123.657 58.5053 123.482 58.3392 125.321C57.2782 137.061 54.0641 143.238 51.1532 153.679C50.8048 155.026 50.5305 156.391 50.3315 157.769C49.1764 157.749 42.6799 157.664 40.5853 157.632C38.8824 157.606 36.1778 158.07 34.6165 157.299C34.1684 157.023 33.7949 156.642 33.5287 156.188C33.2625 155.734 33.1118 155.222 33.0898 154.696C32.7702 151.82 33.0323 123.658 32.9136 117.297C32.8168 112.093 32.6981 106.906 32.5611 101.7C34.5247 101.655 36.4766 102.015 38.2953 102.756C38.5628 102.756 36.4581 100.961 32.5429 100.897C32.4579 97.5117 30.8436 31.96 31.7795 28.6245C32.9099 24.6006 38.939 25.0261 42.8515 25.0261C45.7094 25.0261 48.5464 24.9868 51.4043 24.9676C51.463 25.3652 51.6638 25.7281 51.9696 25.9889C52.2753 26.2498 52.6652 26.3911 53.067 26.3866H81.252C81.7008 26.3017 82.1245 26.1156 82.4907 25.8425C82.857 25.5695 83.1562 25.2166 83.3657 24.8106C85.3407 25.0078 89.4432 25.1119 97.965 25.4178C99.9107 25.4872 101.281 25.3265 102.408 27.3553C103.281 28.9249 103.386 31.1501 103.562 33.3433C104.236 41.7281 102.989 37.1235 104.932 64.6948L106.027 63.5206C105.754 55.7804 105.297 47.6449 105.323 41.4067C105.333 39.0975 105.009 30.0361 104.403 28.3725C103.981 26.8255 102.978 25.5007 101.604 24.6736C100.311 24.1743 98.9394 23.9093 97.5532 23.8911C82.5723 23.4181 58.6724 23.9824 39.0778 23.871C36.5723 23.8564 33.3902 24.3276 31.6818 26.3765C29.8758 28.5396 30.2894 31.9463 30.2529 34.7915C29.9479 58.5498 30.5679 78.2047 31.0947 100.998C26.4937 101.381 22.5419 103.596 18.6084 106.576C15.2899 109.261 12.254 112.277 9.54788 115.578C6.93689 118.796 4.53133 122.175 2.34552 125.696C1.35483 127.202 -0.19193 127.493 1.52375 131.195C2.3839 132.929 3.44124 134.557 4.67478 136.048C3.38277 138.181 3.04859 139.412 3.95071 138.787C5.23815 137.897 8.57545 133.409 9.42918 131.233C14.4438 135.553 18.3427 140.025 23.8558 146.025C23.0988 147.039 22.4246 148.112 21.8397 149.234C21.8589 149.215 21.8982 149.155 21.9183 149.136C20.7231 152.023 29.1955 142.208 31.5467 138.04C31.5467 154.588 31.2088 155.023 32.153 156.94C33.7582 160.199 38.7874 159.132 41.6444 159.132C72.963 159.132 85.7169 160.529 98.731 158.33C101.725 157.824 104.118 157.373 104.778 154.24C105.111 152.654 104.979 151.792 105.17 142.106C109.356 138.002 112.404 132.161 114.603 126.766C119.176 115.535 120.726 105.118 120.416 104.73C119.966 103.84 112.936 141.788 96.7131 145.44ZM24.2439 145.499C20.1856 140.209 15.7221 135.243 10.8938 130.646C9.03291 128.944 7.07618 127.184 4.61178 126.418C4.30615 126.316 3.99154 126.244 3.67222 126.203C9.82454 116.824 19.9415 103.293 31.0701 101.799C31.344 113.303 31.5595 125.087 31.5796 137.005C30.7843 137.272 25.6856 143.335 24.2439 145.499ZM103.641 152.662C103.465 156.223 101.723 156.405 98.259 156.987C93.7866 157.647 89.2757 158.013 84.7554 158.083C78.2644 158.217 75.3599 158.032 50.8802 157.75C52.5037 152.533 55.5716 145.713 57.5539 137.905C58.4149 138.552 60.0548 139.595 62.0161 140.861C65.557 143.144 68.499 144.855 72.2508 145.753C72.9829 145.929 73.7302 146.034 74.4824 146.067C75.0494 146.077 75.3434 146.027 75.3434 145.93C76.419 145.909 77.7896 144.423 78.0434 143.542C81.346 144.539 86.9496 145.971 90.8037 146.654C92.8532 147.115 94.972 147.182 97.0464 146.849C99.5064 146.283 101.795 145.135 103.72 143.503C103.754 146.077 103.828 148.872 103.641 152.662Z" fill="#35495C"/>
<path d="M121.821 96.5148C121.717 96.3716 121.585 96.2511 121.433 96.1603C121.281 96.0696 121.112 96.0106 120.936 95.9868C120.761 95.963 120.582 95.9749 120.411 96.0219C120.241 96.0688 120.081 96.1498 119.942 96.26C119.394 96.7065 118.73 97.2599 118.162 97.7675C117.908 97.991 117.754 98.3058 117.731 98.6431C117.709 98.9803 117.822 99.3126 118.044 99.5672C118.668 100.309 119.335 101.015 120.04 101.681C120.218 101.851 120.432 101.979 120.665 102.057C120.898 102.134 121.146 102.16 121.39 102.131C121.734 102.104 122.069 102.008 122.376 101.85C122.683 101.692 122.955 101.475 123.177 101.211C123.399 100.947 123.567 100.642 123.67 100.312C123.773 99.9832 123.81 99.6368 123.778 99.2933C123.777 98.3555 122.949 98.0241 121.821 96.5148Z" fill="#35495C"/>
<path d="M125.775 74.6975C121.408 74.6807 117.101 75.7072 113.211 77.6914C109.437 76.2652 106.496 73.2228 104.326 69.7851C103.047 67.7644 102.715 67.5727 103.699 69.8828C105.298 73.5501 108.073 76.5801 111.587 78.494C100.794 84.2072 102.798 83.4612 96.9481 87.2221C94.8497 86.4825 93.1179 84.9611 92.1142 82.9754C90.8359 79.996 90.4835 76.9865 90.216 76.9865C89.9968 76.9865 90.237 79.2519 90.3137 79.6874C90.2623 79.7032 90.2102 79.7163 90.1575 79.7267C89.7164 80.0054 89.3583 80.3976 89.1208 80.8621C88.8832 81.3267 88.7748 81.8465 88.8071 82.3673C88.8262 85.0664 91.4121 86.9647 93.1515 86.32C94.2493 87.4475 95.6167 88.2759 97.1243 88.7269C102.329 85.4343 105.579 83.3343 108.983 81.5255C109.512 83.2667 110.647 85.6343 110.96 86.4771C111.691 86.0507 110.629 86.6414 109.669 88.2384C108.92 89.3549 108.581 90.6966 108.709 92.035C108.859 92.76 109.075 92.7755 109.297 92.1519C110.102 89.9112 110.763 88.6228 114.248 85.6352C115.154 84.8326 116.177 84.1728 117.281 83.6785C117.595 83.5214 117.81 83.4237 117.81 83.326C117.829 83.2283 117.653 83.1297 117.262 83.0914C116.542 83.0686 115.826 83.209 115.168 83.5023C114.62 82.1327 113.837 79.9011 113.583 79.1962C120.27 76.0762 123.133 75.963 125.716 75.2827C126.987 74.9458 127.086 74.7331 125.775 74.6975ZM90.4314 80.4316C90.6011 81.5295 90.8898 82.6057 91.2925 83.6411C91.5444 84.1929 91.8525 84.7174 92.2119 85.2061C91.3934 84.7536 90.7638 84.023 90.4372 83.1466C90.1106 82.2701 90.1086 81.3058 90.4314 80.4279V80.4316Z" fill="#35495C"/>
<path d="M68.2737 156.575C68.9378 156.587 69.58 156.307 70.059 155.798C70.538 155.29 70.8145 154.593 70.8277 153.861C70.8409 153.129 70.5898 152.423 70.1295 151.897C69.6692 151.371 69.0375 151.069 68.3734 151.057C67.7092 151.045 67.067 151.324 66.5881 151.833C66.1091 152.342 65.8326 153.039 65.8194 153.77C65.8062 154.502 66.0573 155.209 66.5176 155.734C66.9779 156.26 67.6095 156.563 68.2737 156.575Z" fill="#35495C"/>
<path d="M58.5508 81.9929C58.2562 82.1146 58.0203 82.3458 57.8926 82.6378C57.7649 82.9298 57.7553 83.2599 57.8659 83.5588C58.0394 84.2838 58.6293 84.7723 59.1771 84.6354C59.4714 84.5133 59.707 84.2821 59.8347 83.9902C59.9623 83.6983 59.9721 83.3684 59.8619 83.0694C59.6857 82.3262 59.0986 81.8559 58.5508 81.9929Z" fill="#35495C"/>
<path d="M115.715 94.0291C113.444 98.138 113.786 101.305 114.56 99.8609C114.853 99.3131 115.277 98.2521 115.91 97.0039C117.28 94.304 118.01 92.5015 120.646 91.2515C120.939 91.1127 121.116 91.0169 121.136 90.9192C121.215 90.5183 118.996 90.3521 117.241 92.0349C116.635 92.6199 116.121 93.292 115.715 94.0291Z" fill="#35495C"/>
<path d="M118.005 86.8862C116.848 87.0583 115.763 87.5532 114.874 88.3143C110.502 91.6388 110.343 97.1775 111.43 95.5166C112.047 94.5716 113.796 90.4034 118.142 87.4733C118.637 87.1428 118.728 86.9054 118.005 86.8862Z" fill="#35495C"/>
<path d="M66.1243 69.6839C63.0582 65.5879 40.9233 55.6673 34.0871 76.1029C31.0885 85.0647 37.3358 91.8571 43.3247 94.4987C42.9723 95.8299 41.8976 100.292 41.7789 100.859C41.5642 101.421 41.5232 102.035 41.6611 102.621C43.1675 104.662 44.879 106.544 46.7688 108.237C47.1195 108.511 47.4929 108.785 47.8645 109.039C51.19 111.312 54.4816 111.881 55.9471 111.133C56.6721 110.763 56.7497 110.272 56.7104 110.234C56.6319 110.174 56.2603 110.39 56.1626 110.448C55.223 110.821 53.0709 110.253 52.9924 110.214C51.5523 109.702 50.1943 108.984 48.9611 108.081C47.555 107.076 43.0901 102.092 43.07 102.073C43.07 102.073 44.1273 96.2801 44.362 94.9096C48.374 96.3577 52.0318 95.8491 52.366 92.7574C52.7943 88.8038 52.3268 84.6155 53.1686 81.6608C52.4683 82.3237 51.7196 83.2212 51.8967 82.2278C52.1916 80.5614 53.7009 79.4374 55.1062 78.6668C56.8029 77.8087 58.729 77.5138 60.6047 77.8249C60.8001 77.8468 60.9964 77.8834 61.1727 77.9035C61.6812 79.5278 62.2821 81.3832 62.8363 83.402C62.997 83.9882 63.2664 85.2811 63.2472 85.3012C62.7085 86.0463 62.4464 86.9731 63.2079 86.5923C63.7631 86.3184 64.7255 85.4601 64.93 85.7705C65.2332 86.2335 65.3713 86.7853 65.3217 87.3365C65.1663 88.0755 64.8742 88.7791 64.4607 89.411C61.4073 89.8602 54.8259 91.0335 54.3428 93.9901C54.2881 95.5311 54.7496 97.0463 55.654 98.2952C53.4489 97.5429 52.2756 96.6828 52.072 96.7494C51.9743 96.7887 52.2701 97.1968 53.1677 97.8652C53.8896 98.3816 54.6635 98.8211 55.4769 99.1764C55.2277 100.393 55.1814 101.643 55.3399 102.875C55.4449 103.947 55.8297 104.973 56.4557 105.85C56.8529 106.295 57.0428 106.241 57.0236 105.693C56.732 103.809 56.6795 101.895 56.8675 99.9981C59.1767 102.915 62.4647 105.361 64.1274 104.871C66.1827 104.266 66.4758 97.6798 66.4758 95.5359C66.5654 93.3839 66.3546 91.2299 65.8495 89.1362C66.4353 88.5676 66.7802 87.7957 66.813 86.98C66.8458 86.1643 66.5639 85.3671 66.0257 84.7534C65.8574 84.5684 65.6455 84.4286 65.4092 84.3468C65.173 84.265 64.92 84.2437 64.6734 84.285C64.5045 84.285 64.11 82.3374 62.325 77.7108C63.8736 76.69 68.7129 73.1454 66.1243 69.6839ZM58.2371 68.4504C53.8671 67.9938 46.8912 67.9765 43.2069 70.3879C39.8523 72.5848 39.7162 75.3724 39.1364 75.3003C38.9803 75.261 38.8022 74.9287 38.7648 74.3023C38.5018 69.9779 43.1476 67.109 46.8081 66.3585C49.9418 65.7193 54.9007 65.7924 58.0216 67.5135C58.3129 67.6742 58.8041 68.1198 58.7265 68.3353C58.7064 68.4312 58.5558 68.4832 58.2371 68.4504ZM64.9692 95.556C63.1102 95.9276 59.1173 92.2872 58.7658 91.6809C58.5503 91.3093 62.0145 91.6216 64.6369 90.8975C64.6953 91.2107 64.7346 91.5047 64.7738 91.8179C64.1749 92.1986 63.848 92.3502 62.2684 92.1502C58.259 91.6426 60.8449 93.5929 63.0317 93.7746C63.3645 93.822 63.7034 93.7994 64.027 93.7084C64.3506 93.6174 64.6516 93.4599 64.9108 93.2459C64.9851 94.0136 65.0046 94.7856 64.9692 95.556Z" fill="#35495C"/>
<path d="M60.2142 79.6647C60.0779 79.4482 59.8944 79.2652 59.6775 79.1296C59.4606 78.9939 59.2158 78.9091 58.9614 78.8813C57.4567 78.5891 56.1647 79.809 56.2806 80.702C56.4021 81.6452 57.4521 80.5194 58.7268 80.2911C59.5914 80.1368 60.4443 80.2856 60.2142 79.6647Z" fill="#35495C"/>
<path d="M134.053 51.0916C133.612 50.6889 132.527 49.8133 132.232 50.3283C131.554 51.854 133.828 57.359 136.283 59.1742C136.435 59.2866 136.608 59.3665 136.792 59.4088C137.043 59.1577 136.974 58.084 136.929 57.726C136.809 56.8366 136.613 55.9592 136.342 55.1037C136.02 54.008 136.165 53.871 136.675 54.6142C136.518 54.2206 136.328 53.8409 136.107 53.4793C135.5 52.6195 134.812 51.8199 134.053 51.0916Z" fill="#2271B1"/>
<path d="M145.932 63.6948C141.896 47.7616 130.087 32.7871 125.167 34.9073C124.805 35.0658 124.488 35.3145 124.249 35.6296C124.009 35.9447 123.854 36.3159 123.798 36.7079C123.876 36.0614 125.129 35.3748 125.697 35.3182C127.761 35.1109 130.628 37.9944 131.997 39.5448C140.271 48.924 147.624 68.0585 144.522 73.0886C142.296 76.6998 136.03 69.0793 134.815 67.5508C133.795 66.2606 132.898 64.9869 132.095 63.7734C133.794 62.6212 135.558 61.5691 137.379 60.6223C138.987 59.8745 137.891 56.5464 136.949 55.006C136.246 53.8573 136.019 53.882 136.362 55.1229C136.784 56.3637 136.989 57.6682 136.968 58.9788C136.815 60.0361 135.737 58.7615 135.422 58.4109C134.111 56.8746 133.149 55.0717 132.604 53.1269C132.239 52.2972 132.097 51.3866 132.193 50.4853C132.199 50.439 132.215 50.3946 132.24 50.3549C132.264 50.3153 132.297 50.2813 132.336 50.2554C132.375 50.2295 132.419 50.2122 132.465 50.2046C132.511 50.197 132.558 50.1993 132.604 50.2114C133.707 50.4653 135.191 52.2996 135.891 53.1853C136.704 54.2143 136.976 54.2901 136.459 52.9899C135.624 50.8971 133.165 47.8219 131.448 49.2518L126.008 52.6009C125.989 53.4035 126.361 54.0883 126.869 55.6141C127.194 56.7334 127.62 57.8209 128.142 58.8628C130.783 64.2107 135.913 73 141.41 75.1458C143.777 76.0689 145.489 74.639 146.206 72.4248C147.116 69.6089 146.655 66.5519 145.932 63.6948Z" fill="#35495C"/>
<path d="M126.264 75.1237C130.789 74.5752 135.346 74.3202 139.904 74.3604C135.112 71.4239 130.408 63.8919 128.125 58.6262C126.964 55.9482 126.247 53.5577 125.347 50.7984C125.484 51.2285 124.715 52.0858 124.486 52.4027C123.984 53.0984 123.523 53.849 122.998 54.5356C120.571 57.7086 116.006 61.9699 112.254 63.5386C111.04 64.0453 110.991 63.6856 111.843 62.736C113.646 60.7272 120.351 55.3884 124.603 48.3093C123.661 44.7573 123.337 41.0699 123.644 37.4081C123.661 37.2319 118.385 47.0995 116.188 50.4423C110.095 59.6553 102.547 67.8179 93.8384 74.6115C91.9839 76.0459 90.8051 76.6276 90.6682 78.3889C91.0307 79.9507 91.5149 81.4817 92.1163 82.968C93.12 84.9537 94.8517 86.4751 96.9501 87.2147C97.2241 87.0193 97.5199 86.8276 97.8303 86.6276C102.68 83.5094 104.301 82.1298 111.589 78.4866C108.076 76.5717 105.301 73.542 103.701 69.8754C102.717 67.5653 103.052 67.757 104.328 69.7777C106.485 73.1944 109.433 76.255 113.213 77.684C117.102 75.6969 121.41 74.6702 125.777 74.69C126.854 74.7293 126.969 74.8891 126.264 75.1237Z" fill="#2271B1"/>
<path fill-rule="evenodd" clip-rule="evenodd" d="M21.7624 32.925C22.1164 32.9623 22.3731 33.2796 22.3357 33.6336C22.2874 34.0917 22.3776 34.5716 22.4412 34.9096C22.4519 34.9664 22.4619 35.0193 22.4703 35.0673C22.5315 35.418 22.297 35.7519 21.9463 35.8132C21.5956 35.8744 21.2617 35.6399 21.2005 35.2892C21.1955 35.2609 21.1883 35.224 21.1797 35.1797C21.1183 34.8632 20.9832 34.1676 21.0538 33.4983C21.0911 33.1443 21.4084 32.8876 21.7624 32.925Z" fill="#35495C"/>
<path fill-rule="evenodd" clip-rule="evenodd" d="M139.925 116.176C140.279 116.214 140.536 116.531 140.499 116.885C140.45 117.343 140.541 117.823 140.604 118.161C140.615 118.218 140.625 118.271 140.633 118.319C140.695 118.669 140.46 119.003 140.109 119.065C139.759 119.126 139.425 118.891 139.364 118.541C139.359 118.512 139.351 118.475 139.343 118.431C139.281 118.115 139.146 117.419 139.217 116.75C139.254 116.396 139.571 116.139 139.925 116.176Z" fill="#35495C"/>
<path fill-rule="evenodd" clip-rule="evenodd" d="M170.809 125.576C171.163 125.613 171.42 125.93 171.382 126.284C171.334 126.742 171.424 127.222 171.488 127.56C171.499 127.617 171.509 127.67 171.517 127.718C171.578 128.069 171.344 128.403 170.993 128.464C170.642 128.525 170.308 128.291 170.247 127.94C170.242 127.912 170.235 127.875 170.226 127.83C170.165 127.514 170.03 126.818 170.1 126.149C170.138 125.795 170.455 125.538 170.809 125.576Z" fill="#35495C"/>
<path fill-rule="evenodd" clip-rule="evenodd" d="M15.0487 54.4091C15.4027 54.4464 15.6594 54.7637 15.622 55.1177C15.5737 55.5758 15.664 56.0557 15.7275 56.3937C15.7382 56.4506 15.7482 56.5034 15.7566 56.5514C15.8178 56.9021 15.5833 57.236 15.2326 57.2973C14.882 57.3586 14.548 57.124 14.4868 56.7733C14.4818 56.745 14.4747 56.7081 14.466 56.6638C14.4046 56.3474 14.2695 55.6518 14.3401 54.9825C14.3774 54.6285 14.6947 54.3718 15.0487 54.4091Z" fill="#35495C"/>
<path fill-rule="evenodd" clip-rule="evenodd" d="M133.212 83.9501C133.566 83.9875 133.822 84.3047 133.785 84.6587C133.737 85.1168 133.827 85.5967 133.891 85.9347C133.901 85.9916 133.911 86.0444 133.92 86.0925C133.981 86.4431 133.746 86.777 133.396 86.8383C133.045 86.8996 132.711 86.665 132.65 86.3144C132.645 86.286 132.638 86.2491 132.629 86.2048C132.568 85.8884 132.433 85.1928 132.503 84.5235C132.541 84.1695 132.858 83.9128 133.212 83.9501Z" fill="#35495C"/>
<path fill-rule="evenodd" clip-rule="evenodd" d="M71.4445 6.06977C71.7985 6.10709 72.0553 6.42433 72.0179 6.77833C71.9696 7.23646 72.0598 7.71637 72.1234 8.05433C72.1341 8.11121 72.144 8.16403 72.1525 8.21208C72.2137 8.56273 71.9791 8.89666 71.6285 8.95793C71.2778 9.01922 70.9439 8.78464 70.8826 8.43399C70.8777 8.40566 70.8705 8.36876 70.8619 8.32445C70.8005 8.00802 70.6654 7.31242 70.736 6.64311C70.7733 6.2891 71.0906 6.03242 71.4445 6.06977Z" fill="#35495C"/>
<path d="M125.322 144.818C125.128 144.818 124.968 144.755 124.841 144.628C124.714 144.501 124.651 144.341 124.651 144.147V139.223H119.727C119.533 139.223 119.373 139.16 119.246 139.033C119.119 138.906 119.056 138.746 119.056 138.552C119.056 138.358 119.119 138.198 119.246 138.071C119.373 137.944 119.533 137.881 119.727 137.881H124.651V132.957C124.651 132.763 124.714 132.603 124.841 132.476C124.968 132.349 125.128 132.286 125.322 132.286C125.516 132.286 125.676 132.349 125.803 132.476C125.93 132.603 125.993 132.763 125.993 132.957V137.881H130.917C131.111 137.881 131.271 137.944 131.398 138.071C131.525 138.198 131.588 138.358 131.588 138.552C131.588 138.746 131.525 138.906 131.398 139.033C131.271 139.16 131.111 139.223 130.917 139.223H125.993V144.147C125.993 144.341 125.93 144.501 125.803 144.628C125.676 144.755 125.516 144.818 125.322 144.818Z" fill="#1C3D94"/>
<path fill-rule="evenodd" clip-rule="evenodd" d="M32.4939 18.4856C31.3619 19.0515 30.3478 19.9427 30.0048 21.2652C29.8925 21.6983 29.9931 22.0604 30.0336 22.4839C29.1705 21.6208 28.2849 22.0193 27.6824 23.0392C27.4825 23.3775 27.3304 23.7343 27.2257 24.1128C27.1868 24.2532 27.1486 24.3938 27.13 24.5387C27.1233 24.5929 27.1572 24.7528 27.1356 24.7025C26.649 23.5676 26.1002 22.3675 24.9696 21.7437C24.5048 21.4871 24.0753 21.4622 23.5718 21.614C23.5134 21.6316 23.1955 21.7109 23.2025 21.7554C23.4954 20.877 23.0744 20.0363 22.2893 19.5801C22.0121 19.419 21.7194 19.2948 21.4222 19.176C21.3002 19.1272 20.9747 19.0719 21.0641 19.031C20.907 19.0746 21.4107 18.9614 21.4651 18.9419C21.7919 18.8246 22.1608 18.6896 22.4493 18.4946C22.9922 18.1277 23.8428 17.1144 22.977 16.0695C22.977 16.0695 23.1288 16.1452 23.1582 16.1556C23.3038 16.2064 23.4474 16.2457 23.5994 16.2726C24.0521 16.353 24.5346 16.3012 24.9293 16.0536C25.8733 15.4612 26.0559 13.788 26.182 12.78C26.1316 12.8427 26.2622 13.0498 26.2858 13.0954C26.4574 13.4293 26.6403 13.7582 26.8442 14.0735C27.3996 14.9324 28.8903 16.3685 29.9605 15.2983C29.8896 15.279 29.8199 15.7022 29.8121 15.7539C29.748 16.1727 29.7923 16.5842 30.0342 16.9418C30.5981 17.7755 31.5176 18.4856 32.4939 18.4856Z" fill="#2271B1"/>
<path fill-rule="evenodd" clip-rule="evenodd" d="M162.742 101.737C161.61 102.303 160.596 103.194 160.253 104.516C160.14 104.95 160.241 105.312 160.282 105.735C159.418 104.872 158.533 105.271 157.93 106.29C157.73 106.629 157.578 106.985 157.474 107.364C157.435 107.504 157.397 107.645 157.378 107.79C157.371 107.844 157.405 108.004 157.384 107.954C156.897 106.819 156.348 105.619 155.218 104.995C154.753 104.738 154.323 104.713 153.82 104.865C153.761 104.883 153.444 104.962 153.45 105.007C153.743 104.128 153.322 103.288 152.537 102.831C152.26 102.67 151.967 102.546 151.67 102.427C151.548 102.378 151.223 102.323 151.312 102.282C151.155 102.326 151.659 102.213 151.713 102.193C152.04 102.076 152.409 101.941 152.697 101.746C153.24 101.379 154.091 100.366 153.225 99.3208C153.225 99.3208 153.377 99.3965 153.406 99.4068C153.552 99.4576 153.695 99.4969 153.847 99.5238C154.3 99.6043 154.783 99.5524 155.177 99.3048C156.121 98.7124 156.304 97.0392 156.43 96.0312C156.38 96.0939 156.51 96.3011 156.534 96.3467C156.705 96.6805 156.888 97.0094 157.092 97.3248C157.648 98.1836 159.138 99.6198 160.209 98.5495C160.138 98.5302 160.068 98.9535 160.06 99.0051C159.996 99.4239 160.04 99.8354 160.282 100.193C160.846 101.027 161.766 101.737 162.742 101.737Z" fill="#2271B1"/>
<path d="M7.15881 88.4223C6.96485 88.4223 6.80446 88.3589 6.67765 88.2321C6.55083 88.1053 6.48742 87.9449 6.48742 87.751V82.8275H1.56396C1.37 82.8275 1.20962 82.7641 1.0828 82.6373C0.955986 82.5105 0.892578 82.3501 0.892578 82.1561C0.892578 81.9622 0.955986 81.8018 1.0828 81.675C1.20962 81.5481 1.37 81.4847 1.56396 81.4847H6.48742V76.5613C6.48742 76.3673 6.55083 76.2069 6.67765 76.0801C6.80446 75.9533 6.96485 75.8899 7.15881 75.8899C7.35276 75.8899 7.51315 75.9533 7.63996 76.0801C7.76678 76.2069 7.83019 76.3673 7.83019 76.5613V81.4847H12.7537C12.9476 81.4847 13.108 81.5481 13.2348 81.675C13.3616 81.8018 13.425 81.9622 13.425 82.1561C13.425 82.3501 13.3616 82.5105 13.2348 82.6373C13.108 82.7641 12.9476 82.8275 12.7537 82.8275H7.83019V87.751C7.83019 87.9449 7.76678 88.1053 7.63996 88.2321C7.51315 88.3589 7.35276 88.4223 7.15881 88.4223Z" fill="#1C3D94"/>
<path fill-rule="evenodd" clip-rule="evenodd" d="M114.403 21.1712C113.271 21.7371 112.257 22.6282 111.914 23.9507C111.801 24.3838 111.902 24.746 111.942 25.1694C111.079 24.3063 110.194 24.7049 109.591 25.7247C109.391 26.0631 109.239 26.4198 109.134 26.7983C109.096 26.9387 109.057 27.0794 109.039 27.2243C109.032 27.2784 109.066 27.4383 109.044 27.3881C108.558 26.2531 108.009 25.0531 106.878 24.4292C106.414 24.1727 105.984 24.1477 105.481 24.2996C105.422 24.3171 105.104 24.3964 105.111 24.4409C105.404 23.5625 104.983 22.7219 104.198 22.2656C103.921 22.1046 103.628 21.9803 103.331 21.8615C103.209 21.8128 102.883 21.7575 102.973 21.7166C102.816 21.7602 103.319 21.647 103.374 21.6274C103.701 21.5102 104.07 21.3751 104.358 21.1801C104.901 20.8133 105.752 19.7999 104.886 18.7551C104.886 18.7551 105.038 18.8308 105.067 18.8411C105.213 18.8919 105.356 18.9312 105.508 18.9582C105.961 19.0386 106.443 18.9867 106.838 18.7391C107.782 18.1468 107.965 16.4736 108.091 15.4656C108.04 15.5283 108.171 15.7354 108.195 15.781C108.366 16.1148 108.549 16.4437 108.753 16.7591C109.308 17.6179 110.799 19.0541 111.869 17.9839C111.798 17.9646 111.729 18.3878 111.721 18.4394C111.657 18.8582 111.701 19.2698 111.943 19.6274C112.507 20.4611 113.426 21.1712 114.403 21.1712Z" fill="#2271B1"/>
</g>
<defs>
<clipPath id="clip0_222_797">
<rect width="173.493" height="165" fill="white" transform="translate(0.753662)"/>
</clipPath>
</defs>
</svg>
