<svg width="45" height="40" viewBox="0 0 45 40" fill="none" xmlns="http://www.w3.org/2000/svg">
<path d="M33.8344 0.793249L26.2129 23.4532C26.0533 23.9272 25.6092 24.2465 25.1103 24.2465H12.1939C11.665 24.2465 11.2027 23.8906 11.068 23.3784L10.9017 22.7465C10.7072 22.0081 11.2643 21.2864 12.0276 21.2864H15.2205C15.7211 21.2864 16.1634 20.9671 16.3231 20.4931L17.7233 16.3356C17.9778 15.5806 17.4157 14.8007 16.6208 14.8007H9.70603C9.1772 14.8007 8.71489 14.4448 8.58018 13.9326L8.45712 13.4636C8.26255 12.7252 8.81966 12.0035 9.58297 12.0035H21.0726C21.5715 12.0035 22.0155 11.6842 22.1752 11.2119L23.5787 7.05443C23.8332 6.29943 23.2727 5.51782 22.4762 5.51782H1.16489C0.40158 5.51782 -0.155522 6.23956 0.039048 6.97793L6.0674 29.8641C6.2021 30.3746 6.66442 30.7322 7.19325 30.7322H29.7701C30.2706 30.7322 30.7146 30.4129 30.8726 29.9389L38.4941 7.27893C38.6538 6.80498 39.0978 6.48569 39.5967 6.48569H41.4792C41.9781 6.48569 42.4221 6.16639 42.5818 5.69244L43.982 1.53494C44.2364 0.779944 43.6744 0 42.8794 0L34.9353 0C34.4348 0 33.9907 0.319295 33.8327 0.793249H33.8344Z" fill="#01B7FF"/>
<path d="M25.0763 39.8374C27.3168 39.8374 29.1331 38.0211 29.1331 35.7805C29.1331 33.54 27.3168 31.7237 25.0763 31.7237C22.8357 31.7237 21.0194 33.54 21.0194 35.7805C21.0194 38.0211 22.8357 39.8374 25.0763 39.8374Z" fill="#01B7FF"/>
<path d="M11.9768 40C14.2173 40 16.0336 38.1837 16.0336 35.9431C16.0336 33.7026 14.2173 31.8863 11.9768 31.8863C9.73623 31.8863 7.91992 33.7026 7.91992 35.9431C7.91992 38.1837 9.73623 40 11.9768 40Z" fill="#01B7FF"/>
</svg>
