<svg xmlns="http://www.w3.org/2000/svg" width="210" height="210" xml:space="preserve"><path fill="#1D2428" d="M116.226 155.494c-2.052-1.334-4.651-2.533-7.787-3.574-2.398-.827-4.371-1.606-5.911-2.358-1.527-.744-2.656-1.571-3.377-2.441-.739-.888-1.085-1.951-1.085-3.172 0-.976.293-1.903.923-2.782.617-.875 1.584-1.606 2.896-2.157 1.326-.56 3.014-.862 5.11-.871 1.689.009 3.229.144 4.624.385 1.378.249 2.599.551 3.644.897 1.059.359 1.916.696 2.59 1.015l2.332-7.031c-1.409-.709-3.176-1.295-5.32-1.772-1.82-.402-3.903-.634-6.269-.713v-7.275h-6.409v7.639c-1.028.166-2.013.39-2.944.661-2.358.696-4.384 1.663-6.059 2.923-1.663 1.256-2.949 2.726-3.833 4.41-.888 1.684-1.326 3.539-1.343 5.534.013 2.31.617 4.344 1.811 6.103 1.194 1.759 2.896 3.286 5.093 4.594 2.188 1.304 4.799 2.428 7.818 3.373 2.266.726 4.113 1.483 5.521 2.262 1.409.774 2.441 1.628 3.084 2.559.656.932.98 2.012.967 3.22 0 1.326-.389 2.476-1.151 3.469-.752.98-1.864 1.75-3.325 2.297-1.461.551-3.246.823-5.337.84a30.776 30.776 0 0 1-4.961-.433 32.183 32.183 0 0 1-4.48-1.124c-1.396-.464-2.616-.967-3.675-1.531l-2.253 7.324c1.019.56 2.292 1.063 3.85 1.527 1.557.468 3.272.84 5.149 1.124a41.77 41.77 0 0 0 5.727.433l.341-.005v7.521h6.409v-8.124a24.452 24.452 0 0 0 2.323-.564c2.572-.774 4.707-1.829 6.396-3.181 1.702-1.339 2.962-2.892 3.797-4.642a12.811 12.811 0 0 0 1.247-5.574c0-2.31-.495-4.353-1.514-6.112-1.027-1.778-2.558-3.331-4.619-4.674z"/><g fill="#1D2428"><path d="M179.244 30.752C160.247 11.751 133.993 0 105.004 0 76.007 0 49.757 11.751 30.756 30.752 11.751 49.753 0 76.007 0 105s11.751 55.247 30.752 74.248C49.753 198.253 76.007 210 105.004 210c28.993 0 55.248-11.756 74.244-30.752C198.249 160.243 210 133.993 210 105s-11.756-55.247-30.756-74.248zm-3.465 145.027c-18.112 18.113-43.137 29.317-70.779 29.317s-52.671-11.204-70.783-29.317C16.105 157.666 4.9 132.641 4.9 105s11.205-52.666 29.317-70.779C52.329 16.109 77.355 4.904 104.996 4.904s52.666 11.205 70.779 29.317c18.113 18.113 29.317 43.138 29.317 70.779.004 27.641-11.201 52.666-29.313 70.779z"/><path d="M195.326 104.125c-.472-49.486-40.727-89.456-90.322-89.456-49.599 0-89.858 39.974-90.322 89.46L56.1 62.711l13.891 13.891-30.31 30.31h130.646l-30.31-30.31 13.891-13.891 41.418 41.414zM105 88.603 66.513 48.217h25.576V28.311c0-5.167 5.81-9.402 12.911-9.402s12.911 4.231 12.911 9.402v19.906h25.576L105 88.603z"/></g></svg>