<svg width="16" height="16" viewBox="0 0 16 16" fill="none" xmlns="http://www.w3.org/2000/svg">
<path fill-rule="evenodd" clip-rule="evenodd" d="M15.2902 6.29322L13.7747 7.1682C13.8136 7.44014 13.8336 7.71794 13.8336 8.00014C13.8336 8.2824 13.8136 8.5602 13.7747 8.83214L15.2902 9.70714L13.1235 13.4599L11.6076 12.5847C11.1732 12.9269 10.6888 13.2089 10.167 13.4177V15.1668H5.83365V13.4177C5.3118 13.2089 4.82738 12.9269 4.39302 12.5847L2.87712 13.4599L0.710456 9.70714L2.22593 8.83214C2.18706 8.5602 2.16698 8.2824 2.16698 8.00014C2.16698 7.71794 2.18706 7.44014 2.22592 7.1682L0.710449 6.29322L2.87712 2.54044L4.39302 3.41565C4.82738 3.07344 5.31179 2.79149 5.83365 2.58261V0.833496H10.167V2.58261C10.6888 2.79149 11.1732 3.07344 11.6076 3.41565L13.1235 2.54044L15.2902 6.29322ZM8.00016 10.3333C9.28883 10.3333 10.3335 9.28867 10.3335 8C10.3335 6.71134 9.28883 5.66667 8.00016 5.66667C6.7115 5.66667 5.66683 6.71134 5.66683 8C5.66683 9.28867 6.7115 10.3333 8.00016 10.3333Z" fill="#6B7280"/>
<path fill-rule="evenodd" clip-rule="evenodd" d="M15.2902 6.29322L13.7747 7.1682C13.8136 7.44014 13.8336 7.71794 13.8336 8.00014C13.8336 8.2824 13.8136 8.5602 13.7747 8.83214L15.2902 9.70714L13.1235 13.4599L11.6076 12.5847C11.1732 12.9269 10.6888 13.2089 10.167 13.4177V15.1668H5.83365V13.4177C5.3118 13.2089 4.82738 12.9269 4.39302 12.5847L2.87712 13.4599L0.710456 9.70714L2.22593 8.83214C2.18706 8.5602 2.16698 8.2824 2.16698 8.00014C2.16698 7.71794 2.18706 7.44014 2.22592 7.1682L0.710449 6.29322L2.87712 2.54044L4.39302 3.41565C4.82738 3.07344 5.31179 2.79149 5.83365 2.58261V0.833496H10.167V2.58261C10.6888 2.79149 11.1732 3.07344 11.6076 3.41565L13.1235 2.54044L15.2902 6.29322ZM8.00016 10.3333C9.28883 10.3333 10.3335 9.28867 10.3335 8C10.3335 6.71134 9.28883 5.66667 8.00016 5.66667C6.7115 5.66667 5.66683 6.71134 5.66683 8C5.66683 9.28867 6.7115 10.3333 8.00016 10.3333Z" fill="white" fill-opacity="0.5"/>
</svg>
