<svg width="20" height="21" viewBox="0 0 20 21" fill="none" xmlns="http://www.w3.org/2000/svg">
<g clip-path="url(#clip0_223_5271)">
<path d="M2.50031 3.00098H17.5001C17.7211 3.00098 17.9331 3.08877 18.0893 3.24505C18.2456 3.40133 18.3334 3.61329 18.3334 3.8343V17.1674C18.3334 17.3884 18.2456 17.6004 18.0893 17.7567C17.9331 17.913 17.7211 18.0008 17.5001 18.0008H2.50031C2.2793 18.0008 2.06734 17.913 1.91107 17.7567C1.75479 17.6004 1.66699 17.3884 1.66699 17.1674V3.8343C1.66699 3.61329 1.75479 3.40133 1.91107 3.24505C2.06734 3.08877 2.2793 3.00098 2.50031 3.00098ZM16.6668 9.66754H3.33363V16.3341H16.6668V9.66754ZM16.6668 8.0009V4.66762H3.33363V8.0009H16.6668ZM11.6668 13.0008H15.0001V14.6675H11.6668V13.0008Z" fill="#2794DA"/>
</g>
<defs>
<clipPath id="clip0_223_5271">
<rect width="19.9997" height="19.9997" fill="white" transform="translate(0 0.5)"/>
</clipPath>
</defs>
</svg>
