<svg width="20" height="21" viewBox="0 0 20 21" fill="none" xmlns="http://www.w3.org/2000/svg">
<g clip-path="url(#clip0_223_5292)">
<path d="M9.17993 10.3824L12.6524 6.90991" stroke="#2794DA" stroke-width="1.5" stroke-linecap="round" stroke-linejoin="round"/>
<path d="M12.6526 6.91L13.1259 3.785L15.8326 1.125L16.2509 3.31167L18.4376 3.73L15.7776 6.43667L12.6526 6.91Z" stroke="#2794DA" stroke-width="1.5" stroke-linecap="round" stroke-linejoin="round"/>
<path d="M17.5459 8.42754C17.9876 10.1018 17.8829 11.8733 17.247 13.4838C16.6111 15.0943 15.4774 16.4596 14.0111 17.3805C12.5448 18.3014 10.8227 18.7298 9.09585 18.6033C7.36899 18.4767 5.72772 17.8018 4.41137 16.677C3.09502 15.5521 2.17243 14.0362 1.77816 12.3502C1.38388 10.6642 1.53852 8.89629 2.21954 7.30434C2.90055 5.7124 4.07233 4.37965 5.56398 3.50043C7.05564 2.62121 8.78917 2.24151 10.5118 2.4167" stroke="#2794DA" stroke-width="1.5" stroke-linecap="round" stroke-linejoin="round"/>
<path d="M13.935 9.4475C14.1542 10.3314 14.0922 11.2617 13.7576 12.1087C13.423 12.9557 12.8324 13.6771 12.0683 14.1725C11.3041 14.668 10.4044 14.9126 9.49464 14.8724C8.58484 14.8322 7.71025 14.5091 6.99279 13.9482C6.27532 13.3873 5.75073 12.6166 5.49213 11.7434C5.23354 10.8702 5.25382 9.93805 5.55016 9.07693C5.8465 8.2158 6.40413 7.46859 7.14532 6.93944C7.88651 6.4103 8.77432 6.12559 9.68501 6.125" stroke="#2794DA" stroke-width="1.5" stroke-linecap="round" stroke-linejoin="round"/>
</g>
<defs>
<clipPath id="clip0_223_5292">
<rect width="20" height="20" fill="white" transform="translate(0 0.5)"/>
</clipPath>
</defs>
</svg>
