<svg width="22" height="23" viewBox="0 0 22 23" fill="none" xmlns="http://www.w3.org/2000/svg">
<g clip-path="url(#clip0_223_5284)">
<path d="M18.5 5.66211L11 1.33198V9.99224L18.5 5.66211ZM2 16.6621L9.5 20.9922V12.332L2 16.6621ZM1.75 11.1621C1.75 8.53876 3.87665 6.41211 6.5 6.41211V4.91211C3.04822 4.91211 0.25 7.71033 0.25 11.1621H1.75ZM19.25 11.1621C19.25 13.7855 17.1234 15.9121 14.5 15.9121V17.4121C17.9518 17.4121 20.75 14.6139 20.75 11.1621H19.25ZM6.5 6.41211H11.75V4.91211H6.5V6.41211ZM20.75 11.1621V8.16211H19.25V11.1621H20.75ZM0.25 11.1621V13.6621H1.75V11.1621H0.25ZM14.5 15.9121H10.5V17.4121H14.5V15.9121ZM10.5 15.9121H8.75V17.4121H10.5V15.9121Z" fill="#2794DA"/>
</g>
<defs>
<clipPath id="clip0_223_5284">
<rect width="22" height="22" fill="white" transform="translate(0 0.5)"/>
</clipPath>
</defs>
</svg>
