<svg width="20" height="19" viewBox="0 0 20 19" fill="none" xmlns="http://www.w3.org/2000/svg">
<path d="M18.3429 16.743L1.6715 10.9287C1.39948 10.8338 1.16251 10.6588 0.991695 10.4268C0.82088 10.1948 0.724204 9.91661 0.714355 9.62868V8.07154C0.715532 7.77623 0.808198 7.48854 0.979604 7.24806C1.15101 7.00758 1.39273 6.82613 1.6715 6.72868L18.3429 0.928679C18.45 0.892524 18.564 0.882273 18.6758 0.898768C18.7876 0.915262 18.8938 0.958033 18.9859 1.02357C19.0779 1.0891 19.153 1.17553 19.2052 1.27575C19.2573 1.37597 19.2849 1.48714 19.2858 1.60011V16.0715C19.2849 16.1845 19.2573 16.2957 19.2052 16.3959C19.153 16.4961 19.0779 16.5825 18.9859 16.6481C18.8938 16.7136 18.7876 16.7564 18.6758 16.7729C18.564 16.7894 18.45 16.7791 18.3429 16.743Z" stroke="#2794DA" stroke-width="1.5" stroke-linecap="round" stroke-linejoin="round"/>
<path d="M12.1145 14.6002C11.9942 15.5925 11.5002 16.5016 10.733 17.1425C9.96588 17.7833 8.98331 18.1076 7.98541 18.0494C6.98752 17.9911 6.04937 17.5546 5.36203 16.8288C4.67468 16.1031 4.28984 15.1426 4.28589 14.143V11.8716" stroke="#2794DA" stroke-width="1.5" stroke-linecap="round" stroke-linejoin="round"/>
</svg>
