<svg width="20" height="21" viewBox="0 0 20 21" fill="none" xmlns="http://www.w3.org/2000/svg">
<path d="M14.5249 12.7583L18.9166 14.6666C18.991 14.699 19.0544 14.7524 19.0989 14.8203C19.1434 14.8882 19.1671 14.9676 19.1671 15.0487C19.1671 15.1299 19.1434 15.2093 19.0989 15.2771C19.0544 15.345 18.991 15.3984 18.9166 15.4308L10.3791 19.145C10.3265 19.1679 10.2698 19.1798 10.2124 19.1798C10.1551 19.1798 10.0983 19.1679 10.0458 19.145L1.50828 15.4325C1.43385 15.4001 1.3705 15.3467 1.32601 15.2788C1.28152 15.2109 1.25781 15.1315 1.25781 15.0504C1.25781 14.9692 1.28152 14.8898 1.32601 14.822C1.3705 14.7541 1.43385 14.7007 1.50828 14.6683L5.89994 12.7583" stroke="#2794DA" stroke-width="1.5" stroke-linecap="round" stroke-linejoin="round"/>
<path d="M14.5249 8.17505L18.9166 10.0834C18.991 10.1158 19.0544 10.1692 19.0989 10.237C19.1434 10.3049 19.1671 10.3843 19.1671 10.4655C19.1671 10.5466 19.1434 10.626 19.0989 10.6939C19.0544 10.7618 18.991 10.8152 18.9166 10.8475L10.3791 14.5617C10.3265 14.5847 10.2698 14.5965 10.2124 14.5965C10.1551 14.5965 10.0983 14.5847 10.0458 14.5617L1.50828 10.8492C1.43385 10.8168 1.3705 10.7634 1.32601 10.6956C1.28152 10.6277 1.25781 10.5483 1.25781 10.4671C1.25781 10.386 1.28152 10.3066 1.32601 10.2387C1.3705 10.1708 1.43385 10.1174 1.50828 10.085L5.89994 8.17505" stroke="#2794DA" stroke-width="1.5" stroke-linecap="round" stroke-linejoin="round"/>
<path d="M10.3792 9.9742C10.3266 9.9969 10.2698 10.0086 10.2125 10.0086C10.1552 10.0086 10.0985 9.9969 10.0459 9.9742L1.50836 6.2617C1.43466 6.22898 1.37204 6.17559 1.32809 6.10799C1.28414 6.04039 1.26074 5.96149 1.26074 5.88086C1.26074 5.80023 1.28414 5.72133 1.32809 5.65373C1.37204 5.58614 1.43466 5.53274 1.50836 5.50003L10.0459 1.78503C10.0984 1.76209 10.1552 1.75024 10.2125 1.75024C10.2699 1.75024 10.3266 1.76209 10.3792 1.78503L18.9167 5.50003C18.9911 5.5324 19.0545 5.58581 19.099 5.65368C19.1435 5.72156 19.1672 5.80095 19.1672 5.88211C19.1672 5.96327 19.1435 6.04267 19.099 6.11054C19.0545 6.17842 18.9911 6.23182 18.9167 6.2642L10.3792 9.9742Z" stroke="#2794DA" stroke-width="1.5" stroke-linecap="round" stroke-linejoin="round"/>
</svg>
