<svg width="20" height="21" viewBox="0 0 20 21" fill="none" xmlns="http://www.w3.org/2000/svg">
<path d="M12.2585 8.15696L11.8878 7.78628C11.4784 7.37684 10.8146 7.37684 10.4051 7.78628L2.99154 15.1999C2.5821 15.6093 2.5821 16.2731 2.99154 16.6826L3.36222 17.0533C3.77166 17.4627 4.4355 17.4627 4.84494 17.0533L12.2585 9.63968C12.668 9.23023 12.668 8.5664 12.2585 8.15696Z" stroke="#2794DA" stroke-width="1.5" stroke-linecap="round" stroke-linejoin="round"/>
<path d="M9.15283 9.43262L10.8471 10.8919" stroke="#2794DA" stroke-width="1.5" stroke-linecap="round" stroke-linejoin="round"/>
<path d="M4.82202 6.81934H6.6896" stroke="#2794DA" stroke-width="1.5" stroke-linecap="round" stroke-linejoin="round"/>
<path d="M5.75586 5.8855V7.75307" stroke="#2794DA" stroke-width="1.5" stroke-linecap="round" stroke-linejoin="round"/>
<path d="M10.4248 15.2234H12.2924" stroke="#2794DA" stroke-width="1.5" stroke-linecap="round" stroke-linejoin="round"/>
<path d="M16.5796 10.7058H18.4472" stroke="#2794DA" stroke-width="1.5" stroke-linecap="round" stroke-linejoin="round"/>
<path d="M9 3.59595H10.8676" stroke="#2794DA" stroke-width="1.5" stroke-linecap="round" stroke-linejoin="round"/>
<path d="M11.3586 14.2896V16.1571" stroke="#2794DA" stroke-width="1.5" stroke-linecap="round" stroke-linejoin="round"/>
<path d="M17.5132 9.77222V11.6398" stroke="#2794DA" stroke-width="1.5" stroke-linecap="round" stroke-linejoin="round"/>
<path d="M9.93359 2.66211V4.52968" stroke="#2794DA" stroke-width="1.5" stroke-linecap="round" stroke-linejoin="round"/>
<path d="M14 5.59595H15.8676" stroke="#2794DA" stroke-width="1.5" stroke-linecap="round" stroke-linejoin="round"/>
<path d="M14.9336 4.66211V6.52968" stroke="#2794DA" stroke-width="1.5" stroke-linecap="round" stroke-linejoin="round"/>
</svg>
