<svg style="position: absolute; width: 0; height: 0; overflow: hidden;" version="1.1" xmlns="http://www.w3.org/2000/svg" xmlns:xlink="http://www.w3.org/1999/xlink">
<defs>
	<symbol id="icon-mastercard" viewBox="0 0 51 32">
		<rect x="0" y="0" width="51" height="32"/>
		<path d="M14.327,29.327L14.327,27.523C14.33,27.494 14.331,27.464 14.331,27.435C14.331,26.859 13.858,26.385 13.282,26.385C13.262,26.385 13.241,26.386 13.221,26.387C12.817,26.361 12.429,26.557 12.211,26.898C12.012,26.568 11.647,26.371 11.261,26.387C10.919,26.367 10.59,26.527 10.395,26.808L10.395,26.456L9.803,26.456L9.803,29.333L10.386,29.333L10.386,27.68C10.383,27.655 10.382,27.631 10.382,27.607C10.382,27.227 10.694,26.915 11.074,26.915C11.087,26.915 11.1,26.915 11.114,26.916C11.529,26.916 11.763,27.187 11.763,27.674L11.763,29.33L12.346,29.33L12.346,27.68C12.344,27.657 12.343,27.633 12.343,27.61C12.343,27.229 12.656,26.915 13.037,26.915C13.049,26.915 13.062,26.916 13.074,26.916C13.501,26.916 13.729,27.187 13.729,27.674L13.729,29.33L14.327,29.327ZM23.695,26.456L22.649,26.456L22.649,25.584L22.063,25.584L22.063,26.456L21.462,26.456L21.462,26.979L22.063,26.979L22.063,28.341C22.063,29.009 22.297,29.405 23.037,29.405C23.313,29.406 23.584,29.329 23.819,29.183L23.638,28.672C23.471,28.772 23.28,28.828 23.085,28.834C22.784,28.834 22.646,28.642 22.646,28.353L22.646,26.973L23.692,26.973L23.695,26.456ZM29.035,26.384C28.719,26.378 28.422,26.538 28.253,26.805L28.253,26.456L27.682,26.456L27.682,29.333L28.259,29.333L28.259,27.71C28.259,27.235 28.488,26.928 28.896,26.928C29.03,26.926 29.163,26.951 29.287,27L29.48,26.456C29.337,26.405 29.186,26.379 29.035,26.378L29.035,26.384ZM20.963,26.685C20.609,26.474 20.202,26.37 19.79,26.384C19.063,26.384 18.618,26.727 18.618,27.286C18.618,27.755 18.942,28.038 19.586,28.128L19.886,28.17C20.229,28.218 20.415,28.338 20.415,28.501C20.415,28.723 20.163,28.867 19.736,28.867C19.392,28.879 19.055,28.773 18.78,28.567L18.479,29.018C18.846,29.267 19.281,29.398 19.724,29.39C20.554,29.39 21.014,29.006 21.014,28.458C21.014,27.911 20.662,27.704 20.04,27.614L19.739,27.572C19.468,27.536 19.228,27.451 19.228,27.271C19.228,27.091 19.456,26.916 19.799,26.916C20.116,26.92 20.426,27.005 20.701,27.163L20.963,26.685ZM29.681,27.887C29.68,27.911 29.679,27.935 29.679,27.958C29.679,28.745 30.327,29.392 31.113,29.392C31.137,29.392 31.161,29.392 31.184,29.39C31.56,29.41 31.929,29.287 32.218,29.048L31.918,28.597C31.702,28.761 31.438,28.852 31.166,28.855C30.666,28.807 30.28,28.382 30.28,27.88C30.28,27.377 30.666,26.952 31.166,26.904C31.438,26.907 31.702,26.998 31.918,27.163L32.218,26.712C31.929,26.472 31.56,26.35 31.184,26.369C31.161,26.368 31.137,26.367 31.113,26.367C30.327,26.367 29.679,27.015 29.679,27.801C29.679,27.825 29.68,27.849 29.681,27.872L29.681,27.887ZM25.634,26.384C24.793,26.384 24.212,26.985 24.212,27.887C24.211,27.917 24.21,27.946 24.21,27.975C24.21,28.752 24.849,29.391 25.626,29.391C25.643,29.391 25.66,29.391 25.677,29.39C26.105,29.405 26.525,29.262 26.855,28.988L26.554,28.561C26.317,28.751 26.023,28.857 25.719,28.861C25.284,28.877 24.905,28.556 24.85,28.125L26.999,28.125C26.999,28.047 26.999,27.968 26.999,27.884C26.999,26.982 26.452,26.381 25.644,26.381L25.634,26.384ZM25.634,26.919C25.643,26.919 25.651,26.919 25.659,26.919C26.059,26.919 26.389,27.246 26.392,27.647L24.85,27.647C24.872,27.231 25.228,26.906 25.644,26.919L25.634,26.919ZM17.845,27.89L17.845,26.456L17.268,26.456L17.268,26.805C17.041,26.526 16.695,26.369 16.336,26.384C15.507,26.384 14.825,27.066 14.825,27.895C14.825,28.724 15.507,29.405 16.336,29.405C16.695,29.42 17.041,29.264 17.268,28.985L17.268,29.333L17.845,29.333L17.845,27.89ZM15.515,27.89C15.513,27.866 15.512,27.842 15.512,27.818C15.512,27.323 15.919,26.916 16.414,26.916C16.415,26.916 16.416,26.916 16.417,26.916C16.917,26.964 17.303,27.389 17.303,27.892C17.303,28.394 16.917,28.819 16.417,28.867C16.416,28.867 16.415,28.867 16.414,28.867C15.919,28.867 15.512,28.46 15.512,27.965C15.512,27.941 15.513,27.917 15.515,27.893L15.515,27.89ZM37.729,26.387C37.413,26.381 37.116,26.541 36.948,26.808L36.948,26.456L36.376,26.456L36.376,29.333L36.954,29.333L36.954,27.71C36.954,27.235 37.182,26.928 37.591,26.928C37.725,26.926 37.857,26.951 37.982,27L38.174,26.459C38.031,26.408 37.881,26.382 37.729,26.381L37.729,26.387ZM42.365,28.918C42.404,28.918 42.443,28.925 42.479,28.939C42.514,28.954 42.545,28.974 42.572,29C42.599,29.026 42.62,29.056 42.636,29.09C42.666,29.161 42.666,29.241 42.636,29.312C42.62,29.346 42.599,29.377 42.572,29.402C42.545,29.428 42.514,29.449 42.479,29.463C42.443,29.478 42.404,29.487 42.365,29.487C42.249,29.486 42.143,29.418 42.094,29.312C42.064,29.241 42.064,29.161 42.094,29.09C42.11,29.056 42.131,29.026 42.158,29C42.185,28.974 42.216,28.954 42.251,28.939C42.287,28.922 42.325,28.912 42.365,28.909L42.365,28.918ZM42.365,29.427C42.395,29.427 42.425,29.421 42.452,29.408C42.478,29.397 42.502,29.381 42.521,29.36C42.599,29.276 42.599,29.144 42.521,29.06C42.502,29.039 42.478,29.023 42.452,29.012C42.425,29 42.395,28.993 42.365,28.994C42.335,28.994 42.305,29 42.278,29.012C42.251,29.023 42.226,29.039 42.206,29.06C42.128,29.144 42.128,29.276 42.206,29.36C42.226,29.381 42.251,29.397 42.278,29.408C42.306,29.418 42.335,29.422 42.365,29.421L42.365,29.427ZM42.383,29.069C42.411,29.067 42.439,29.076 42.461,29.093C42.48,29.108 42.49,29.132 42.488,29.156C42.489,29.176 42.482,29.196 42.467,29.21C42.45,29.226 42.428,29.235 42.404,29.237L42.491,29.336L42.422,29.336L42.341,29.237L42.314,29.237L42.314,29.336L42.257,29.336L42.257,29.072L42.383,29.069ZM42.317,29.12L42.317,29.192L42.383,29.192C42.395,29.196 42.407,29.196 42.419,29.192C42.423,29.184 42.423,29.173 42.419,29.165C42.423,29.156 42.423,29.146 42.419,29.138C42.407,29.135 42.395,29.135 42.383,29.138L42.317,29.12ZM35.513,27.896L35.513,26.456L34.936,26.456L34.936,26.805C34.71,26.526 34.364,26.369 34.004,26.384C33.176,26.384 32.494,27.066 32.494,27.895C32.494,28.724 33.176,29.405 34.004,29.405C34.364,29.42 34.71,29.264 34.936,28.985L34.936,29.333L35.513,29.333L35.513,27.896ZM33.184,27.896C33.182,27.872 33.181,27.848 33.181,27.824C33.181,27.329 33.588,26.922 34.083,26.922C34.084,26.922 34.084,26.922 34.085,26.922C34.585,26.97 34.972,27.395 34.972,27.898C34.972,28.4 34.585,28.825 34.085,28.873C34.084,28.873 34.084,28.873 34.083,28.873C33.588,28.873 33.181,28.466 33.181,27.971C33.181,27.947 33.182,27.923 33.184,27.899L33.184,27.896ZM41.322,27.896L41.322,25.296L40.745,25.296L40.745,26.799C40.518,26.52 40.172,26.363 39.813,26.378C38.984,26.378 38.302,27.06 38.302,27.889C38.302,28.718 38.984,29.399 39.813,29.399C40.172,29.414 40.518,29.258 40.745,28.979L40.745,29.327L41.322,29.327L41.322,27.896ZM38.992,27.896C38.99,27.872 38.989,27.848 38.989,27.824C38.989,27.329 39.396,26.922 39.891,26.922C39.892,26.922 39.893,26.922 39.894,26.922C40.37,26.995 40.725,27.409 40.725,27.891C40.725,28.377 40.363,28.793 39.882,28.861C39.881,28.861 39.88,28.861 39.879,28.861C39.384,28.861 38.977,28.454 38.977,27.959C38.977,27.936 38.978,27.913 38.98,27.89L38.992,27.896Z" style="fill:#fff;fill-rule:nonzero;"/>
		<rect x="20.764" y="4.552" width="9.47" height="17.019" style="fill:#ff5f00;"/>
		<path d="M21.365,13.063C21.363,9.744 22.889,6.603 25.499,4.555C23.593,3.056 21.237,2.241 18.812,2.241C12.874,2.241 7.989,7.127 7.989,13.064C7.989,19.002 12.874,23.887 18.812,23.887C21.237,23.887 23.593,23.072 25.499,21.574C22.888,19.524 21.362,16.382 21.365,13.063Z" style="fill:#eb001b;fill-rule:nonzero;"/>
		<pathd="M41.986,19.77L41.986,19.421L42.128,19.421L42.128,19.349L41.77,19.349L41.77,19.421L41.911,19.421L41.911,19.77L41.986,19.77ZM42.681,19.77L42.681,19.349L42.572,19.349L42.446,19.65L42.32,19.349L42.212,19.349L42.212,19.77L42.287,19.77L42.287,19.451L42.404,19.725L42.485,19.725L42.603,19.451L42.603,19.77L42.681,19.77Z" style="fill:#f79e1b;fill-rule:nonzero;"/>
		<path d="M43.011,13.063C43.011,19 38.126,23.886 32.188,23.886C29.763,23.886 27.406,23.07 25.499,21.571C28.108,19.52 29.635,16.38 29.635,13.061C29.635,9.743 28.108,6.602 25.499,4.552C27.406,3.052 29.763,2.237 32.188,2.237C38.126,2.237 43.011,7.123 43.011,13.06L43.011,13.063Z" style="fill:#f79e1b;fill-rule:nonzero;"/>
	</symbol>

	<symbol id="icon-americanexpress" viewBox="0 0 32 32">
		<path d="M32,17.318L32,0L0,0L0,32L32,32L32,22.664C31.929,22.664 32,17.318 32,17.318" style="fill:#006fcf;fill-rule:nonzero;"/>
		<path d="M28.08,15.537L30.503,15.537L30.503,9.906L27.866,9.906L27.866,10.69L27.367,9.906L25.087,9.906L25.087,10.904L24.659,9.906L20.953,9.906C20.811,9.906 20.597,9.906 20.454,9.906C20.312,9.906 20.169,9.978 20.027,9.978C19.884,9.978 19.813,10.049 19.67,10.12C19.528,10.192 19.457,10.192 19.314,10.263L19.314,10.12L19.314,9.906L7.269,9.906L6.913,10.833L6.557,9.906L3.706,9.906L3.706,10.904L3.278,9.906L0.998,9.906L0,12.33L0,15.537L1.639,15.537L1.924,14.753L2.494,14.753L2.78,15.537L15.323,15.537L15.323,14.824L15.822,15.537L19.314,15.537L19.314,15.394L19.314,15.109C19.385,15.18 19.528,15.18 19.599,15.252C19.67,15.323 19.813,15.323 19.884,15.394C20.027,15.465 20.169,15.465 20.312,15.465L22.878,15.465L23.163,14.682L23.733,14.682L24.018,15.465L27.51,15.465L27.51,14.753L28.08,15.537ZM32,22.664L32,17.39L12.401,17.39L11.902,18.102L11.403,17.39L5.702,17.39L5.702,23.02L11.403,23.02L11.902,22.307L12.401,23.02L15.964,23.02L15.964,21.808L15.822,21.808C16.321,21.808 16.748,21.737 17.105,21.595L17.105,23.091L19.67,23.091L19.67,22.379L20.169,23.091L30.788,23.091C31.216,22.949 31.644,22.878 32,22.664Z" style="fill:#fff;fill-rule:nonzero;"/>
		<path d="M30.788,21.31L28.864,21.31L28.864,22.094L30.717,22.094C31.501,22.094 32,21.595 32,20.882C32,20.169 31.572,19.813 30.86,19.813L30.004,19.813C29.791,19.813 29.648,19.67 29.648,19.457C29.648,19.243 29.791,19.1 30.004,19.1L31.644,19.1L32,18.316L30.076,18.316C29.292,18.316 28.793,18.815 28.793,19.457C28.793,20.169 29.22,20.526 29.933,20.526L30.788,20.526C31.002,20.526 31.145,20.668 31.145,20.882C31.216,21.167 31.073,21.31 30.788,21.31ZM27.296,21.31L25.372,21.31L25.372,22.094L27.225,22.094C28.009,22.094 28.508,21.595 28.508,20.882C28.508,20.169 28.08,19.813 27.367,19.813L26.512,19.813C26.298,19.813 26.156,19.67 26.156,19.457C26.156,19.243 26.298,19.1 26.512,19.1L28.151,19.1L28.508,18.316L26.584,18.316C25.8,18.316 25.301,18.815 25.301,19.457C25.301,20.169 25.728,20.526 26.441,20.526L27.296,20.526C27.51,20.526 27.653,20.668 27.653,20.882C27.724,21.167 27.51,21.31 27.296,21.31ZM24.802,19.029L24.802,18.245L21.808,18.245L21.808,22.022L24.802,22.022L24.802,21.238L22.664,21.238L22.664,20.454L24.731,20.454L24.731,19.67L22.664,19.67L22.664,18.958L24.802,18.958L24.802,19.029ZM19.955,19.029C20.312,19.029 20.454,19.243 20.454,19.457C20.454,19.67 20.312,19.884 19.955,19.884L18.886,19.884L18.886,18.958L19.955,19.029ZM18.886,20.668L19.314,20.668L20.454,22.022L21.523,22.022L20.241,20.597C20.882,20.454 21.238,20.027 21.238,19.457C21.238,18.744 20.739,18.245 19.955,18.245L17.96,18.245L17.96,22.022L18.815,22.022L18.886,20.668ZM16.606,19.528C16.606,19.813 16.463,20.027 16.107,20.027L14.967,20.027L14.967,19.029L16.036,19.029C16.392,19.029 16.606,19.243 16.606,19.528ZM14.111,18.245L14.111,22.022L14.967,22.022L14.967,20.739L16.107,20.739C16.891,20.739 17.461,20.241 17.461,19.457C17.461,18.744 16.962,18.174 16.178,18.174L14.111,18.245ZM12.829,22.022L13.898,22.022L12.401,20.098L13.898,18.245L12.829,18.245L11.902,19.457L10.976,18.245L9.906,18.245L11.403,20.098L9.906,21.951L10.976,21.951L11.902,20.739L12.829,22.022ZM9.621,19.029L9.621,18.245L6.628,18.245L6.628,22.022L9.621,22.022L9.621,21.238L7.483,21.238L7.483,20.454L9.55,20.454L9.55,19.67L7.483,19.67L7.483,18.958L9.621,18.958L9.621,19.029ZM26.94,12.33L28.437,14.61L29.506,14.61L29.506,10.833L28.65,10.833L28.65,13.327L28.437,12.971L27.082,10.833L25.942,10.833L25.942,14.61L26.797,14.61L26.797,12.045L26.94,12.33ZM23.234,12.258L23.519,11.474L23.804,12.258L24.16,13.114L22.878,13.114L23.234,12.258ZM24.731,14.61L25.657,14.61L24.018,10.833L22.878,10.833L21.238,14.61L22.165,14.61L22.521,13.826L24.374,13.826L24.731,14.61ZM20.739,14.61L21.096,13.826L20.882,13.826C20.241,13.826 19.884,13.399 19.884,12.757L19.884,12.686C19.884,12.045 20.241,11.617 20.882,11.617L21.808,11.617L21.808,10.833L20.811,10.833C19.67,10.833 19.029,11.617 19.029,12.686L19.029,12.757C19.029,13.898 19.67,14.61 20.739,14.61ZM17.532,14.61L18.388,14.61L18.388,12.9L18.388,10.904L17.532,10.904L17.532,14.61ZM15.679,11.617C16.036,11.617 16.178,11.831 16.178,12.045C16.178,12.258 16.036,12.472 15.679,12.472L14.61,12.472L14.61,11.546L15.679,11.617ZM14.61,13.256L15.038,13.256L16.178,14.61L17.247,14.61L15.964,13.185C16.606,13.042 16.962,12.615 16.962,12.045C16.962,11.332 16.463,10.833 15.679,10.833L13.684,10.833L13.684,14.61L14.539,14.61L14.61,13.256ZM13.042,11.617L13.042,10.833L10.049,10.833L10.049,14.61L13.042,14.61L13.042,13.826L10.904,13.826L10.904,13.042L12.971,13.042L12.971,12.258L10.904,12.258L10.904,11.546L13.042,11.546L13.042,11.617ZM6.557,14.61L7.341,14.61L8.41,11.546L8.41,14.61L9.265,14.61L9.265,10.833L7.84,10.833L6.984,13.399L6.129,10.833L4.704,10.833L4.704,14.61L5.559,14.61L5.559,11.546L6.557,14.61ZM1.924,12.258L2.209,11.474L2.494,12.258L2.851,13.114L1.568,13.114L1.924,12.258ZM3.421,14.61L4.347,14.61L2.708,10.833L1.639,10.833L0,14.61L0.927,14.61L1.283,13.826L3.136,13.826L3.421,14.61Z" style="fill:#006fcf;fill-rule:nonzero;"/>
	</symbol>
	
	<symbol id="icon-visa" viewBox="0 0 51 32">
		<rect x="0" y="4.608" width="51" height="22.794" style="fill:#fff;"/>
		<rect x="0" y="27.402" width="51" height="4.608" style="fill:#f7b600;"/>
		<rect x="0" y="0" width="51" height="4.608" style="fill:#1a1f71;"/>
		<path d="M25.303,9.686L22.593,22.352L19.316,22.352L22.026,9.686L25.303,9.686ZM39.089,17.865L40.814,13.108L41.806,17.865L39.089,17.865ZM42.747,22.352L45.777,22.352L43.129,9.686L40.334,9.686C39.704,9.686 39.173,10.051 38.938,10.614L34.021,22.352L37.463,22.352L38.146,20.46L42.35,20.46L42.747,22.352ZM34.192,18.217C34.206,14.874 29.571,14.689 29.602,13.195C29.612,12.741 30.045,12.258 30.991,12.134C31.461,12.074 32.755,12.025 34.223,12.701L34.797,10.014C34.009,9.729 32.994,9.454 31.732,9.454C28.493,9.454 26.214,11.175 26.195,13.641C26.175,15.464 27.823,16.481 29.063,17.088C30.341,17.709 30.769,18.108 30.763,18.662C30.754,19.512 29.744,19.888 28.803,19.902C27.154,19.928 26.199,19.457 25.438,19.102L24.843,21.879C25.61,22.23 27.023,22.535 28.486,22.551C31.93,22.551 34.182,20.85 34.192,18.217M20.62,9.686L15.311,22.352L11.847,22.352L9.234,12.243C9.076,11.622 8.938,11.393 8.456,11.131C7.668,10.702 6.367,10.302 5.223,10.053L5.301,9.686L10.877,9.686C11.587,9.686 12.226,10.158 12.389,10.976L13.769,18.306L17.178,9.686L20.62,9.686Z" style="fill:#1a1f71;fill-rule:nonzero;"/>
	</symbol>

	<symbol id="icon-discover" viewBox="0 0 50 32">
		<rect x="0" y="0" width="50" height="32" style="fill:#fff;"/>
		<path d="M49.673,17.776C49.673,17.776 36.1,27.354 11.24,31.64L49.673,31.64L49.673,17.776Z" style="fill:#f58025;fill-rule:nonzero;"/>
		<path d="M49.668,0.363L49.668,31.637L0.361,31.637C0.361,31.282 0.359,0.72 0.359,0.364C0.72,0.364 49.306,0.363 49.668,0.363M49.849,0L0,0.005L0,32L50.029,32L50.026,0L49.849,0Z" style="fill:#231f20;fill-rule:nonzero;"/>
		<path d="M6.024,15.23C5.581,15.631 5.004,15.806 4.092,15.806L3.713,15.806L3.713,11.018L4.092,11.018C5.004,11.018 5.558,11.182 6.024,11.604C6.513,12.039 6.806,12.713 6.806,13.406C6.806,14.101 6.513,14.796 6.024,15.23M4.375,9.792L2.302,9.792L2.302,17.031L4.364,17.031C5.46,17.031 6.252,16.773 6.947,16.195C7.773,15.512 8.261,14.482 8.261,13.417C8.261,11.28 6.665,9.792 4.375,9.792" style="fill:#231f20;fill-rule:nonzero;"/>
		<rect x="8.911" y="9.792" width="1.412" height="7.24" style="fill:#231f20;"/>
		<path d="M13.776,12.57C12.928,12.256 12.68,12.05 12.68,11.658C12.68,11.202 13.123,10.856 13.732,10.856C14.155,10.856 14.502,11.03 14.87,11.442L15.609,10.475C15.002,9.944 14.276,9.672 13.482,9.672C12.201,9.672 11.224,10.562 11.224,11.746C11.224,12.744 11.679,13.255 13.005,13.732C13.558,13.927 13.839,14.057 13.981,14.144C14.263,14.328 14.405,14.589 14.405,14.893C14.405,15.48 13.938,15.914 13.308,15.914C12.635,15.914 12.092,15.577 11.767,14.949L10.855,15.827C11.505,16.782 12.287,17.206 13.361,17.206C14.829,17.206 15.858,16.23 15.858,14.828C15.858,13.678 15.382,13.158 13.776,12.57" style="fill:#231f20;fill-rule:nonzero;"/>
		<path d="M16.304,13.417C16.304,15.544 17.974,17.194 20.125,17.194C20.733,17.194 21.253,17.075 21.895,16.773L21.895,15.11C21.331,15.675 20.831,15.903 20.19,15.903C18.768,15.903 17.759,14.872 17.759,13.406C17.759,12.016 18.8,10.92 20.125,10.92C20.798,10.92 21.308,11.16 21.895,11.734L21.895,10.073C21.275,9.758 20.766,9.628 20.158,9.628C18.019,9.628 16.304,11.312 16.304,13.417" style="fill:#231f20;fill-rule:nonzero;"/>
		<path d="M33.092,14.655L31.161,9.792L29.619,9.792L32.691,17.217L33.451,17.217L36.578,9.792L35.047,9.792L33.092,14.655Z" style="fill:#231f20;fill-rule:nonzero;"/>
		<path d="M37.217,17.031L41.221,17.031L41.221,15.806L38.628,15.806L38.628,13.851L41.126,13.851L41.126,12.625L38.628,12.625L38.628,11.018L41.221,11.018L41.221,9.792L37.217,9.792L37.217,17.031Z" style="fill:#231f20;fill-rule:nonzero;"/>
		<path d="M43.98,13.125L43.567,13.125L43.567,10.932L44.002,10.932C44.882,10.932 45.36,11.301 45.36,12.005C45.36,12.733 44.882,13.125 43.98,13.125M46.813,11.929C46.813,10.574 45.879,9.792 44.251,9.792L42.157,9.792L42.157,17.031L43.567,17.031L43.567,14.123L43.751,14.123L45.706,17.031L47.442,17.031L45.163,13.981C46.227,13.765 46.813,13.037 46.813,11.929" style="fill:#231f20;fill-rule:nonzero;"/>
		<path d="M30.042,13.416C30.042,15.542 28.32,17.265 26.193,17.265C24.067,17.265 22.344,15.542 22.344,13.416C22.344,11.29 24.067,9.567 26.193,9.567C28.32,9.567 30.042,11.29 30.042,13.416" style="fill:#f58025;fill-rule:nonzero;"/>
		<path d="M47.299,10.022L47.273,10.022L47.273,9.856L47.3,9.856C47.375,9.856 47.415,9.883 47.415,9.938C47.415,9.994 47.375,10.022 47.299,10.022M47.566,9.935C47.566,9.809 47.479,9.739 47.326,9.739L47.121,9.739L47.121,10.376L47.273,10.376L47.273,10.129L47.451,10.376L47.636,10.376L47.427,10.113C47.517,10.089 47.566,10.024 47.566,9.935" style="fill:#231f20;fill-rule:nonzero;"/>
		<path d="M47.354,10.512C47.111,10.512 46.912,10.309 46.912,10.057C46.912,9.804 47.108,9.601 47.354,9.601C47.596,9.601 47.793,9.808 47.793,10.057C47.793,10.307 47.596,10.512 47.354,10.512M47.356,9.502C47.047,9.502 46.802,9.748 46.802,10.056C46.802,10.364 47.05,10.611 47.356,10.611C47.657,10.611 47.904,10.361 47.904,10.056C47.904,9.752 47.657,9.502 47.356,9.502" style="fill:#231f20;fill-rule:nonzero;"/>
	</symbol>

	<symbol id="icon-paypal" viewBox="0 0 51 32">
		<rect x="0" y="0" width="51" height="32" style="fill:#fff;"/>
		<path d="M50.632,0.363L50.632,31.637L0.368,31.637C0.368,31.282 0.366,0.72 0.366,0.364C0.734,0.364 50.262,0.363 50.632,0.363M50.816,0L0,0.005L0,32L51,32L50.997,0L50.816,0Z" style="fill:#ebebeb;fill-rule:nonzero;"/>
		<path d="M30.085,23.525C29.979,24.222 29.447,24.222 28.933,24.222L28.64,24.222L28.845,22.92C28.858,22.841 28.925,22.783 29.005,22.783L29.139,22.783C29.49,22.783 29.82,22.783 29.991,22.983C30.093,23.103 30.124,23.28 30.085,23.525M29.861,21.705L27.92,21.705C27.788,21.705 27.675,21.802 27.654,21.933L26.869,26.915C26.854,27.013 26.93,27.102 27.029,27.102L28.025,27.102C28.118,27.102 28.197,27.034 28.211,26.942L28.434,25.53C28.455,25.399 28.568,25.302 28.7,25.302L29.314,25.302C30.593,25.302 31.331,24.683 31.524,23.455C31.61,22.919 31.527,22.497 31.276,22.201C31,21.877 30.511,21.705 29.861,21.705" style="fill:#0f9bdf;fill-rule:nonzero;"/>
		<path d="M16.242,23.525C16.136,24.222 15.604,24.222 15.089,24.222L14.796,24.222L15.001,22.92C15.014,22.841 15.082,22.783 15.161,22.783L15.296,22.783C15.646,22.783 15.977,22.783 16.147,22.983C16.249,23.103 16.28,23.28 16.242,23.525M16.018,21.705L14.077,21.705C13.944,21.705 13.831,21.802 13.81,21.933L13.026,26.915C13.01,27.013 13.086,27.102 13.185,27.102L14.112,27.102C14.245,27.102 14.358,27.005 14.379,26.874L14.59,25.53C14.611,25.399 14.724,25.302 14.857,25.302L15.471,25.302C16.749,25.302 17.487,24.683 17.68,23.455C17.767,22.919 17.684,22.497 17.432,22.201C17.156,21.877 16.667,21.705 16.018,21.705" style="fill:#012f87;fill-rule:nonzero;"/>
		<path d="M20.524,25.313C20.434,25.844 20.013,26.201 19.475,26.201C19.205,26.201 18.989,26.114 18.851,25.95C18.713,25.787 18.661,25.555 18.705,25.297C18.789,24.77 19.217,24.402 19.747,24.402C20.011,24.402 20.225,24.489 20.366,24.655C20.509,24.822 20.565,25.056 20.524,25.313M21.819,23.502L20.89,23.502C20.81,23.502 20.742,23.56 20.73,23.639L20.689,23.899L20.624,23.805C20.423,23.512 19.974,23.415 19.526,23.415C18.499,23.415 17.622,24.193 17.452,25.286C17.363,25.831 17.489,26.352 17.798,26.715C18.081,27.049 18.486,27.188 18.968,27.188C19.796,27.188 20.255,26.656 20.255,26.656L20.213,26.914C20.198,27.013 20.274,27.102 20.373,27.102L21.21,27.102C21.343,27.102 21.456,27.005 21.476,26.874L21.979,23.689C21.994,23.591 21.919,23.502 21.819,23.502" style="fill:#012f87;fill-rule:nonzero;"/>
		<path d="M34.367,25.313C34.278,25.844 33.856,26.201 33.318,26.201C33.049,26.201 32.833,26.114 32.694,25.95C32.557,25.787 32.505,25.555 32.549,25.297C32.632,24.77 33.061,24.402 33.59,24.402C33.854,24.402 34.069,24.489 34.21,24.655C34.352,24.822 34.408,25.056 34.367,25.313M35.663,23.502L34.733,23.502C34.654,23.502 34.586,23.56 34.573,23.639L34.533,23.899L34.468,23.805C34.266,23.512 33.818,23.415 33.37,23.415C32.343,23.415 31.466,24.193 31.295,25.286C31.206,25.831 31.332,26.352 31.641,26.715C31.925,27.049 32.33,27.188 32.812,27.188C33.639,27.188 34.098,26.656 34.098,26.656L34.057,26.914C34.041,27.013 34.117,27.102 34.217,27.102L35.054,27.102C35.186,27.102 35.299,27.005 35.32,26.874L35.823,23.689C35.838,23.591 35.762,23.502 35.663,23.502" style="fill:#0f9bdf;fill-rule:nonzero;"/>
		<path d="M26.769,23.502L25.835,23.502C25.746,23.502 25.662,23.547 25.612,23.621L24.323,25.52L23.777,23.695C23.743,23.581 23.638,23.502 23.519,23.502L22.601,23.502C22.49,23.502 22.412,23.611 22.447,23.716L23.476,26.739L22.509,28.105C22.433,28.212 22.509,28.361 22.641,28.361L23.574,28.361C23.662,28.361 23.745,28.317 23.795,28.244L26.902,23.756C26.977,23.649 26.9,23.502 26.769,23.502" style="fill:#012f87;fill-rule:nonzero;"/>
		<path d="M36.758,21.842L35.962,26.915C35.946,27.013 36.022,27.102 36.121,27.102L36.923,27.102C37.055,27.102 37.168,27.005 37.189,26.874L37.974,21.892C37.99,21.794 37.914,21.705 37.815,21.705L36.918,21.705C36.838,21.705 36.771,21.763 36.758,21.842" style="fill:#0f9bdf;fill-rule:nonzero;"/>
		<path d="M31.552,7.735C31.748,6.481 31.55,5.628 30.873,4.855C30.127,4.004 28.779,3.64 27.055,3.64L22.049,3.64C21.697,3.64 21.397,3.896 21.342,4.245L19.258,17.473C19.217,17.734 19.418,17.97 19.682,17.97L22.772,17.97L22.559,19.324C22.523,19.552 22.699,19.759 22.93,19.759L25.535,19.759C25.843,19.759 26.106,19.534 26.154,19.229L26.179,19.097L26.67,15.983L26.701,15.811C26.75,15.506 27.012,15.281 27.32,15.281L27.71,15.281C30.233,15.281 32.209,14.255 32.786,11.288C33.027,10.048 32.903,9.013 32.265,8.285C32.072,8.065 31.832,7.883 31.552,7.735" style="fill:#0f9bdf;fill-rule:nonzero;"/>
		<path d="M31.552,7.735C31.748,6.481 31.55,5.628 30.873,4.855C30.127,4.004 28.779,3.64 27.055,3.64L22.049,3.64C21.697,3.64 21.397,3.896 21.342,4.245L19.258,17.473C19.217,17.734 19.418,17.97 19.682,17.97L22.772,17.97L23.549,13.044L23.525,13.198C23.579,12.85 23.877,12.593 24.229,12.593L25.698,12.593C28.582,12.593 30.841,11.42 31.501,8.028C31.52,7.928 31.537,7.83 31.552,7.735" style="fill:#072269;fill-rule:nonzero;"/>
		<path d="M24.382,7.751C24.415,7.542 24.55,7.37 24.731,7.283C24.813,7.244 24.905,7.222 25.001,7.222L28.925,7.222C29.389,7.222 29.823,7.253 30.219,7.316C30.332,7.335 30.442,7.356 30.549,7.379C30.657,7.403 30.76,7.43 30.861,7.459C30.911,7.474 30.961,7.489 31.009,7.505C31.204,7.57 31.385,7.646 31.552,7.735C31.748,6.481 31.55,5.628 30.873,4.855C30.127,4.004 28.779,3.639 27.055,3.639L22.05,3.639C21.697,3.639 21.397,3.896 21.342,4.245L19.258,17.473C19.217,17.734 19.418,17.97 19.682,17.97L22.772,17.97L23.549,13.044L24.382,7.751Z" style="fill:#012f87;fill-rule:nonzero;"/>
	</symbol>

	<symbol id="icon-amazon" viewBox="0 0 50 32">
		<rect x="0" y="0" width="50" height="32" style="fill:#eaeded;"/>
		<path d="M17.467,7.121C17.396,7.131 17.319,7.141 17.247,7.152C16.533,7.238 15.889,7.504 15.307,7.923C15.184,8.01 15.072,8.102 14.944,8.199C14.934,8.173 14.924,8.147 14.924,8.127C14.903,7.989 14.883,7.846 14.858,7.708C14.822,7.473 14.704,7.371 14.469,7.371L13.882,7.371C13.53,7.371 13.463,7.438 13.463,7.79L13.463,18.478C13.463,18.53 13.463,18.581 13.468,18.632C13.479,18.785 13.571,18.882 13.719,18.887C14.076,18.892 14.439,18.892 14.796,18.887C14.944,18.887 15.036,18.785 15.052,18.632C15.057,18.581 15.057,18.53 15.057,18.478L15.057,14.781C15.113,14.827 15.144,14.853 15.169,14.878C16.083,15.639 17.135,15.889 18.284,15.665C19.326,15.46 20.051,14.822 20.521,13.882C20.878,13.173 21.026,12.417 21.047,11.63C21.072,10.757 20.986,9.899 20.633,9.087C20.199,8.086 19.479,7.427 18.391,7.203C18.228,7.167 18.059,7.152 17.891,7.126C17.748,7.121 17.61,7.121 17.467,7.121ZM15.046,9.261C15.046,9.184 15.067,9.138 15.133,9.092C15.833,8.607 16.604,8.352 17.462,8.418C18.223,8.474 18.846,8.847 19.173,9.741C19.372,10.287 19.423,10.854 19.423,11.426C19.423,11.957 19.382,12.478 19.219,12.989C18.871,14.076 18.075,14.49 17.043,14.444C16.328,14.413 15.705,14.138 15.133,13.734C15.072,13.688 15.046,13.647 15.046,13.566C15.052,12.846 15.046,12.131 15.046,11.411C15.046,10.696 15.052,9.981 15.046,9.261ZM25.551,7.121C25.5,7.126 25.449,7.136 25.403,7.141C24.903,7.167 24.412,7.228 23.927,7.351C23.616,7.433 23.314,7.545 23.013,7.647C22.829,7.708 22.737,7.841 22.742,8.04C22.747,8.209 22.737,8.377 22.742,8.546C22.747,8.791 22.85,8.857 23.09,8.796C23.488,8.694 23.886,8.582 24.29,8.505C24.918,8.388 25.551,8.336 26.189,8.433C26.521,8.485 26.833,8.582 27.047,8.862C27.236,9.108 27.308,9.399 27.318,9.7C27.333,10.124 27.328,10.548 27.333,10.972C27.333,10.992 27.328,11.017 27.323,11.043C27.298,11.038 27.277,11.043 27.257,11.038C26.721,10.91 26.179,10.818 25.623,10.788C25.046,10.757 24.474,10.793 23.922,10.987C23.263,11.217 22.732,11.615 22.421,12.258C22.181,12.759 22.145,13.29 22.221,13.826C22.324,14.541 22.681,15.093 23.314,15.445C23.922,15.782 24.581,15.823 25.25,15.721C26.021,15.603 26.705,15.277 27.308,14.781C27.328,14.761 27.354,14.745 27.39,14.725C27.42,14.919 27.446,15.103 27.481,15.287C27.512,15.445 27.609,15.547 27.757,15.552C28.033,15.557 28.314,15.557 28.59,15.552C28.727,15.547 28.819,15.455 28.835,15.312C28.84,15.266 28.84,15.215 28.84,15.169L28.84,9.756C28.84,9.537 28.83,9.317 28.794,9.097C28.697,8.439 28.416,7.897 27.824,7.545C27.481,7.341 27.104,7.238 26.71,7.182C26.526,7.157 26.343,7.141 26.159,7.116C25.96,7.121 25.755,7.121 25.551,7.121ZM27.338,13.642C27.338,13.709 27.318,13.755 27.262,13.796C26.69,14.209 26.062,14.485 25.352,14.556C25.061,14.587 24.77,14.577 24.494,14.465C24.172,14.337 23.963,14.112 23.861,13.785C23.759,13.459 23.759,13.121 23.856,12.795C23.983,12.371 24.285,12.131 24.693,11.998C25.107,11.865 25.536,11.845 25.96,11.886C26.389,11.921 26.807,12.003 27.236,12.059C27.318,12.069 27.344,12.11 27.344,12.192C27.338,12.437 27.344,12.677 27.344,12.922C27.338,13.162 27.333,13.402 27.338,13.642ZM33.865,13.959C33.206,12.136 32.547,10.308 31.889,8.485C31.786,8.193 31.674,7.907 31.567,7.621C31.511,7.473 31.403,7.376 31.24,7.376C30.852,7.371 30.464,7.366 30.071,7.371C29.943,7.371 29.882,7.473 29.907,7.601C29.933,7.708 29.963,7.81 30.004,7.913C31.005,10.389 32.011,12.871 33.022,15.343C33.109,15.552 33.13,15.731 33.032,15.946C32.864,16.318 32.731,16.712 32.558,17.084C32.404,17.416 32.149,17.666 31.781,17.764C31.521,17.835 31.26,17.845 30.995,17.82C30.867,17.809 30.74,17.779 30.612,17.769C30.438,17.758 30.351,17.835 30.346,18.014C30.341,18.182 30.341,18.351 30.346,18.519C30.351,18.8 30.448,18.928 30.724,18.974C31.01,19.025 31.301,19.071 31.587,19.076C32.461,19.096 33.155,18.744 33.604,17.983C33.783,17.682 33.947,17.365 34.074,17.043C35.285,13.99 36.48,10.931 37.68,7.872C37.715,7.78 37.746,7.688 37.761,7.591C37.782,7.448 37.715,7.366 37.572,7.366C37.235,7.361 36.893,7.366 36.556,7.366C36.367,7.366 36.234,7.448 36.163,7.632C36.137,7.703 36.107,7.77 36.081,7.841C35.489,9.542 34.896,11.242 34.304,12.948C34.176,13.316 34.044,13.688 33.911,14.082C33.89,14.025 33.88,13.995 33.865,13.959Z" style="fill-rule:nonzero;"/>
		<path d="M7.647,19.594C7.778,19.356 7.942,19.316 8.198,19.452C8.788,19.77 9.367,20.099 9.969,20.4C12.28,21.559 14.694,22.422 17.204,23.029C18.39,23.313 19.583,23.54 20.792,23.699C22.581,23.938 24.381,24.04 26.187,23.995C27.175,23.972 28.163,23.893 29.145,23.779C32.348,23.399 35.443,22.598 38.418,21.349C38.583,21.281 38.753,21.235 38.935,21.281C39.315,21.383 39.446,21.792 39.168,22.07C39.009,22.229 38.81,22.359 38.622,22.49C36.879,23.688 34.977,24.557 32.967,25.21C31.57,25.659 30.15,25.994 28.702,26.209C27.703,26.357 26.692,26.459 25.681,26.482C25.636,26.482 25.585,26.493 25.539,26.499L24.341,26.499C24.296,26.493 24.245,26.482 24.199,26.482C23.995,26.471 23.791,26.465 23.592,26.459C22.632,26.419 21.678,26.312 20.73,26.158C19.174,25.903 17.652,25.511 16.164,24.971C13.092,23.858 10.338,22.212 7.897,20.031C7.795,19.94 7.726,19.815 7.647,19.708L7.647,19.594ZM42.353,19.418C42.296,19.134 42.081,19.026 41.836,18.947C41.45,18.816 41.047,18.759 40.644,18.725C39.9,18.663 39.156,18.697 38.418,18.833C37.606,18.986 36.834,19.248 36.147,19.719C36.067,19.776 35.988,19.838 35.937,19.918C35.897,19.98 35.885,20.077 35.908,20.145C35.931,20.23 36.027,20.253 36.113,20.247C36.152,20.247 36.198,20.247 36.237,20.241C36.68,20.196 37.118,20.145 37.561,20.099C38.208,20.037 38.861,19.997 39.508,20.048C39.781,20.065 40.059,20.128 40.326,20.202C40.616,20.281 40.746,20.497 40.757,20.792C40.78,21.246 40.678,21.684 40.559,22.115C40.326,22.99 39.991,23.836 39.662,24.676C39.639,24.733 39.616,24.79 39.605,24.847C39.576,25.011 39.673,25.119 39.838,25.079C39.934,25.057 40.042,25.006 40.11,24.937C40.36,24.693 40.616,24.449 40.831,24.176C41.558,23.245 41.984,22.172 42.234,21.019C42.279,20.815 42.313,20.605 42.353,20.4L42.353,19.418Z" style="fill:#f90;fill-rule:nonzero;"/>
		<rect x="0" y="30.292" width="50" height="1.684" style="fill:#f90;"/>
	</symbol>

</defs>
</svg>
