<svg style="position: absolute; width: 0; height: 0; overflow: hidden;" version="1.1" xmlns="http://www.w3.org/2000/svg" xmlns:xlink="http://www.w3.org/1999/xlink">
<defs>
	<symbol id="icon-mastercard" viewBox="0 0 51 32">
		<rect x="0" y="0" width="51" height="32"/>
		<path d="M14.327,29.327L14.327,27.523C14.33,27.494 14.331,27.464 14.331,27.435C14.331,26.859 13.858,26.385 13.282,26.385C13.262,26.385 13.241,26.386 13.221,26.387C12.817,26.361 12.429,26.557 12.211,26.898C12.012,26.568 11.647,26.371 11.261,26.387C10.919,26.367 10.59,26.527 10.395,26.808L10.395,26.456L9.803,26.456L9.803,29.333L10.386,29.333L10.386,27.68C10.383,27.655 10.382,27.631 10.382,27.607C10.382,27.227 10.694,26.915 11.074,26.915C11.087,26.915 11.1,26.915 11.114,26.916C11.529,26.916 11.763,27.187 11.763,27.674L11.763,29.33L12.346,29.33L12.346,27.68C12.344,27.657 12.343,27.633 12.343,27.61C12.343,27.229 12.656,26.915 13.037,26.915C13.049,26.915 13.062,26.916 13.074,26.916C13.501,26.916 13.729,27.187 13.729,27.674L13.729,29.33L14.327,29.327ZM23.695,26.456L22.649,26.456L22.649,25.584L22.063,25.584L22.063,26.456L21.462,26.456L21.462,26.979L22.063,26.979L22.063,28.341C22.063,29.009 22.297,29.405 23.037,29.405C23.313,29.406 23.584,29.329 23.819,29.183L23.638,28.672C23.471,28.772 23.28,28.828 23.085,28.834C22.784,28.834 22.646,28.642 22.646,28.353L22.646,26.973L23.692,26.973L23.695,26.456ZM29.035,26.384C28.719,26.378 28.422,26.538 28.253,26.805L28.253,26.456L27.682,26.456L27.682,29.333L28.259,29.333L28.259,27.71C28.259,27.235 28.488,26.928 28.896,26.928C29.03,26.926 29.163,26.951 29.287,27L29.48,26.456C29.337,26.405 29.186,26.379 29.035,26.378L29.035,26.384ZM20.963,26.685C20.609,26.474 20.202,26.37 19.79,26.384C19.063,26.384 18.618,26.727 18.618,27.286C18.618,27.755 18.942,28.038 19.586,28.128L19.886,28.17C20.229,28.218 20.415,28.338 20.415,28.501C20.415,28.723 20.163,28.867 19.736,28.867C19.392,28.879 19.055,28.773 18.78,28.567L18.479,29.018C18.846,29.267 19.281,29.398 19.724,29.39C20.554,29.39 21.014,29.006 21.014,28.458C21.014,27.911 20.662,27.704 20.04,27.614L19.739,27.572C19.468,27.536 19.228,27.451 19.228,27.271C19.228,27.091 19.456,26.916 19.799,26.916C20.116,26.92 20.426,27.005 20.701,27.163L20.963,26.685ZM29.681,27.887C29.68,27.911 29.679,27.935 29.679,27.958C29.679,28.745 30.327,29.392 31.113,29.392C31.137,29.392 31.161,29.392 31.184,29.39C31.56,29.41 31.929,29.287 32.218,29.048L31.918,28.597C31.702,28.761 31.438,28.852 31.166,28.855C30.666,28.807 30.28,28.382 30.28,27.88C30.28,27.377 30.666,26.952 31.166,26.904C31.438,26.907 31.702,26.998 31.918,27.163L32.218,26.712C31.929,26.472 31.56,26.35 31.184,26.369C31.161,26.368 31.137,26.367 31.113,26.367C30.327,26.367 29.679,27.015 29.679,27.801C29.679,27.825 29.68,27.849 29.681,27.872L29.681,27.887ZM25.634,26.384C24.793,26.384 24.212,26.985 24.212,27.887C24.211,27.917 24.21,27.946 24.21,27.975C24.21,28.752 24.849,29.391 25.626,29.391C25.643,29.391 25.66,29.391 25.677,29.39C26.105,29.405 26.525,29.262 26.855,28.988L26.554,28.561C26.317,28.751 26.023,28.857 25.719,28.861C25.284,28.877 24.905,28.556 24.85,28.125L26.999,28.125C26.999,28.047 26.999,27.968 26.999,27.884C26.999,26.982 26.452,26.381 25.644,26.381L25.634,26.384ZM25.634,26.919C25.643,26.919 25.651,26.919 25.659,26.919C26.059,26.919 26.389,27.246 26.392,27.647L24.85,27.647C24.872,27.231 25.228,26.906 25.644,26.919L25.634,26.919ZM17.845,27.89L17.845,26.456L17.268,26.456L17.268,26.805C17.041,26.526 16.695,26.369 16.336,26.384C15.507,26.384 14.825,27.066 14.825,27.895C14.825,28.724 15.507,29.405 16.336,29.405C16.695,29.42 17.041,29.264 17.268,28.985L17.268,29.333L17.845,29.333L17.845,27.89ZM15.515,27.89C15.513,27.866 15.512,27.842 15.512,27.818C15.512,27.323 15.919,26.916 16.414,26.916C16.415,26.916 16.416,26.916 16.417,26.916C16.917,26.964 17.303,27.389 17.303,27.892C17.303,28.394 16.917,28.819 16.417,28.867C16.416,28.867 16.415,28.867 16.414,28.867C15.919,28.867 15.512,28.46 15.512,27.965C15.512,27.941 15.513,27.917 15.515,27.893L15.515,27.89ZM37.729,26.387C37.413,26.381 37.116,26.541 36.948,26.808L36.948,26.456L36.376,26.456L36.376,29.333L36.954,29.333L36.954,27.71C36.954,27.235 37.182,26.928 37.591,26.928C37.725,26.926 37.857,26.951 37.982,27L38.174,26.459C38.031,26.408 37.881,26.382 37.729,26.381L37.729,26.387ZM42.365,28.918C42.404,28.918 42.443,28.925 42.479,28.939C42.514,28.954 42.545,28.974 42.572,29C42.599,29.026 42.62,29.056 42.636,29.09C42.666,29.161 42.666,29.241 42.636,29.312C42.62,29.346 42.599,29.377 42.572,29.402C42.545,29.428 42.514,29.449 42.479,29.463C42.443,29.478 42.404,29.487 42.365,29.487C42.249,29.486 42.143,29.418 42.094,29.312C42.064,29.241 42.064,29.161 42.094,29.09C42.11,29.056 42.131,29.026 42.158,29C42.185,28.974 42.216,28.954 42.251,28.939C42.287,28.922 42.325,28.912 42.365,28.909L42.365,28.918ZM42.365,29.427C42.395,29.427 42.425,29.421 42.452,29.408C42.478,29.397 42.502,29.381 42.521,29.36C42.599,29.276 42.599,29.144 42.521,29.06C42.502,29.039 42.478,29.023 42.452,29.012C42.425,29 42.395,28.993 42.365,28.994C42.335,28.994 42.305,29 42.278,29.012C42.251,29.023 42.226,29.039 42.206,29.06C42.128,29.144 42.128,29.276 42.206,29.36C42.226,29.381 42.251,29.397 42.278,29.408C42.306,29.418 42.335,29.422 42.365,29.421L42.365,29.427ZM42.383,29.069C42.411,29.067 42.439,29.076 42.461,29.093C42.48,29.108 42.49,29.132 42.488,29.156C42.489,29.176 42.482,29.196 42.467,29.21C42.45,29.226 42.428,29.235 42.404,29.237L42.491,29.336L42.422,29.336L42.341,29.237L42.314,29.237L42.314,29.336L42.257,29.336L42.257,29.072L42.383,29.069ZM42.317,29.12L42.317,29.192L42.383,29.192C42.395,29.196 42.407,29.196 42.419,29.192C42.423,29.184 42.423,29.173 42.419,29.165C42.423,29.156 42.423,29.146 42.419,29.138C42.407,29.135 42.395,29.135 42.383,29.138L42.317,29.12ZM35.513,27.896L35.513,26.456L34.936,26.456L34.936,26.805C34.71,26.526 34.364,26.369 34.004,26.384C33.176,26.384 32.494,27.066 32.494,27.895C32.494,28.724 33.176,29.405 34.004,29.405C34.364,29.42 34.71,29.264 34.936,28.985L34.936,29.333L35.513,29.333L35.513,27.896ZM33.184,27.896C33.182,27.872 33.181,27.848 33.181,27.824C33.181,27.329 33.588,26.922 34.083,26.922C34.084,26.922 34.084,26.922 34.085,26.922C34.585,26.97 34.972,27.395 34.972,27.898C34.972,28.4 34.585,28.825 34.085,28.873C34.084,28.873 34.084,28.873 34.083,28.873C33.588,28.873 33.181,28.466 33.181,27.971C33.181,27.947 33.182,27.923 33.184,27.899L33.184,27.896ZM41.322,27.896L41.322,25.296L40.745,25.296L40.745,26.799C40.518,26.52 40.172,26.363 39.813,26.378C38.984,26.378 38.302,27.06 38.302,27.889C38.302,28.718 38.984,29.399 39.813,29.399C40.172,29.414 40.518,29.258 40.745,28.979L40.745,29.327L41.322,29.327L41.322,27.896ZM38.992,27.896C38.99,27.872 38.989,27.848 38.989,27.824C38.989,27.329 39.396,26.922 39.891,26.922C39.892,26.922 39.893,26.922 39.894,26.922C40.37,26.995 40.725,27.409 40.725,27.891C40.725,28.377 40.363,28.793 39.882,28.861C39.881,28.861 39.88,28.861 39.879,28.861C39.384,28.861 38.977,28.454 38.977,27.959C38.977,27.936 38.978,27.913 38.98,27.89L38.992,27.896Z" style="fill:#fff;fill-rule:nonzero;"/>
		<rect x="20.764" y="4.552" width="9.47" height="17.019" style="fill:#ff5f00;"/>
		<path d="M21.365,13.063C21.363,9.744 22.889,6.603 25.499,4.555C23.593,3.056 21.237,2.241 18.812,2.241C12.874,2.241 7.989,7.127 7.989,13.064C7.989,19.002 12.874,23.887 18.812,23.887C21.237,23.887 23.593,23.072 25.499,21.574C22.888,19.524 21.362,16.382 21.365,13.063Z" style="fill:#eb001b;fill-rule:nonzero;"/>
		<pathd="M41.986,19.77L41.986,19.421L42.128,19.421L42.128,19.349L41.77,19.349L41.77,19.421L41.911,19.421L41.911,19.77L41.986,19.77ZM42.681,19.77L42.681,19.349L42.572,19.349L42.446,19.65L42.32,19.349L42.212,19.349L42.212,19.77L42.287,19.77L42.287,19.451L42.404,19.725L42.485,19.725L42.603,19.451L42.603,19.77L42.681,19.77Z" style="fill:#f79e1b;fill-rule:nonzero;"/>
		<path d="M43.011,13.063C43.011,19 38.126,23.886 32.188,23.886C29.763,23.886 27.406,23.07 25.499,21.571C28.108,19.52 29.635,16.38 29.635,13.061C29.635,9.743 28.108,6.602 25.499,4.552C27.406,3.052 29.763,2.237 32.188,2.237C38.126,2.237 43.011,7.123 43.011,13.06L43.011,13.063Z" style="fill:#f79e1b;fill-rule:nonzero;"/>
	</symbol>
</defs>
</svg>
